<?xml version="1.0" encoding="utf-8"?>
<!-- Generator: Adobe Illustrator 16.0.0, SVG Export Plug-In . SVG Version: 6.00 Build 0)  -->
<!DOCTYPE svg PUBLIC "-//W3C//DTD SVG 1.1//EN" "http://www.w3.org/Graphics/SVG/1.1/DTD/svg11.dtd">
<svg version="1.1" id="Layer_1" xmlns="http://www.w3.org/2000/svg" xmlns:xlink="http://www.w3.org/1999/xlink" x="0px" y="0px"
	 width="600px" height="170px" viewBox="0 0 600 170" enable-background="new 0 0 600 170" xml:space="preserve">
<g>
	<path fill="#35ABD2" d="M422.549,45.242c-0.025,0.062-0.055,0.125-0.084,0.186c-2.277,4.749-7.623,6.25-12.029,8.001
		c-1.186,0.47-2.756,2.064-3.863,1.227c-1.633-1.237,0.123-5.758-0.043-7.321c-0.266-2.496-1.553-4.637-3.979-5.541
		c-4.434-1.652-8.408,2.915-8.127,7.094c0.223,3.302,5.695,5.644,4.646,8.702c-0.783,2.277-4.918,2.923-6.471,4.552
		c-1.496,1.567-2.426,3.628-3.258,5.597c-0.598,1.415-1.152,2.85-1.848,4.221c-0.312,0.62-0.645,1.365-1.135,1.872
		c-0.199,0.208-0.49,0.481-0.779,0.558c-0.391,0.104-0.693-0.231-0.977-0.192c0.113-0.016,0.098,0.02,0.094,0.024
		c-0.572-0.569-1.092-1.188-1.66-1.755c-0.799-0.799-1.783-1.38-2.014-2.578c-0.193-0.986-0.361-1.828-1.012-2.655
		c-0.385-0.482-1.777-1.58-2.32-0.718c-0.434,0.693,1.195,1.644,1.117,2.57c-0.035,0.398-1.789-0.631-1.941-0.67
		c-1.416-0.373-1.902,2.519-2.074,3.385c-0.293,1.466,0.215,2.037,1.531,2.69c0.576,0.284,1.232,0.501,1.832,0.731
		c-0.154-0.059-0.266,1.015-0.211,1.167c0.125,0.351,0.883,1.13,1.158,1.422c1.359,1.442,3.188,2.644,4.977,3.472
		c1.537,0.71,3.656,1.598,5.354,0.926c2.371-0.938,3.617-10.162,6.939-8.195c2.445,1.449,3.562,7.272,4.076,9.825
		c0.68,3.384,0.711,7.06-1.035,10.155c-2.77,4.909-3.936,9.522-5.713,14.858c-2.135,6.408-3.092,13.147-5.654,19.459
		c-0.742,1.824-1.432,3.642-2.143,5.459c-0.311,0.793-0.621,1.934-1.211,2.592c-0.922,1.021-2.127,0.602-1.865,2.467
		c0.156,1.117,0.971,2.318,1.717,3.136c0.74,0.811,1.6,1.479,2.672,1.786c1.232,0.354,2.24-1.178,2.705-2.076
		c3.102,1.449,2.598-2.33,3.146-4.369c1.031-3.844,3.143-7.327,4.375-11.104c1.078-3.301,2.41-6.451,3.523-9.732
		c1.285-3.789,2.918-7.191,4.672-10.77c0.525-1.074,1.049-2.076,1.766-3.053c1.219-1.658,2.586-3.388,4.65-4.023
		c7.299-2.246,17.316,4.191,23.832,6.945c2.141,0.906,4.23,1.777,6.324,2.799c2.189,1.066,4.451,2.346,6.865,2.976
		c1.443,0.376,9.004,4.401,9.666,2.642c0.857,0.604,2.277,1.59,3.326,0.848c0.801-0.566,1.322-2.885,1.229-3.834
		c-0.135-1.338-1.768-1.016-2.762-1.522c-2.287-1.171-3.984-3.442-6.531-4c-2.715-0.594-5.062-2.511-7.475-3.812
		c-2.617-1.41-5.295-2.708-7.908-4.127c-3.566-1.937-7.104-3.739-10.713-5.582c-5.205-2.657-9.061-4.164-11.225-9.897
		c-1.961-5.191-2.473-11.52-2.348-17.069c0.119-5.212,5.727-6.876,9.162-9.454c3.225-2.419,4.707-5.488,5.373-9.45
		c0.15-0.889,2.35-9.456,2.398-9.446c-1.994-0.427-0.984-3.055-0.756-4.523c0.24-1.538,0.695-3.054-0.047-4.55
		c-0.5-1.005-2.18-2.451-3.357-2.397c-2.725,0.125,0.486,3.687-1.363,4.368c-1.123,0.413-0.807-2.654-2.164-1.38
		c-1.309,1.233,0.043,3.168,0.844,4.195c1.002,1.292,1.729,1.969,1.213,3.707c-0.615,2.071-1.596,4.002-2.248,6.054
		C423.068,43.134,422.971,44.255,422.549,45.242z"/>
	<path fill="#333333" d="M62.221,77.06l-0.152,36.41H45.413V77.06H62.221z M87.51,77.06h21.176v0.127L75.627,93.589l34.582,19.754
		v0.127H90.354L64.506,98.362v-9.039L87.51,77.06z"/>
	<g id="XMLID_2_">
		<g>
			<path fill="#333333" d="M150.383,112.958h-0.24c0-0.27,0.25-0.399,0.76-0.399v-0.38l-1.78-0.38c-0.41,0.159-1.35,0.29-2.84,0.38
				l0.76,0.779l-1.32,0.511h-4.12v-0.38h-0.76l-0.25,0.13v-0.13h-0.51v0.13l1.02,0.12v0.13h-10.31l-0.56-0.25v-1.681l0.56-0.399
				l-0.56-0.391v-0.12l0.25-0.13l-0.25-0.13v-1.67h0.25l1.07,0.38h0.25l-1.57-1.17v-1.02l0.56-0.271h3.35v0.4l-0.25,0.13l0.5,0.25
				c1.7-0.521,2.9-0.78,3.61-0.78h4.37c-0.21,0.601-0.63,0.91-1.27,0.91v0.25l2.08-0.5l-0.26-0.13c0.11-0.26,0.44-0.43,1.02-0.53
				l1.02,0.271l0.76-0.271h8.78l1.07,0.53h0.25l0.26-0.13v-0.13l-0.26-0.12v-0.15h2.34c0.34,0,0.51,0.13,0.51,0.4l1.01-0.4h1.58
				l0.5,0.271v0.39h-0.25l-0.25,0.12l0.25,0.13c0,0.34,0.34,0.51,1.02,0.51c0-0.26,0.17-0.38,0.5-0.38l0.51,1.29h-1.01v0.26
				c0.67,0,1.01,0.12,1.01,0.381l1.58,0.659v1.04h-0.77v0.511l0.51,0.38v0.779l-0.25,0.131c-0.71,0-1.07,0.13-1.07,0.38h-3.35
				l-0.51-0.25v-0.13h1.02v-1.29c0.71,0,1.06-0.131,1.06-0.391h-0.76v-0.27c0.85-0.061,1.27-0.181,1.27-0.391v-0.25
				c-0.51-0.319-0.76-0.63-0.76-0.909l0.25-0.641l-1.06-0.25c-0.75,0.2-1.17,0.41-1.27,0.63l0.51,0.41v0.13l-0.26,0.12l0.26,0.13
				v0.13c-0.44,0-0.95,0.12-1.53,0.38v0.12l0.26,0.13v0.79l-0.26,0.131h0.76v0.88l-0.5,0.279c-1.05,0-1.58-0.22-1.58-0.659h-1.52
				v0.26h-1.32l-0.76,0.53c0.51,0,0.76,0.09,0.76,0.25v0.13h-3.61l-0.5-0.25v-0.13L150.383,112.958z M156.583,109.589v-0.131
				l-0.76,0.28l-1.06-0.149l-1.78,0.399h-0.51l-0.81-0.53l0.3,0.66c0,0.42-0.35,0.63-1.06,0.63v0.13l0.25,0.131l2.34-1.021h1.01
				l0.56,0.26L156.583,109.589z M152.733,107.658v-0.26l-0.51-0.25v0.51H152.733z M149.883,110.248h-0.76v-0.13l0.25-0.13v-0.78
				h-0.5l-0.56,0.25c0.44,0,0.71,0.221,0.81,0.66l-0.81,0.13l0.25,0.12v0.13l-0.25,0.13v0.12
				C149.363,110.549,149.883,110.378,149.883,110.248z M149.633,107.278v-0.13h-0.51l-0.25,0.13v0.12L149.633,107.278z
				 M147.803,108.188l0.51-0.28h-1.02L147.803,108.188z M145.723,111.918v-1.93h-0.51v0.64l-1.02,0.511l0.51,0.529l-1.01,0.891v0.12
				C144.503,112.578,145.184,112.328,145.723,111.918z M145.213,108.948v-0.38l-0.25-0.13h-0.51v0.13c0.34,0,0.51,0.13,0.51,0.38
				H145.213z M144.193,109.589v-0.131h-0.25l-0.25,0.41v0.12h0.25L144.193,109.589z M144.193,108.188v-0.66h-0.25l-0.25,0.38
				L144.193,108.188z M143.693,109.589v-0.261h-0.26l-0.81-0.38v0.51L143.693,109.589z M142.923,111.538l-0.3-0.66v-0.38h-0.51v0.79
				l0.51,0.25H142.923z M141.354,110.368v-0.25h-0.25l-0.51,0.25v0.13h0.51L141.354,110.368z M138.763,110.368l0.25-0.12h-0.5
				l-1.53,0.5v0.261l0.26,0.13l0.76-0.13c0-0.341,0.17-0.511,0.51-0.511L138.763,110.368z M136.423,108.948v-0.25h-0.5l-0.26,0.12
				l0.26,0.771h0.25L136.423,108.948z M133.073,111.538h0.51l-1.01-0.79c0.33-0.199,0.59-0.63,0.76-1.29l-0.51-0.25h-0.25v0.25
				l0.25,0.131l-0.25,0.149l-1.27-0.149l-0.26,0.529l0.26,0.13l0.25-0.13l1.02,0.13l-0.26,0.63v0.41
				C132.823,111.288,133.073,111.368,133.073,111.538z"/>
			<polygon fill="#333333" points="165.124,108.038 165.124,108.818 164.104,108.818 164.104,108.318 164.613,108.038 			"/>
			<polygon fill="#333333" points="157.854,113.219 157.354,113.469 155.063,113.469 155.063,113.339 156.083,112.839 
				156.843,112.839 			"/>
			<path fill="#333333" d="M149.633,112.179l0.51,0.25c-0.68,0.34-1.02,0.689-1.02,1.04h-0.56l-1.27-0.25v-0.261h0.26
				C147.993,112.438,148.684,112.179,149.633,112.179z"/>
			<path fill="#333333" d="M127.983,112.198v1.04l-0.51,0.26h-1.57l-0.76-0.26l-0.51,0.26h-1.83c-0.34,0-0.51-0.13-0.51-0.38h-1.57
				c0,0.25-0.17,0.38-0.51,0.38h-1.27l-1.57-0.64h-0.26v0.64h-3.1v-0.38h-1.57v0.12h0.56v0.26h-1.07l-0.51-0.26v-0.12l0.51-0.41
				v-0.64h-0.51v-1.16l1.02-0.77c0-0.271-0.25-0.4-0.76-0.4l-0.26-0.13v-0.91l0.51-0.26h1.07l0.76,0.26h0.76l-0.25-0.13l-1.27-0.25
				l-0.56-0.77h-0.51v0.64h-0.51v-4.93l0.51-0.25h0.26l1.57,0.25v0.159l1.27-0.159h2.08c0-0.17-0.34-0.25-1.01-0.25v-0.25h-1.83
				l-0.51-0.261l0.25-0.529c-0.67,0-1.01-0.471-1.01-1.42l-0.31,0.149h-0.76l-0.51-0.28v-1.02h0.77h0.5c0.55,0,1.07,0.17,1.58,0.51
				h0.25l1.07,0.51l-0.56,0.66v0.13l0.56,0.25h0.25l1.27-0.13l0.26,0.641h0.25v-0.761c0.34,0,0.51-0.17,0.51-0.51l0.3-0.149h0.26
				l1.01,0.149v-0.149c0-0.171-0.52-0.341-1.57-0.511l-0.26-0.64v-0.15h0.56h0.76l2.59,0.92v-0.51c-0.88-0.31-1.32-0.7-1.32-1.17
				l0.82-0.51l0.25,0.13h1.52v0.25c0.82,0,1.51,0.22,2.09,0.64l0.5-0.38c-0.5,0-0.76-0.09-0.76-0.26v-0.78h1.58l0.5,0.25v0.66
				c-0.54,0-0.81,0.09-0.81,0.25c0.71,0,1.32,0.22,1.83,0.66v1.55l-1.83,1.021h1.32v-0.511h0.51v5.69
				c-0.34,0.35-0.76,0.53-1.27,0.53l0.51,0.26l0.76-0.13v3.6h-0.51c0-0.42-0.17-0.63-0.51-0.63l-1.57-0.38v0.13
				c0,0.13,0.52,0.26,1.57,0.38l0.26,0.66v0.12l-0.76,0.38h-0.56l-1.53-0.66v0.16l1.27,0.76l-0.25,0.38h0.25
				c1.05,0,1.58-0.17,1.58-0.51H127.983z M127.473,99.908v-0.38l-1.57,0.13v0.25H127.473z M126.963,106.128l0.26-0.529h-0.76
				l-0.31,0.529H126.963z M125.394,105.349v-0.51c-1.56,0.25-2.34,0.55-2.34,0.89v0.12h0.26
				C123.383,105.509,124.073,105.349,125.394,105.349z M125.144,102.118l-1.02,0.13v0.25
				C124.803,102.368,125.144,102.238,125.144,102.118z M124.883,100.948v-0.25h-0.25l-1.58,0.63l-0.76-0.12v0.511h0.76
				C123.053,101.378,123.664,101.118,124.883,100.948z M123.874,112.578v-0.25h-0.82v0.25H123.874z M122.553,104.049h1.06
				l-0.3-0.131v-0.119l-0.76,0.119V104.049z M122.803,103.538v-0.279c-0.51,0-0.76-0.12-0.76-0.381l-0.26-0.119h-0.76v0.119
				C121.023,103.019,121.613,103.238,122.803,103.538z M121.533,111.028l0.25-0.63c-0.33-0.41-0.69-0.63-1.06-0.66v0.13l0.56,0.4
				v0.26c0,0.25-0.36,0.38-1.07,0.38v0.12H121.533z M119.704,102.628l-0.25-0.38l-1.02,0.511h0.76l0.26-0.131H119.704z
				 M119.193,104.559c0-0.391,0.43-0.73,1.27-1.021c-1.89,0.09-2.84,0.221-2.84,0.38v0.131c0.71,0,1.07,0.17,1.07,0.51H119.193z
				 M119.193,109.988v-0.25l-1.32,0.4v0.13h0.56C118.434,110.089,118.693,109.988,119.193,109.988z M118.693,111.818v-0.25h-1.32
				l0.5,0.25H118.693z M117.874,107.019v-0.13h-0.25v0.26c-0.51,0-0.76,0.08-0.76,0.25h0.76L117.874,107.019z M116.604,105.349
				l0.51-0.26h-0.51l-0.5,0.26H116.604z M116.104,110.528l0.5-0.26h-0.76v0.26H116.104z M116.354,112.578l-0.25-0.51l-1.07,0.26
				l0.56,0.38L116.354,112.578z M115.843,107.679l0.51-0.28h-0.76l-0.56,0.28H115.843z M114.783,104.559h0.81
				c-0.34-0.311-0.86-0.521-1.58-0.641c0,0.341-0.17,0.511-0.5,0.511l-0.82-0.13l-0.25,0.13v0.41c0.54,0,0.81,0.13,0.81,0.38h0.26
				C113.513,104.778,113.934,104.559,114.783,104.559z"/>
			<polygon fill="#333333" points="127.983,97.198 127.983,98.488 127.473,98.488 127.473,98.238 127.223,97.318 127.473,97.198 			
				"/>
			<path fill="#333333" d="M127.983,80.769v16.17h-1.27l-1.32-0.4c0,0.351-0.34,0.53-1.02,0.53c0,0.51-0.17,0.76-0.5,0.76h-1.32
				l-0.77-0.25l-0.5,0.4l-0.82,0.51c-0.27,0-0.52,0.21-0.76,0.64h-0.51v0.12h-0.76v-0.12c-0.54,0-0.81-0.09-0.81-0.26h-0.51
				l-0.25,0.79l0.76,0.38v0.25l-1.27,0.13h-0.76l-1.07-0.51l0.76-0.38l-0.76-0.66h-0.25c-0.58,0.26-1.1,0.38-1.58,0.38v0.15h-0.5
				l-0.26-0.15v-0.12l0.26-0.39l-0.77-0.63v-20.85l0.51-0.25h15.54l0.51,0.25v2.97l-0.51,0.28h-0.51c0-0.22-0.44-0.48-1.32-0.78
				v-0.26h-0.25l-0.25,0.13h-0.26l1.58,1.17l-1.32,0.51h0.25l2.34-0.64L127.983,80.769z M127.473,95.769l-0.25-0.66h-0.26l-0.5,0.66
				v0.13L127.473,95.769z M126.713,92.799l-0.56-0.78h-0.25v1.16h0.56L126.713,92.799z M124.374,81.809v-0.28h-1.06l0.56,0.28
				H124.374z M124.374,96.028l-0.25-0.13c-0.85,0.42-1.79,0.64-2.84,0.64l0.5,0.271C123.313,96.559,124.173,96.299,124.374,96.028z
				 M122.803,80.638l0.51-0.41h-2.03l-1.83,0.41v0.13l3.1,0.63l0.25,0.13h0.25l-0.25-0.64V80.638z M120.213,78.938v-0.13l-0.51-0.25
				h-0.25v0.25l0.25,0.13H120.213z M118.943,97.828v-0.13l-0.25-0.38h-0.56v0.51H118.943z M117.113,97.068v-0.53h-0.51v0.271
				L117.113,97.068z M116.354,77.798l0.76-0.16l-0.51-0.25l-0.5,0.41H116.354z M114.013,96.538v-0.64h-0.5v0.64H114.013z
				 M113.253,97.578h0.76c0-0.22-0.69-0.39-2.08-0.51L113.253,97.578z M113.513,82.188v-0.13l-0.51-0.25h-0.31v0.25l0.56,0.26
				L113.513,82.188z"/>
			<path fill="#333333" d="M111.684,101.078c0.88,0.05,1.32,0.311,1.32,0.761c-0.71,0.189-1.07,0.409-1.07,0.659h-0.51v-1.17
				l0.26-0.12V101.078z"/>
		</g>
		<g>
		</g>
	</g>
	<path fill="#333333" d="M169.538,76.983h15.539l0.508,0.254v2.971l-0.508,0.279h-0.508c0-0.22-0.44-0.482-1.32-0.787v-0.254h-0.254
		l-0.254,0.127h-0.254l1.574,1.168l-1.32,0.508h0.254l2.336-0.635l0.254,0.127v16.174h-1.27l-1.32-0.406
		c0,0.355-0.339,0.533-1.016,0.533c0,0.508-0.17,0.762-0.508,0.762h-1.32l-0.762-0.254l-0.508,0.406l0.254,0.127h1.523v0.254
		c0.812,0,1.506,0.212,2.082,0.635l0.508-0.381c-0.508,0-0.762-0.085-0.762-0.254V97.55h1.574l0.508,0.254v0.66
		c-0.542,0-0.812,0.085-0.812,0.254c0.711,0,1.32,0.22,1.828,0.66v1.549l-1.828,1.016h1.32v-0.508h0.508v5.688
		c-0.339,0.355-0.762,0.533-1.27,0.533l0.508,0.254l0.762-0.127v3.605h-0.508c0-0.423-0.17-0.635-0.508-0.635l-1.574-0.381v0.127
		c0,0.136,0.524,0.263,1.574,0.381l0.254,0.66v0.127l-0.762,0.381h-0.559l-1.523-0.66v0.152l1.27,0.762l-0.254,0.381h0.254
		c1.049,0,1.574-0.169,1.574-0.508h0.762v1.041l-0.508,0.254h-1.574l-0.762-0.254l-0.508,0.254h-1.828
		c-0.339,0-0.508-0.127-0.508-0.381h-1.574c0,0.254-0.17,0.381-0.508,0.381h-1.27l-1.574-0.635h-0.254v0.635h-3.098v-0.381h-1.574
		v0.127h0.559v0.254h-1.066l-0.508-0.254v-0.127l0.508-0.406v-0.635h-0.508v-1.168l1.016-0.762c0-0.271-0.254-0.406-0.762-0.406
		l-0.254-0.127v-0.914l0.508-0.254h1.066l0.762,0.254h0.762l-0.254-0.127l-1.27-0.254l-0.559-0.762h-0.508v0.635h-0.508v-4.926
		l0.508-0.254h0.254l1.574,0.254v0.152l1.27-0.152h2.082c0-0.169-0.339-0.254-1.016-0.254v-0.254h-1.828l-0.508-0.254l0.254-0.533
		c-0.678,0-1.016-0.474-1.016-1.422l-0.305,0.152h-0.762l-0.508-0.279v-1.016h0.762l-0.254-0.152v-0.127l0.254-0.381l-0.762-0.635
		V77.237L169.538,76.983z M169.538,76.983h15.539l0.508,0.254v2.971l-0.508,0.279h-0.508c0-0.22-0.44-0.482-1.32-0.787v-0.254
		h-0.254l-0.254,0.127h-0.254l1.574,1.168l-1.32,0.508h0.254l2.336-0.635l0.254,0.127v16.174h-1.27l-1.32-0.406
		c0,0.355-0.339,0.533-1.016,0.533c0,0.508-0.17,0.762-0.508,0.762h-1.32l-0.762-0.254l-0.508,0.406l0.254,0.127h1.523v0.254
		c0.812,0,1.506,0.212,2.082,0.635l0.508-0.381c-0.508,0-0.762-0.085-0.762-0.254V97.55h1.574l0.508,0.254v0.66
		c-0.542,0-0.812,0.085-0.812,0.254c0.711,0,1.32,0.22,1.828,0.66v1.549l-1.828,1.016h1.32v-0.508h0.508v5.688
		c-0.339,0.355-0.762,0.533-1.27,0.533l0.508,0.254l0.762-0.127v3.605h-0.508c0-0.423-0.17-0.635-0.508-0.635l-1.574-0.381v0.127
		c0,0.136,0.524,0.263,1.574,0.381l0.254,0.66v0.127l-0.762,0.381h-0.559l-1.523-0.66v0.152l1.27,0.762l-0.254,0.381h0.254
		c1.049,0,1.574-0.169,1.574-0.508h0.762v1.041l-0.508,0.254h-1.574l-0.762-0.254l-0.508,0.254h-1.828
		c-0.339,0-0.508-0.127-0.508-0.381h-1.574c0,0.254-0.17,0.381-0.508,0.381h-1.27l-1.574-0.635h-0.254v0.635h-3.098v-0.381h-1.574
		v0.127h0.559v0.254h-1.066l-0.508-0.254v-0.127l0.508-0.406v-0.635h-0.508v-1.168l1.016-0.762c0-0.271-0.254-0.406-0.762-0.406
		l-0.254-0.127v-0.914l0.508-0.254h1.066l0.762,0.254h0.762l-0.254-0.127l-1.27-0.254l-0.559-0.762h-0.508v0.635h-0.508v-4.926
		l0.508-0.254h0.254l1.574,0.254v0.152l1.27-0.152h2.082c0-0.169-0.339-0.254-1.016-0.254v-0.254h-1.828l-0.508-0.254l0.254-0.533
		c-0.678,0-1.016-0.474-1.016-1.422l-0.305,0.152h-0.762l-0.508-0.279v-1.016h0.762l-0.254-0.152v-0.127l0.254-0.381l-0.762-0.635
		V77.237L169.538,76.983z M169.284,101.054c0.88,0.051,1.32,0.305,1.32,0.762c-0.711,0.187-1.066,0.406-1.066,0.66h-0.508v-1.168
		l0.254-0.127V101.054z M169.284,101.054c0.88,0.051,1.32,0.305,1.32,0.762c-0.711,0.187-1.066,0.406-1.066,0.66h-0.508v-1.168
		l0.254-0.127V101.054z M169.538,97.042l1.32,0.508h0.762C171.62,97.33,170.925,97.16,169.538,97.042z M169.538,97.042l1.32,0.508
		h0.762C171.62,97.33,170.925,97.16,169.538,97.042z M171.62,103.897c0,0.339-0.17,0.508-0.508,0.508l-0.812-0.127l-0.254,0.127
		v0.406c0.541,0,0.812,0.127,0.812,0.381h0.254c0-0.44,0.423-0.66,1.27-0.66h0.812C172.855,104.228,172.331,104.016,171.62,103.897z
		 M171.62,103.897c0,0.339-0.17,0.508-0.508,0.508l-0.812-0.127l-0.254,0.127v0.406c0.541,0,0.812,0.127,0.812,0.381h0.254
		c0-0.44,0.423-0.66,1.27-0.66h0.812C172.855,104.228,172.331,104.016,171.62,103.897z M170.299,81.782v0.254l0.559,0.254
		l0.254-0.127v-0.127l-0.508-0.254H170.299z M170.299,81.782v0.254l0.559,0.254l0.254-0.127v-0.127l-0.508-0.254H170.299z
		 M170.299,99.226v0.152c0.541,0,1.066,0.169,1.574,0.508h0.254l0.762-0.381l-0.762-0.66h-0.254
		C171.297,99.099,170.773,99.226,170.299,99.226z M170.299,99.226v0.152c0.541,0,1.066,0.169,1.574,0.508h0.254l0.762-0.381
		l-0.762-0.66h-0.254C171.297,99.099,170.773,99.226,170.299,99.226z M171.112,95.874v0.635h0.508v-0.635H171.112z M171.112,95.874
		v0.635h0.508v-0.635H171.112z M174.717,98.845l-0.254,0.787l0.762,0.381v0.254l-1.27,0.127h-0.762l-0.559,0.66v0.127l0.559,0.254
		h0.254l1.27-0.127l0.254,0.635h0.254v-0.762c0.338,0,0.508-0.169,0.508-0.508l0.305-0.152h0.254l1.016,0.152v-0.152
		c0-0.169-0.525-0.339-1.574-0.508l-0.254-0.635v-0.152h0.559v-0.127c-0.542,0-0.812-0.085-0.812-0.254H174.717z M174.717,98.845
		l-0.254,0.787l0.762,0.381v0.254l-1.27,0.127h-0.762l-0.559,0.66v0.127l0.559,0.254h0.254l1.27-0.127l0.254,0.635h0.254v-0.762
		c0.338,0,0.508-0.169,0.508-0.508l0.305-0.152h0.254l1.016,0.152v-0.152c0-0.169-0.525-0.339-1.574-0.508l-0.254-0.635v-0.152
		h0.559v-0.127c-0.542,0-0.812-0.085-0.812-0.254H174.717z M172.635,107.655h0.812l0.508-0.279h-0.762L172.635,107.655z
		 M172.635,107.655h0.812l0.508-0.279h-0.762L172.635,107.655z M172.635,112.302l0.559,0.381l0.762-0.127l-0.254-0.508
		L172.635,112.302z M172.635,112.302l0.559,0.381l0.762-0.127l-0.254-0.508L172.635,112.302z M173.448,110.245v0.254h0.254
		l0.508-0.254H173.448z M173.448,110.245v0.254h0.254l0.508-0.254H173.448z M174.209,77.364l-0.508,0.406h0.254l0.762-0.152
		L174.209,77.364z M174.209,77.364l-0.508,0.406h0.254l0.762-0.152L174.209,77.364z M173.702,105.319h0.508l0.508-0.254h-0.508
		L173.702,105.319z M173.702,105.319h0.508l0.508-0.254h-0.508L173.702,105.319z M174.209,96.509v0.279l0.508,0.254v-0.533H174.209z
		 M174.209,96.509v0.279l0.508,0.254v-0.533H174.209z M175.225,106.868v0.254c-0.508,0-0.762,0.085-0.762,0.254h0.762l0.254-0.381
		v-0.127H175.225z M175.225,106.868v0.254c-0.508,0-0.762,0.085-0.762,0.254h0.762l0.254-0.381v-0.127H175.225z M174.971,111.54
		l0.508,0.254h0.812v-0.254H174.971z M174.971,111.54l0.508,0.254h0.812v-0.254H174.971z M175.225,103.897v0.127
		c0.711,0,1.066,0.169,1.066,0.508h0.508c0-0.39,0.423-0.728,1.27-1.016C176.172,103.602,175.225,103.729,175.225,103.897z
		 M175.225,103.897v0.127c0.711,0,1.066,0.169,1.066,0.508h0.508c0-0.39,0.423-0.728,1.27-1.016
		C176.172,103.602,175.225,103.729,175.225,103.897z M175.479,110.118v0.127h0.559c0-0.187,0.254-0.279,0.762-0.279v-0.254
		L175.479,110.118z M175.479,110.118v0.127h0.559c0-0.187,0.254-0.279,0.762-0.279v-0.254L175.479,110.118z M175.733,97.296v0.508
		h0.812v-0.127l-0.254-0.381H175.733z M175.733,97.296v0.508h0.812v-0.127l-0.254-0.381H175.733z M176.038,102.729h0.762
		l0.254-0.127h0.254l-0.254-0.381L176.038,102.729z M176.038,102.729h0.762l0.254-0.127h0.254l-0.254-0.381L176.038,102.729z
		 M176.799,99.099v0.127l2.59,0.914v-0.508c-0.881-0.305-1.32-0.694-1.32-1.168c-0.271,0-0.525,0.212-0.762,0.635H176.799z
		 M176.799,99.099v0.127l2.59,0.914v-0.508c-0.881-0.305-1.32-0.694-1.32-1.168c-0.271,0-0.525,0.212-0.762,0.635H176.799z
		 M177.053,78.532v0.254l0.254,0.127h0.508v-0.127l-0.508-0.254H177.053z M177.053,78.532v0.254l0.254,0.127h0.508v-0.127
		l-0.508-0.254H177.053z M177.053,80.614v0.127l3.098,0.635l0.254,0.127h0.254l-0.254-0.635v-0.254l0.508-0.406h-2.031
		L177.053,80.614z M177.053,80.614v0.127l3.098,0.635l0.254,0.127h0.254l-0.254-0.635v-0.254l0.508-0.406h-2.031L177.053,80.614z
		 M178.323,109.712v0.127l0.559,0.406v0.254c0,0.254-0.355,0.381-1.066,0.381v0.127h1.32l0.254-0.635
		C179.05,109.966,178.695,109.746,178.323,109.712z M178.323,109.712v0.127l0.559,0.406v0.254c0,0.254-0.355,0.381-1.066,0.381
		v0.127h1.32l0.254-0.635C179.05,109.966,178.695,109.746,178.323,109.712z M178.627,102.729v0.127c0,0.136,0.592,0.355,1.777,0.66
		v-0.279c-0.508,0-0.762-0.127-0.762-0.381l-0.254-0.127H178.627z M178.627,102.729v0.127c0,0.136,0.592,0.355,1.777,0.66v-0.279
		c-0.508,0-0.762-0.127-0.762-0.381l-0.254-0.127H178.627z M178.881,96.509l0.508,0.279c1.523-0.254,2.387-0.517,2.59-0.787
		l-0.254-0.127C180.878,96.297,179.93,96.509,178.881,96.509z M178.881,96.509l0.508,0.279c1.523-0.254,2.387-0.517,2.59-0.787
		l-0.254-0.127C180.878,96.297,179.93,96.509,178.881,96.509z M180.659,101.308l-0.762-0.127v0.508h0.762
		c0-0.339,0.609-0.593,1.828-0.762v-0.254h-0.254L180.659,101.308z M180.659,101.308l-0.762-0.127v0.508h0.762
		c0-0.339,0.609-0.593,1.828-0.762v-0.254h-0.254L180.659,101.308z M180.151,103.897v0.127h1.066l-0.305-0.127v-0.127
		L180.151,103.897z M180.151,103.897v0.127h1.066l-0.305-0.127v-0.127L180.151,103.897z M180.659,105.7v0.127h0.254
		c0.067-0.339,0.762-0.508,2.082-0.508v-0.508C181.437,105.065,180.659,105.361,180.659,105.7z M180.659,105.7v0.127h0.254
		c0.067-0.339,0.762-0.508,2.082-0.508v-0.508C181.437,105.065,180.659,105.361,180.659,105.7z M180.659,112.302v0.254h0.812v-0.254
		H180.659z M180.659,112.302v0.254h0.812v-0.254H180.659z M180.913,81.503l0.559,0.279h0.508v-0.279H180.913z M180.913,81.503
		l0.559,0.279h0.508v-0.279H180.913z M181.725,102.222v0.254c0.677-0.136,1.016-0.263,1.016-0.381L181.725,102.222z
		 M181.725,102.222v0.254c0.677-0.136,1.016-0.263,1.016-0.381L181.725,102.222z M183.502,91.989v1.168h0.559l0.254-0.381
		l-0.559-0.787H183.502z M183.502,91.989v1.168h0.559l0.254-0.381l-0.559-0.787H183.502z M183.502,99.632v0.254h1.574v-0.381
		L183.502,99.632z M183.502,99.632v0.254h1.574v-0.381L183.502,99.632z M184.061,105.573l-0.305,0.533h0.812l0.254-0.533H184.061z
		 M184.061,105.573l-0.305,0.533h0.812l0.254-0.533H184.061z M184.569,95.087l-0.508,0.66v0.127l1.016-0.127l-0.254-0.66H184.569z
		 M184.569,95.087l-0.508,0.66v0.127l1.016-0.127l-0.254-0.66H184.569z M185.584,97.169v1.295h-0.508V98.21l-0.254-0.914
		l0.254-0.127H185.584z M185.584,97.169v1.295h-0.508V98.21l-0.254-0.914l0.254-0.127H185.584z"/>
	<path fill="#333333" d="M197.35,77.06h8.785l0.508,0.254v3.479h-0.508c0-0.508-0.17-0.762-0.508-0.762l-0.508,0.254v0.254
		c0,0.169,0.508,0.347,1.523,0.533v3.986l-1.777-0.127h-0.254v0.127l2.031,0.406v1.549h-0.762v0.254
		c0.508,0,0.762,0.085,0.762,0.254v6.195c-0.678,0-1.016,0.305-1.016,0.914l0.254,0.127l-0.762,0.254h-0.762
		c-0.339,0-0.508-0.22-0.508-0.66h-0.305c0,0.44-0.254,0.66-0.762,0.66h-1.27l-0.508-0.254v-0.533c0.508,0,0.762-0.085,0.762-0.254
		l-0.254-0.635l-0.254,0.127h-0.254l0.254,0.127v0.381l-0.559,0.254h-0.762c-0.847-0.152-1.27-0.533-1.27-1.143v-0.152l0.762-0.127
		l-0.508-0.762c0.677,0,1.016-0.22,1.016-0.66h2.082v-0.508h1.523l0.305-0.127h0.254c0-0.254-0.355-0.381-1.066-0.381l-0.254-0.787
		l-0.254,0.127h-0.254l0.254,0.127v0.279l-0.762,0.381l-1.066,0.127v0.381l-0.254-0.127h-0.508l-0.508,0.787l-1.016-0.279v0.279
		h-2.59v-0.533l0.254-0.635c-0.508,0-0.762-0.085-0.762-0.254v-0.533l0.762-0.127c0.305,0.609,0.998,0.914,2.082,0.914v-0.127
		c-0.881-0.254-1.32-0.559-1.32-0.914l0.508-0.254l0.254,0.127h1.32v-0.762c0-0.187,0.254-0.279,0.762-0.279v-0.254
		c-1.016,0-1.523-0.254-1.523-0.762l-0.254,0.127h-0.305l-2.285-0.254l-0.254,0.127v-0.254c0.508,0,0.762-0.093,0.762-0.279v-0.381
		h-0.508v0.254l-1.32-0.127h-0.508v0.127h0.508v0.254l-1.016,0.152v-0.66h0.762v-0.508l-0.254-0.127v-0.127
		c0.677-0.152,1.016-0.415,1.016-0.787h0.812l0.762,0.381l-0.508,0.279l0.508,0.762h0.508v-0.508h0.254l0.508,0.254l-0.254,0.127
		v0.127h0.508l1.574-0.254v-0.254c-0.982,0-2.1-0.305-3.352-0.914v-1.041h-0.508c0,0.203-0.355,0.466-1.066,0.787l-0.254-0.127
		h-1.27l0.508,0.889c0,0.271-0.694,0.618-2.082,1.041v0.127h-1.016v-1.016l0.508-0.914h-0.508v-0.508h0.508v0.381
		c1.286,0,1.98-0.169,2.082-0.508v-0.152h-0.254v0.279c-1.389-0.085-2.082-0.39-2.082-0.914l1.016-0.381h1.574l-0.254,0.635v0.254
		h0.254c0.033-0.339,0.203-0.508,0.508-0.508l-0.508-1.168l0.508-0.254v-0.127c-0.508,0-0.762-0.085-0.762-0.254l-0.254,0.127
		h-0.254l-0.812-0.381v-0.127c0.88,0,1.32-0.178,1.32-0.533l-0.254-0.127l0.254-0.127l0.254,0.127h0.762l1.32-0.127l0.254,0.787
		h0.254c0.575-0.271,1.083-0.406,1.523-0.406v-0.254l-1.016-0.127l0.762-1.168c-0.44,0-0.779-0.254-1.016-0.762l0.508-0.381
		l1.27,0.254l0.305-0.127l-0.559-0.787V77.06z M193.999,77.06v0.381h0.254c0-0.203,0.355-0.33,1.066-0.381l0.508,0.381v0.254
		c-0.508,0-0.762,0.136-0.762,0.406l-1.066,0.254l-1.016-0.127c-0.339,0.39-0.678,0.601-1.016,0.635l-0.254-0.127h-0.305
		l-0.762,0.508l1.574,0.152v0.889c-0.711,0-1.066,0.127-1.066,0.381h-1.016v-1.422l0.254-1.143l-0.254-0.914l0.254-0.127H193.999z
		 M190.139,86.86h0.508l0.254,0.66l-0.254,0.889l-0.508-0.254V86.86z M192.729,87.267c0.372,0,0.88,0.432,1.523,1.295h0.254
		l0.305-0.66c-0.542,0-0.812-0.085-0.812-0.254l1.32-0.127l1.27,0.381h0.254v0.381l-0.508,0.279h-1.27
		c0,0.39-0.271,0.686-0.812,0.889h0.254l-0.254,0.127v0.127l0.559,0.787l-0.812,0.254l-0.762-0.381h-0.254l-0.508,0.254
		c0,0.66,0.592,1.05,1.777,1.168v0.127l0.254-0.127h0.305l0.508,0.254v0.889c-0.881,0-1.32,0.093-1.32,0.279v0.127
		c0.305,0.339,0.914,0.508,1.828,0.508c0-0.508,0.169-0.762,0.508-0.762v0.127l0.762-0.127v-0.152c0-0.169-0.254-0.254-0.762-0.254
		l-0.254-0.127v-0.381l0.508-0.381c1.388,0,2.082,0.296,2.082,0.889c-0.339,0-0.508,0.22-0.508,0.66h-0.559v0.381
		c2.268,0.796,3.402,1.27,3.402,1.422c0,0.169,0.423,0.254,1.27,0.254l0.254,0.127v0.66l-0.254,0.635h0.254l1.32-0.254l0.254,0.127
		v-0.254c0-0.169-0.355-0.254-1.066-0.254c0-0.187,0.439-0.279,1.32-0.279v-0.127l1.523,0.279v-0.152l0.254-0.508h0.508v2.971
		l-0.254,0.914l0.254,1.143v8.531c0,0.305-0.339,0.651-1.016,1.041v0.254l0.254-0.127h0.762v0.127l-0.254,0.127l0.254,0.635v1.676
		l-1.523,0.787h-1.27l-0.812-0.254l0.254-0.127v-0.406l-1.523,0.279v0.254h-1.574v-0.533l1.066-0.254h0.254v-0.127l-0.508-0.254
		h-0.305c0,0.22-0.508,0.482-1.523,0.787l-1.574-0.152c0.203-0.593,0.474-0.889,0.812-0.889h1.27c0-0.254,0.439-0.381,1.32-0.381
		l1.016-0.787v-0.127h-1.016v-0.762h1.016l1.523,0.635h0.559v-0.127c-0.881,0-1.32-0.263-1.32-0.787v-0.127
		c0.711,0,1.235-0.212,1.574-0.635h0.254v0.254h0.508v-0.381l-0.508-1.041h-0.508l-0.812,0.787l0.559,0.254l-2.844,1.016
		l-0.812-0.127v0.127c0,0.39-0.678,0.651-2.031,0.787c-0.373-0.39-0.897-0.601-1.574-0.635v-0.406l0.508-0.254h0.254l1.32,0.127
		l-0.254-0.127v-0.127l0.508-0.762h-1.32l0.305,0.127v0.254h-0.812l-0.508-0.533v-0.127h-0.254c0,0.609-0.17,0.914-0.508,0.914
		h-0.508l-0.812-0.127v0.127l-0.508,0.762l-0.254-0.127h-0.254l-0.508,0.279c1.219,0,1.828,0.169,1.828,0.508l0.254,0.635
		l-2.082,0.127l0.254,0.127v0.914c1.049,0,1.574,0.085,1.574,0.254v0.787h-1.574c-0.305,0-0.559-0.263-0.762-0.787
		c-1.219,0-1.828-0.085-1.828-0.254v-0.914h0.508v-0.127c-0.678,0-1.016-0.085-1.016-0.254v-2.311l1.828-0.787h-1.828v-0.127
		l0.508-0.381v-0.381l-0.508-0.406v-7.617c0-0.169,0.254-0.254,0.762-0.254v-0.127c-0.508,0-0.762-0.085-0.762-0.254v-2.844
		l0.508-0.254h0.254l0.254,0.127h0.254v-0.127l-1.27-0.66v-5.027h0.508l0.508,0.254h-0.254l0.254,0.406h0.559v-0.66
		c0-0.169,0.508-0.254,1.523-0.254v-0.127l-1.828-0.254v-0.279l0.305-0.127v-0.127l-0.305-0.127
		C192.051,87.876,192.492,87.622,192.729,87.267z M190.647,112.962l0.254,0.127v0.127l-0.508,0.254l-0.254-0.127v-0.127
		L190.647,112.962z M191.409,103.796v0.254h0.559l-0.254,0.127v0.127l0.254,0.381h-0.254l-0.812,0.127v0.127h0.812
		c0.609-0.593,1.727-0.889,3.352-0.889v-0.254l-2.336,0.254l-0.508-0.254H191.409z M191.409,91.126l-0.254,0.406l0.254,0.127h0.305
		l0.508-0.406l-0.254-0.127H191.409z M193.745,96.052h0.762v0.127l-1.27,0.127v0.254h0.508v0.508l0.254,0.66l-1.523,0.254v-0.127
		l-1.32,0.127v0.127l0.254,0.127v0.127l2.59-0.254v0.254h0.508v-0.914h1.32l-0.254-0.508l0.254-0.381h1.777l0.812,0.381
		l-0.254,0.127v0.254l0.508,0.279v-0.406h0.508l1.016,0.533v0.127l-0.254,0.127l0.254,0.127v0.127l-0.254,0.635h0.508l0.254-1.016
		l0.305,0.127h0.508v-0.127c-0.339,0-0.508-0.22-0.508-0.66c-0.881-0.051-1.32-0.178-1.32-0.381l1.016-1.041h-0.762v0.279h-0.762
		l-0.254-0.152h-0.254l0.254-0.635v-0.127h-0.508l-0.254,0.762l-0.254-0.127h-0.305l-0.254,0.406h-1.777v0.508h-1.066v-0.254h0.559
		v-0.127l-0.254-0.406h0.254c0.406,0,0.744-0.296,1.016-0.889h-1.016L193.745,96.052z M191.967,109.991
		c0,0.254-0.271,0.381-0.812,0.381l0.559,0.254l-0.305,0.127v0.254h1.32v-0.127c-0.339-0.187-0.508-0.482-0.508-0.889H191.967z
		 M191.713,99.149v0.254l0.762,0.127l0.254-0.127v-0.66h-0.254L191.713,99.149z M192.221,92.929l-0.254,0.152v0.381l0.762-0.381
		l-0.254-0.152H192.221z M192.221,102.247l-0.254,0.127v0.127h0.254v-0.127l0.254,0.127h0.508v-0.127L192.221,102.247z
		 M192.475,107.528v0.127l0.508,0.254h0.254v-0.254l-0.254-0.127H192.475z M192.729,100.698v0.254l0.762,0.381l1.32-0.254v-0.127
		l-0.559-0.254l-1.27,0.127L192.729,100.698z M192.729,105.979v0.508l1.27-0.762l-0.254-0.127L192.729,105.979z M193.237,102.501
		v0.127l0.762,0.381v-0.127L193.237,102.501z M193.237,107.147l0.508,0.254l0.762-0.127v-0.127H193.237z M193.237,108.315v0.127
		l0.508,0.254l0.508-0.254L193.237,108.315z M194.506,81.579v0.254h0.305l1.27-0.127v-0.381L194.506,81.579z M196.081,97.728
		c0,0.423-0.17,0.635-0.508,0.635l-0.762-0.127c0.338,0.203,0.508,0.508,0.508,0.914h0.508c0.305,0,0.559-0.22,0.762-0.66
		l-0.254-0.127l1.016-0.254v0.254h0.254v-0.508L196.081,97.728z M195.573,103.136v0.127h1.016v-0.254h-0.254L195.573,103.136z
		 M196.588,110.626v0.66l-0.508,0.254l-0.508-0.787l0.254-0.127H196.588z M196.334,81.706v0.381h0.508v-0.381H196.334z
		 M198.417,82.747v0.381h0.508v-0.381H198.417z M198.67,81.325v0.127h0.508l0.254-0.381h-0.254L198.67,81.325z M198.924,82.214
		v0.127h0.508l0.508-0.254l-0.254-0.127h-0.254L198.924,82.214z M199.178,79.243h0.254l0.762-0.381h-0.254L199.178,79.243z
		 M199.178,100.952v0.254h1.016l0.812-0.381v-0.127h-0.305L199.178,100.952z M201.26,79.522v0.635h-0.254l-0.559-0.254l0.254-0.127
		h-0.762v0.762h-0.508v0.254h0.508c0-0.305,0.778-0.474,2.336-0.508c0.406-0.339,0.829-0.508,1.27-0.508v-0.254H201.26z
		 M203.038,88.562c0,0.44-0.254,0.694-0.762,0.762l-1.016-0.127l-1.828,0.127v0.381l3.605-0.381l0.508-0.254v-0.254L203.038,88.562z
		 M202.784,84.169h-1.523l-0.559-0.254l-0.762,0.127v0.508l1.32,0.127l0.254-0.127l2.59,0.381v-0.127
		c0-0.169-0.271-0.254-0.812-0.254v-0.127l1.066-0.508h1.523l0.254-0.406l-0.254-0.127h-0.508L202.784,84.169z M201.006,77.974
		l-0.559,0.508h0.559l0.508-0.254L201.006,77.974z M200.702,85.972l-0.254,0.127v0.127l0.812,0.381l0.254-0.127h0.508
		c0.846,0,1.27,0.178,1.27,0.533h0.812V86.86C203.393,86.488,202.258,86.191,200.702,85.972z M200.702,102.501v0.254l1.574,0.127
		v0.127c0,0.288-0.254,0.593-0.762,0.914v0.127h0.508c0.338,0,0.508-0.178,0.508-0.533l1.574-0.127v-0.635L200.702,102.501z
		 M201.006,99.911v0.381h0.254l0.762-0.127v-0.254H201.006z M201.514,87.013v0.254c0.338,0,0.508,0.169,0.508,0.508h0.508
		l-0.762-0.635v-0.127H201.514z M202.53,81.579l0.254,0.635h-0.508v0.406h0.254l2.336-0.533h0.254V81.96l-1.27-0.127h-0.812v-0.254
		H202.53z M202.276,91.913v0.127l0.254,0.381h1.016v-0.254l-1.016-0.254H202.276z M202.53,87.901v0.381h0.508l-0.254-0.381H202.53z
		 M202.784,98.616v0.127l0.508,0.254v-0.381H202.784z M203.292,101.587l-0.254,0.533h0.508v-0.533H203.292z M204.358,106.233
		c0,0.44-0.44,0.66-1.32,0.66v0.127l2.082,0.127v-0.787L204.358,106.233z M203.545,100.292v0.127l0.305,0.914h0.762
		c0-0.423,0.423-0.635,1.27-0.635c-0.102-0.339-0.609-0.601-1.523-0.787L203.545,100.292z M204.104,97.854v0.508
		c0.236,0,0.49-0.169,0.762-0.508H204.104z M204.358,78.228c0.338,0.677,0.677,1.016,1.016,1.016l0.762-0.381
		c-0.339,0-0.508-0.212-0.508-0.635l-0.254-0.127h-0.254L204.358,78.228z M204.358,87.013h1.016l-0.508-0.279L204.358,87.013z
		 M204.358,111.921v0.127h0.254c1.016-0.085,1.523-0.212,1.523-0.381v-0.127h-1.016L204.358,111.921z M204.612,91.659l0.508,0.254
		h0.508v-0.127l-0.254-0.406h-0.254L204.612,91.659z M205.12,103.796l-0.254,0.127v0.381c0.508,0,0.762,0.169,0.762,0.508h0.762
		c-0.678-0.39-1.016-0.686-1.016-0.889h0.508v-0.127H205.12z M209.045,77.06h6.195l0.508,0.254l-0.508,0.254v0.406h0.254
		c0.508,0,0.762-0.305,0.762-0.914h4.367l0.254,0.127l0.305-0.127h3.352c0.102,0.423,0.355,0.635,0.762,0.635l0.254-0.127h0.254
		l-0.254-0.127V77.06h6.449v0.381l0.254-0.127l0.254,0.127h0.508v-0.127l-0.254-0.127V77.06h9.293l0.559,0.254v6.195l-0.559,0.254
		h-6.703v-0.381c-0.339,0-0.508,0.127-0.508,0.381h-14.727l-0.762-0.254l-0.762,0.254h-9.547l-0.559-0.254v-1.016l0.254-0.152
		l-0.254-0.127v-3.986h0.559v-0.381h-0.559v-0.533L209.045,77.06z M208.741,90.872c1.083,0,1.861,0.39,2.336,1.168l-0.254,0.127
		h0.508l0.254-0.127l0.254,0.127h0.305l0.762-0.381l-1.32-0.66v-0.254h0.254l0.305,0.127h0.254l0.254-0.127l1.27,0.127h2.082
		l1.27-0.127v0.127l0.254-0.127h0.812l0.762,0.127l1.27-0.127h4.418l2.031,0.254l0.559-0.254h0.254l0.254,0.127l0.254-0.127h10.309
		l0.508,0.254v0.127h-0.254l-1.27-0.127l-0.254,0.127v0.127l2.082,0.279l0.254-0.406h0.508v2.336
		c-1.253-0.085-2.201-0.305-2.844-0.66h-1.574v-0.254h-1.523c0-0.339-0.355-0.508-1.066-0.508v0.127
		c0.406,0.778,0.846,1.168,1.32,1.168c0.508,0,0.762,0.127,0.762,0.381l0.254,0.127h0.254c0-0.339,0.271-0.508,0.812-0.508
		l0.762-0.254l1.523,0.508h0.559l0.254-0.127h0.254l0.254,0.889v1.701l-0.254,0.127l0.254,0.127v0.127l-0.254,0.889l-1.828-0.127
		l-0.508,0.279h-0.508v-0.152l-1.828,0.152h-3.098l-0.254-0.152l-0.254,0.152h-1.828l-0.254-0.152l-0.254,0.152h-1.523l-1.066-0.152
		l-1.016,0.152h-1.828l-0.508-0.279l-2.031,0.279h-6.754c-0.339,0-0.678-0.263-1.016-0.787h-0.254l-0.508,0.381l-0.812-0.127v0.127
		c0,0.271-0.424,0.406-1.27,0.406h-1.523v-0.279h1.27v-0.127l-0.254-0.127l0.254-0.381h0.254l0.254,0.127h0.254l0.254-0.127v-0.635
		c0-0.187-0.254-0.279-0.762-0.279l-0.254,0.127h-0.254l-0.762-0.127l0.254,0.127l-0.254,0.152v0.127l0.254,0.381l-0.508,0.635
		h-0.559v-1.549l0.254-0.127l-0.254-0.127v-2.717h0.254c0.372,0,0.643,0.347,0.812,1.041h0.254c0-0.524,0.169-0.872,0.508-1.041
		v-0.127l-1.574-0.762V91.38l0.305-0.127l-0.305-0.127V90.872z M210.569,80.665l-0.254,0.127v0.152l0.254,0.127h0.254l0.254-0.127
		l0.762,0.508v0.762h0.305l0.762-0.127V81.96C212.43,81.401,211.652,80.97,210.569,80.665z M210.823,78.735l0.762,0.254l0.254-0.381
		l-0.254-0.127h-0.254L210.823,78.735z M211.331,82.341v0.279h0.508l0.559-0.279H211.331z M211.331,95.519v0.127h0.254l1.32-0.127
		v-0.254h-0.254L211.331,95.519z M211.584,93.716v0.254h0.559c0,0.169,0.254,0.254,0.762,0.254v0.914h0.508l0.254-0.66
		C212.684,93.97,211.991,93.716,211.584,93.716z M212.905,92.421c0,0.474,0.423,0.821,1.27,1.041l1.32-0.914v-0.127h-0.254
		c0,0.169-0.355,0.254-1.066,0.254v0.254h-0.254v-0.254l-0.508-0.254H212.905z M213.159,82.874v0.508h0.254l0.254-0.381
		l-0.254-0.127H213.159z M213.92,79.776v0.508l0.508-0.254v-0.254H213.92z M216.002,94.757l0.508,0.381l-1.27,0.254
		c0,0.136,0.338,0.263,1.016,0.381c0-0.136,0.423-0.263,1.27-0.381l0.254,0.127l-0.254-0.508l-0.254,0.127h-0.508v-0.381H216.002z
		 M217.018,91.38v0.152l0.762-0.152v-0.254h-0.254L217.018,91.38z M217.018,93.208v0.127l0.254,0.381h0.254l0.559-0.254
		L217.018,93.208z M217.78,92.167v0.381h0.559v-0.127L217.78,92.167z M218.084,91.253v0.279h0.254l0.762-0.152v-0.254h-0.254
		L218.084,91.253z M219.1,82.087v0.254h0.508l0.508-0.254H219.1z M219.608,79.243l-0.254,0.533h0.508l0.508-0.254L219.608,79.243z
		 M223.213,96.687v0.381h0.254l0.812-0.127v-0.127L223.213,96.687z M225.295,82.341l-0.508,0.787h0.254l0.762-0.381v-0.406H225.295z
		 M225.295,92.929v0.279h1.27v-0.279l-0.254,0.152h-0.254L225.295,92.929z M226.819,95.011v0.508l0.812,0.127l0.508-0.762
		L226.819,95.011z M228.393,91.659c0.508,0,1.117,0.169,1.828,0.508c0-0.254,0.254-0.381,0.762-0.381
		c0,0.136,0.592,0.347,1.777,0.635v-0.254c-0.812,0-1.574-0.263-2.285-0.787h-1.574L228.393,91.659z M228.901,83.128v0.254
		l0.508,0.254v-0.508H228.901z M229.155,80.411h0.762V80.03L229.155,80.411z M229.917,95.392v0.254l0.812,0.914h0.254v-0.787
		c-0.339,0-0.508-0.127-0.508-0.381H229.917z M230.475,96.687c0,0.254-0.187,0.381-0.559,0.381v0.254l1.066-0.254v-0.381H230.475z
		 M232.252,78.862c0,0.355-0.508,0.533-1.523,0.533l-0.254-0.152l-0.254,0.533h1.523l0.762-0.787v-0.127H232.252z M230.475,93.462
		l0.254,0.508h0.508l0.508-0.254l-0.508-0.254H230.475z M230.729,94.224v0.533h0.254v-0.533H230.729z M235.604,94.478l0.254,0.66
		l0.812-0.381l-0.559-0.279H235.604z"/>
	<path fill="#333333" d="M257.831,76.831v0.279c-0.339,0-0.508,0.169-0.508,0.508l-0.305,0.152h-0.254l-1.016-0.152v0.152
		c0,0.169,0.524,0.339,1.574,0.508l0.254,0.635v0.152h-0.559v0.127c0.541,0,0.812,0.085,0.812,0.254h0.508l0.254-0.787l-0.762-0.381
		v-0.254l1.27-0.127h0.762l0.559-0.66V77.11l-0.559-0.254h-0.254l-1.27,0.127l-0.051-0.152h4.012
		c0.102,0.237,0.152,0.55,0.152,0.939l0.305-0.152h0.762l0.508,0.279v1.016h-0.762l0.254,0.152v0.127l-0.254,0.381l0.762,0.635
		v20.871c0.102,1.71,1.591,2.954,4.469,3.732v0.127l-0.254,0.127h-0.305l-0.254-0.127v0.254h2.082v0.254l2.793-0.127h0.609v5.18
		h-0.102l-0.254-0.127h-1.473l-0.305,0.127l-0.254-0.127v0.254l2.031,0.127v0.254l-0.254,0.127l0.609,0.33v1.93
		c-0.44,0.034-1.236,0.06-2.387,0.076c-0.508,0-0.762-0.127-0.762-0.381h-0.254l-0.254,0.381c-2.133,0-4.351-0.178-6.652-0.533
		c-8.261-1.54-13.39-5.214-15.387-11.02V81.376h1.27l1.32,0.406c0-0.355,0.338-0.533,1.016-0.533c0-0.508,0.169-0.762,0.508-0.762
		h1.32l0.762,0.254l0.508-0.406l-0.254-0.127h-1.523v-0.254c-0.812,0-1.507-0.212-2.082-0.635l-0.508,0.381
		c0.508,0,0.762,0.085,0.762,0.254v0.787h-1.574l-0.508-0.254v-0.66c0.541,0,0.812-0.085,0.812-0.254c-0.711,0-1.32-0.22-1.828-0.66
		v-1.549l0.965-0.533h3.859c-0.237,0.22-0.812,0.397-1.727,0.533v0.254h0.254l1.574-0.635l0.762,0.127v-0.279H257.831z
		 M247.471,81.122v-1.295h0.508v0.254l0.254,0.914l-0.254,0.127H247.471z M249.553,78.659v-0.254h-1.574v0.381L249.553,78.659z
		 M248.487,83.204l0.508-0.66v-0.127l-1.016,0.127l0.254,0.66H248.487z M248.436,97.474l0.152,0.102l0.051-0.152L248.436,97.474z
		 M249.553,86.302v-1.168h-0.559l-0.254,0.381l0.559,0.787H249.553z M254.174,81.782l-0.508-0.279
		c-1.523,0.254-2.387,0.517-2.59,0.787l0.254,0.127C252.176,81.994,253.125,81.782,254.174,81.782z M252.803,102.095h0.254
		l0.254-0.508h-0.508V102.095z M256.256,79.192v-0.127l-2.59-0.914v0.508c0.88,0.305,1.32,0.694,1.32,1.168
		c0.271,0,0.524-0.212,0.762-0.635H256.256z M253.768,101.308l0.051,0.025h0.508v-0.025H253.768z M254.327,104.177v0.127
		l0.508,0.254C254.834,104.304,254.665,104.177,254.327,104.177z M255.393,104.177v-0.406h-0.559
		C254.834,104.041,255.02,104.177,255.393,104.177z M256.155,101.841l-0.254,0.66c0,0.254,0.169,0.381,0.508,0.381
		c0-0.44,0.169-0.787,0.508-1.041l-1.016-0.508h-0.254l-0.254,0.127L256.155,101.841z M257.323,80.995v-0.508h-0.812v0.127
		l0.254,0.381H257.323z M256.917,106.36h1.016v-0.127l-1.016-0.254V106.36z M258.846,81.782v-0.279l-0.508-0.254v0.533H258.846z
		 M259.506,105.319v0.406h0.508v-0.406l0.254-0.635h-0.508L259.506,105.319z M262.756,79.065v-0.152
		c-0.542,0-1.066-0.169-1.574-0.508h-0.254l-0.762,0.381l0.762,0.66h0.254C261.757,79.192,262.282,79.065,262.756,79.065z
		 M262.35,107.401h0.254v-0.381h-1.27C261.334,107.139,261.672,107.266,262.35,107.401z M263.518,81.249l-1.32-0.508h-0.762
		C261.436,80.961,262.129,81.131,263.518,81.249z M261.944,82.417v-0.635h-0.508v0.635H261.944z M262.096,105.192l0.508,0.406v0.635
		l0.762,0.127c0.169-0.508,0.931-0.762,2.285-0.762v-0.152l-3.301-0.381h-0.254V105.192z M262.35,102.222l0.762,0.127v-0.254
		l-0.508-0.254L262.35,102.222z M264.026,76.831v0.152l-0.254,0.127v0.127c-0.609-0.034-1.016-0.169-1.219-0.406H264.026z
		 M263.112,108.823c0.169,0.491,1.1,0.829,2.793,1.016h0.254l0.254-0.127v-0.127l-0.254-0.127c-1.862-0.271-2.793-0.524-2.793-0.762
		h-0.254V108.823z M263.62,112.429h0.559v-0.635h-0.559V112.429z M265.905,105.853l0.254,0.127v0.254h0.762l0.254-0.127
		c0-0.136-0.339-0.263-1.016-0.381L265.905,105.853z M269.256,109.839l0.762-1.549v-0.127l-2.336,0.406l-0.762-0.279
		C266.92,108.934,267.699,109.449,269.256,109.839z M267.428,110.626h0.254l-0.508-0.254h-0.254L267.428,110.626z M267.682,106.868
		v0.152l2.082-0.279v-0.508l-0.254-0.127l-2.082,0.127L267.682,106.868z M269.256,110.499h1.27v-0.127l-1.27-0.127V110.499z
		 M269.51,111.921h1.27v-0.254h-0.762L269.51,111.921z M296.069,76.882v0.279l0.762-0.127l1.574,0.635h0.254v-0.254
		c-0.914-0.136-1.49-0.313-1.727-0.533h3.859l0.965,0.533v1.549c-0.508,0.44-1.117,0.66-1.828,0.66c0,0.169,0.271,0.254,0.812,0.254
		v0.66l-0.508,0.254h-1.574v-0.787c0-0.169,0.254-0.254,0.761-0.254l-0.507-0.381c-0.576,0.423-1.27,0.635-2.082,0.635v0.254h-1.523
		l-0.254,0.127l0.508,0.406l0.762-0.254h1.32c0.338,0,0.508,0.254,0.508,0.762c0.677,0,1.015,0.178,1.015,0.533l1.32-0.406h1.27
		v20.541c-1.998,5.806-7.126,9.479-15.386,11.02c-2.303,0.355-4.52,0.533-6.652,0.533l-0.254-0.381h-0.254
		c0,0.254-0.254,0.381-0.762,0.381c-1.151-0.017-1.947-0.042-2.387-0.076v-1.93l0.609-0.33l-0.254-0.127v-0.254l2.031-0.127v-0.254
		l-0.254,0.127l-0.305-0.127h-1.473l-0.254,0.127h-0.102v-5.18h0.609l2.793,0.127v-0.254h2.082v-0.254l-0.254,0.127h-0.305
		l-0.254-0.127v-0.127c2.877-0.778,4.367-2.022,4.469-3.732V80.259l0.762-0.635l-0.254-0.381v-0.127l0.254-0.152h-0.762v-1.016
		l0.508-0.279h0.762l0.305,0.152c0-0.39,0.051-0.702,0.152-0.939h4.012l-0.051,0.152l-1.27-0.127h-0.254l-0.559,0.254v0.127
		l0.559,0.66h0.762l1.27,0.127v0.254l-0.762,0.381l0.254,0.787h0.508c0-0.169,0.271-0.254,0.812-0.254v-0.127h-0.559v-0.152
		l0.254-0.635c1.049-0.169,1.574-0.339,1.574-0.508v-0.152l-1.016,0.152h-0.254l-0.305-0.152c0-0.339-0.17-0.508-0.508-0.508v-0.279
		H296.069z M282.256,107.452l-2.082-0.127l-0.254,0.127v0.508l2.082,0.279v-0.152L282.256,107.452z M282.815,109.915h-0.762v0.254
		h1.27L282.815,109.915z M283.526,106.944c-0.678,0.118-1.016,0.245-1.016,0.381l0.254,0.127h0.762v-0.254l0.254-0.127
		L283.526,106.944z M286.674,76.882c-0.203,0.237-0.609,0.372-1.219,0.406v-0.127l-0.254-0.127v-0.152H286.674z M287.792,80.792
		h-0.762l-1.32,0.508C287.097,81.182,287.792,81.012,287.792,80.792z M286.624,101.892l-0.508,0.254v0.254l0.762-0.127
		L286.624,101.892z M289.924,104.481h-0.254l-3.301,0.381v0.152c1.354,0,2.115,0.254,2.285,0.762l0.762-0.127v-0.635l0.508-0.406
		V104.481z M288.045,79.497h0.254l0.762-0.66l-0.762-0.381h-0.254c-0.508,0.339-1.033,0.508-1.574,0.508v0.152
		C286.945,79.116,287.469,79.243,288.045,79.497z M287.792,82.468v-0.635h-0.508v0.635H287.792z M289.315,98.692l-1.27,0.127v0.127
		h1.27V98.692z M288.959,84.626c0.236,0.423,0.49,0.635,0.762,0.635c0-0.474,0.439-0.863,1.32-1.168v-0.508l-2.59,0.914v0.127
		H288.959z M291.651,96.737l-0.762,0.279l-2.336-0.406v0.127l0.762,1.549C290.872,97.896,291.651,97.381,291.651,96.737z
		 M289.213,110.042h-0.559v0.635h0.559V110.042z M290.686,106.437h-1.27v0.381h0.254
		C290.347,106.682,290.686,106.555,290.686,106.437z M290.889,81.833V81.3l-0.508,0.254v0.279H290.889z M291.651,98.819h-0.254
		l-0.508,0.254h0.254L291.651,98.819z M292.26,104.101h-0.508l0.254,0.635v0.406h0.508v-0.406L292.26,104.101z M293.631,99.86
		l-0.254-0.127h-0.254l-1.016,0.508c0.338,0.254,0.508,0.601,0.508,1.041c0.338,0,0.508-0.127,0.508-0.381l-0.254-0.66
		L293.631,99.86z M295.459,97.144h-0.254c0,0.237-0.932,0.491-2.793,0.762l-0.254,0.127v0.127l0.254,0.127h0.254
		c1.692-0.187,2.623-0.524,2.793-1.016V97.144z M292.768,83.052l0.254-0.381v-0.127h-0.812v0.508H292.768z M294.19,102.171h-0.559
		v0.406C294.003,102.577,294.19,102.441,294.19,102.171z M295.104,105.396l-1.016,0.254v0.127h1.016V105.396z M294.19,102.958
		l0.508-0.254v-0.127C294.359,102.577,294.19,102.704,294.19,102.958z M294.698,99.708v0.025h0.508l0.051-0.025H294.698z
		 M297.897,82.468l0.254-0.127c-0.203-0.271-1.066-0.533-2.59-0.787l-0.508,0.279C296.102,81.833,297.05,82.045,297.897,82.468z
		 M296.221,99.987h-0.508l0.254,0.508h0.254V99.987z M301.248,78.837v-0.381h-1.574v0.254L301.248,78.837z M299.928,86.353
		l0.559-0.787l-0.254-0.381h-0.559v1.168H299.928z M300.994,83.255l0.254-0.66l-1.016-0.127v0.127l0.508,0.66H300.994z
		 M300.588,97.474l0.051,0.152l0.152-0.102L300.588,97.474z M301.248,81.173l-0.254-0.127l0.254-0.914v-0.254h0.508v1.295H301.248z"
		/>
	<path fill="#333333" d="M318.615,76.831l0.254,0.127h2.844l0.508,0.254v14.625l-0.254,0.508l0.254,0.381h-0.254l0.254,0.127v4.266
		l-0.254,0.152l0.254,0.127v15.768l-0.508,0.254h-1.574v-0.381h-0.508c0,0.254-0.17,0.381-0.508,0.381h-8.277v-0.381h-0.508v0.381
		h-4.164l-0.508-0.254V77.212l0.508-0.254h12.188L318.615,76.831z M308.002,109.94v0.254h0.762v-0.254H308.002z M308.256,111.87
		v0.381l0.508-0.254v-0.127H308.256z M309.271,111.743h1.066l-0.559-0.254L309.271,111.743z M312.623,110.829v0.127
		c1.219-0.085,1.828-0.212,1.828-0.381v-0.127h-1.016L312.623,110.829z M313.436,111.997l0.254,0.381h0.254v-0.381H313.436z
		 M315.771,96.737c0,0.321-0.525,0.542-1.574,0.66v0.127h1.32l0.508-0.66v-0.127H315.771z M314.705,108.112v0.127l0.812,0.406h0.254
		v-0.533H314.705z M316.533,111.997l-0.508,0.254v0.406l0.762-0.533v-0.127H316.533z M316.279,108.646v0.254h0.762l-0.508-0.254
		H316.279z M317.041,98.032v0.254h1.016l0.305-0.508h-0.305L317.041,98.032z M317.295,111.743l-0.254,0.127v0.127h0.762
		L317.295,111.743z M319.123,104.507c0,0.254-0.525,0.381-1.574,0.381v0.254l2.082-0.381v-0.254H319.123z M318.869,92.345
		l0.508,0.254h0.254v-0.254H318.869z M319.885,103.72l-0.254,0.533h0.508l0.254-0.533H319.885z M320.9,91.583
		c0,0.339-0.338,0.508-1.016,0.508v0.127h0.254c0.779-0.169,1.219-0.339,1.32-0.508v-0.127H320.9z M320.139,96.737v0.254h1.066
		v-0.254H320.139z M320.646,87.952v0.254h0.812v-0.254H320.646z M325.318,76.958h13.965c10.359,0.271,15.539,1.007,15.539,2.209
		h1.27c4.842,1.743,7.262,4.367,7.262,7.871c0,3.876-2.945,6.593-8.836,8.15l-0.508-0.254c0,0.423-1.033,0.728-3.098,0.914v0.127
		c2.979,0,5.738,1.329,8.277,3.986l-0.254,0.152h-1.016l-0.254-0.152h-0.305l-0.254,0.533h0.254l1.574-0.127
		c0.678,0,1.201,0.948,1.574,2.844h-0.559l-1.27-0.127l-1.016,0.635c0.475,0,0.896,0.178,1.27,0.533v0.254l-0.254,0.127v0.127h1.828
		v-0.254h0.508l1.523,4.012c-1.016,0.169-1.523,0.339-1.523,0.508v0.127h1.27c0.508,0,1.033,0.601,1.574,1.803l-0.812,0.406v0.381
		l0.812-0.254h0.254c0.406,0.085,1.1,0.559,2.082,1.422l-1.066,0.508h-4.113l0.508-1.041v-0.381c-0.508,0-0.846,0.474-1.016,1.422
		h-4.418l-0.508-0.254l0.254-0.127h0.508l1.32,0.127v-0.381l-0.305-0.533l0.812-0.508l1.27,0.127l1.066-0.127v-0.66
		c-2.607,0.288-3.91,0.55-3.91,0.787l0.254,0.787l-0.254,0.127h-2.336c0,0.423-0.17,0.635-0.508,0.635h-4.113
		c-0.576,0-1.607-1.032-3.098-3.098l0.254-0.381c-0.475,0-1.422-2.285-2.844-6.855c-0.609-1.083-1.998-1.946-4.164-2.59
		c-2.031-0.355-4.791-0.533-8.277-0.533v-0.381h0.508v-0.254h-0.508c0,0.169-0.338,0.254-1.016,0.254v0.381l-4.418,0.152h-0.762
		l-0.508-0.279v-2.438c0-0.187,0.424-0.279,1.27-0.279v-0.254h-0.254l-0.762,0.127l-0.254-0.127V93.64l0.508-0.254h6.449
		c10.189,0,15.285-1.507,15.285-4.52v-1.041c-0.609-2.505-3.029-3.758-7.262-3.758c0-0.152-2.15-0.237-6.449-0.254h-8.023
		l-0.508-0.254v-6.348L325.318,76.958z M328.416,96.991v0.127l1.574,0.406h2.285v-0.254h-2.285c-0.373,0-0.559-0.136-0.559-0.406
		L328.416,96.991z M328.924,93.894v0.254l0.508,0.279l-0.254,0.127v0.381h1.066l-0.254-0.127v-0.127l0.762-0.533l-1.574-0.254
		H328.924z M331.514,93.64l-0.254,0.508h0.762V93.64H331.514z M332.58,97.524l0.508,0.254h1.523v-0.127l-0.508-0.254L332.58,97.524z
		 M335.424,96.356l0.254,0.381h0.508l0.508-0.254v-0.127l-1.27-0.127V96.356z M341.365,93.386l0.508,0.381l-0.254,0.127h-0.254
		l-0.254-0.127c-0.881,0-2.014,0.22-3.402,0.66h-0.762l0.254,0.127v0.127l-0.508,0.762h0.762c1.049-0.187,1.574-0.524,1.574-1.016
		l0.762-0.279h1.066c0.508,0,0.762,0.178,0.762,0.533h0.508l0.762-0.66c-0.338,0-0.508-0.169-0.508-0.508l-0.254-0.127H341.365z
		 M343.143,98.819l0.812,1.93h0.508v-0.381l-0.508-1.041l0.508-0.381v-0.127H343.143z M345.479,95.696l-0.508,0.533l2.59,0.508
		v-0.254c-0.338,0-0.508-0.169-0.508-0.508l-1.066-0.279H345.479z M345.479,92.091l1.066,0.508h1.016l0.508-0.254h-2.082v-0.254
		H345.479z M346.24,106.563c0.203,0.524,0.475,0.787,0.812,0.787l0.508-0.254v-0.152l-0.762-0.381H346.24z M346.799,101.663
		l-0.254,0.508v0.127h0.254l0.254-0.508v-0.127H346.799z M347.814,97.778l-0.254,0.127v0.254l1.016-0.254v-0.127H347.814z
		 M347.561,103.974l1.016,0.787h0.508v-0.254c-0.508,0-0.762-0.178-0.762-0.533H347.561z M347.814,109.153
		c1.117,0.169,1.811,0.432,2.082,0.787l2.336,0.381v-0.381c-1.186,0-2.133-0.305-2.844-0.914l-0.305-0.127h-0.762L347.814,109.153z
		 M348.322,107.351l0.508,0.254h0.559v-0.254H348.322z M348.322,110.702l0.508,0.254h0.254l-0.508-0.254H348.322z M348.576,93.64
		v1.041h0.508V93.64H348.576z M349.084,105.929v0.127h0.559v-0.381L349.084,105.929z M350.404,90.542l-0.254,0.381l0.254,0.381
		h0.254l0.254-0.762H350.404z M351.166,101.79v0.127h0.254l0.812-0.381v-0.279L351.166,101.79z M351.166,112.505v0.279h0.254
		l1.32-0.127v-0.406h-0.508L351.166,112.505z M351.928,102.958h0.305l0.508-0.279h-0.254L351.928,102.958z M353.248,105.396
		l-0.762-0.254l-0.559,0.254v0.127h1.828l0.254,0.152c1.049-0.187,1.574-0.364,1.574-0.533l-0.254-0.127h-0.254
		C354.434,105.269,353.824,105.396,353.248,105.396z M351.928,106.817l0.305,0.533h0.254l1.016-0.254v-0.279H351.928z
		 M352.74,104.634v0.127l0.508,0.254h0.508l0.508-0.254L352.74,104.634z M354.518,110.194c0,0.339-0.17,0.508-0.508,0.508
		l0.254,0.127v0.127l-0.508,0.406v0.127h1.066v-1.295H354.518z M354.264,84.854h0.254l0.559-0.254h-0.254L354.264,84.854z
		 M354.822,102.958v0.254l1.27-0.127v-0.127H354.822z M355.33,108.112c0,0.169,0.592,0.432,1.777,0.787h0.559v-0.127
		c0-0.136-0.609-0.355-1.828-0.66H355.33z M355.584,104.253h0.508l1.016-0.279v-0.254h-0.254
		C356.074,103.889,355.652,104.066,355.584,104.253z M356.854,101.003l-0.508,0.406l1.016,0.381l0.305-0.127h0.254l1.523,0.508
		v-1.041h-0.762l-1.32,0.127L356.854,101.003z M356.346,106.817v0.279h1.016v-0.279H356.346z M356.6,99.581v0.127l0.762,0.127
		v-0.254H356.6z M357.361,102.044v0.787c0.373,0,0.559-0.136,0.559-0.406l-0.254-0.381H357.361z M358.428,109.407l0.508,0.254
		l0.508-0.254H358.428z M361.271,110.194v0.254h1.016v-0.254H361.271z M366.197,114.206h1.27l0.508,0.254l-0.508,0.254h-1.27
		l-0.559-0.254L366.197,114.206z"/>
	<g>
		<path fill="#333333" d="M475.273,76.882h15.539l0.508,0.229v2.672l-0.508,0.251h-0.508c0-0.197-0.441-0.434-1.32-0.708v-0.228
			h-0.254l-0.254,0.113h-0.254l1.574,1.051l-1.32,0.457h0.254l2.336-0.571l0.254,0.114v14.549h-1.27l-1.32-0.365
			c0,0.319-0.34,0.479-1.016,0.479c0,0.456-0.17,0.685-0.508,0.685h-1.32l-0.762-0.229l-0.508,0.366l0.254,0.114h1.523v0.228
			c0.812,0,1.506,0.191,2.082,0.571l0.508-0.343c-0.508,0-0.762-0.076-0.762-0.229v-0.708h1.574l0.508,0.229v0.594
			c-0.543,0-0.812,0.077-0.812,0.229c0.711,0,1.32,0.198,1.828,0.594v1.394l-1.828,0.913h1.32v-0.456h0.508v5.115
			c-0.34,0.32-0.762,0.479-1.27,0.479l0.508,0.229l0.762-0.114v3.243h-0.508c0-0.38-0.17-0.57-0.508-0.57l-1.574-0.343v0.114
			c0,0.122,0.523,0.236,1.574,0.343l0.254,0.594v0.114l-0.762,0.342h-0.559l-1.523-0.594v0.138l1.27,0.685l-0.254,0.343h0.254
			c1.049,0,1.574-0.152,1.574-0.457h0.762v0.937l-0.508,0.229h-1.574l-0.762-0.229l-0.508,0.229h-1.828
			c-0.34,0-0.508-0.114-0.508-0.343h-1.574c0,0.229-0.17,0.343-0.508,0.343h-1.27l-1.574-0.571h-0.254v0.571h-3.098v-0.343h-1.574
			v0.114h0.559v0.229h-1.066l-0.508-0.229v-0.114l0.508-0.365v-0.571h-0.508v-1.05l1.016-0.686c0-0.243-0.254-0.365-0.762-0.365
			l-0.254-0.114v-0.822l0.508-0.229h1.066l0.762,0.229h0.762l-0.254-0.114l-1.27-0.229l-0.559-0.686h-0.508v0.571h-0.508v-4.431
			l0.508-0.229h0.254l1.574,0.229v0.137l1.27-0.137h2.082c0-0.152-0.34-0.229-1.016-0.229v-0.229h-1.828l-0.508-0.229l0.254-0.479
			c-0.678,0-1.016-0.426-1.016-1.278l-0.305,0.137h-0.762l-0.508-0.251v-0.914h0.762l-0.254-0.137v-0.114l0.254-0.343l-0.762-0.57
			V77.11L475.273,76.882z M475.273,76.882h15.539l0.508,0.229v2.672l-0.508,0.251h-0.508c0-0.197-0.441-0.434-1.32-0.708v-0.228
			h-0.254l-0.254,0.113h-0.254l1.574,1.051l-1.32,0.457h0.254l2.336-0.571l0.254,0.114v14.549h-1.27l-1.32-0.365
			c0,0.319-0.34,0.479-1.016,0.479c0,0.456-0.17,0.685-0.508,0.685h-1.32l-0.762-0.229l-0.508,0.366l0.254,0.114h1.523v0.228
			c0.812,0,1.506,0.191,2.082,0.571l0.508-0.343c-0.508,0-0.762-0.076-0.762-0.229v-0.708h1.574l0.508,0.229v0.594
			c-0.543,0-0.812,0.077-0.812,0.229c0.711,0,1.32,0.198,1.828,0.594v1.394l-1.828,0.913h1.32v-0.456h0.508v5.115
			c-0.34,0.32-0.762,0.479-1.27,0.479l0.508,0.229l0.762-0.114v3.243h-0.508c0-0.38-0.17-0.57-0.508-0.57l-1.574-0.343v0.114
			c0,0.122,0.523,0.236,1.574,0.343l0.254,0.594v0.114l-0.762,0.342h-0.559l-1.523-0.594v0.138l1.27,0.685l-0.254,0.343h0.254
			c1.049,0,1.574-0.152,1.574-0.457h0.762v0.937l-0.508,0.229h-1.574l-0.762-0.229l-0.508,0.229h-1.828
			c-0.34,0-0.508-0.114-0.508-0.343h-1.574c0,0.229-0.17,0.343-0.508,0.343h-1.27l-1.574-0.571h-0.254v0.571h-3.098v-0.343h-1.574
			v0.114h0.559v0.229h-1.066l-0.508-0.229v-0.114l0.508-0.365v-0.571h-0.508v-1.05l1.016-0.686c0-0.243-0.254-0.365-0.762-0.365
			l-0.254-0.114v-0.822l0.508-0.229h1.066l0.762,0.229h0.762l-0.254-0.114l-1.27-0.229l-0.559-0.686h-0.508v0.571h-0.508v-4.431
			l0.508-0.229h0.254l1.574,0.229v0.137l1.27-0.137h2.082c0-0.152-0.34-0.229-1.016-0.229v-0.229h-1.828l-0.508-0.229l0.254-0.479
			c-0.678,0-1.016-0.426-1.016-1.278l-0.305,0.137h-0.762l-0.508-0.251v-0.914h0.762l-0.254-0.137v-0.114l0.254-0.343l-0.762-0.57
			V77.11L475.273,76.882z M475.02,98.533c0.879,0.046,1.32,0.273,1.32,0.685c-0.711,0.168-1.066,0.366-1.066,0.594h-0.508v-1.05
			l0.254-0.114V98.533z M475.02,98.533c0.879,0.046,1.32,0.273,1.32,0.685c-0.711,0.168-1.066,0.366-1.066,0.594h-0.508v-1.05
			l0.254-0.114V98.533z M475.273,94.925l1.32,0.456h0.762C477.355,95.184,476.66,95.031,475.273,94.925z M475.273,94.925l1.32,0.456
			h0.762C477.355,95.184,476.66,95.031,475.273,94.925z M477.355,101.091c0,0.305-0.17,0.457-0.508,0.457l-0.812-0.114l-0.254,0.114
			v0.365c0.541,0,0.812,0.114,0.812,0.343h0.254c0-0.396,0.422-0.594,1.27-0.594h0.812
			C478.59,101.388,478.066,101.197,477.355,101.091z M477.355,101.091c0,0.305-0.17,0.457-0.508,0.457l-0.812-0.114l-0.254,0.114
			v0.365c0.541,0,0.812,0.114,0.812,0.343h0.254c0-0.396,0.422-0.594,1.27-0.594h0.812
			C478.59,101.388,478.066,101.197,477.355,101.091z M476.035,81.198v0.229l0.559,0.229l0.254-0.114v-0.114l-0.508-0.229H476.035z
			 M476.035,81.198v0.229l0.559,0.229l0.254-0.114v-0.114l-0.508-0.229H476.035z M476.035,96.889v0.137
			c0.541,0,1.066,0.152,1.574,0.457h0.254l0.762-0.343l-0.762-0.594h-0.254C477.033,96.774,476.508,96.889,476.035,96.889z
			 M476.035,96.889v0.137c0.541,0,1.066,0.152,1.574,0.457h0.254l0.762-0.343l-0.762-0.594h-0.254
			C477.033,96.774,476.508,96.889,476.035,96.889z M476.848,93.874v0.571h0.508v-0.571H476.848z M476.848,93.874v0.571h0.508v-0.571
			H476.848z M480.453,96.546l-0.254,0.708l0.762,0.343v0.229l-1.27,0.114h-0.762l-0.559,0.594v0.114l0.559,0.229h0.254l1.27-0.114
			l0.254,0.57h0.254v-0.685c0.338,0,0.508-0.152,0.508-0.457l0.305-0.137h0.254l1.016,0.137v-0.137c0-0.152-0.525-0.305-1.574-0.457
			l-0.254-0.571v-0.137h0.559v-0.114c-0.543,0-0.812-0.076-0.812-0.229H480.453z M480.453,96.546l-0.254,0.708l0.762,0.343v0.229
			l-1.27,0.114h-0.762l-0.559,0.594v0.114l0.559,0.229h0.254l1.27-0.114l0.254,0.57h0.254v-0.685c0.338,0,0.508-0.152,0.508-0.457
			l0.305-0.137h0.254l1.016,0.137v-0.137c0-0.152-0.525-0.305-1.574-0.457l-0.254-0.571v-0.137h0.559v-0.114
			c-0.543,0-0.812-0.076-0.812-0.229H480.453z M478.371,104.471h0.812l0.508-0.251h-0.762L478.371,104.471z M478.371,104.471h0.812
			l0.508-0.251h-0.762L478.371,104.471z M478.371,108.65l0.559,0.343l0.762-0.114l-0.254-0.457L478.371,108.65z M478.371,108.65
			l0.559,0.343l0.762-0.114l-0.254-0.457L478.371,108.65z M479.184,106.801v0.229h0.254l0.508-0.229H479.184z M479.184,106.801
			v0.229h0.254l0.508-0.229H479.184z M479.945,77.225l-0.508,0.365h0.254l0.762-0.137L479.945,77.225z M479.945,77.225l-0.508,0.365
			h0.254l0.762-0.137L479.945,77.225z M479.438,102.37h0.508l0.508-0.229h-0.508L479.438,102.37z M479.438,102.37h0.508l0.508-0.229
			h-0.508L479.438,102.37z M479.945,94.445v0.251l0.508,0.229v-0.479H479.945z M479.945,94.445v0.251l0.508,0.229v-0.479H479.945z
			 M480.961,103.763v0.229c-0.508,0-0.762,0.076-0.762,0.229h0.762l0.254-0.343v-0.114H480.961z M480.961,103.763v0.229
			c-0.508,0-0.762,0.076-0.762,0.229h0.762l0.254-0.343v-0.114H480.961z M480.707,107.966l0.508,0.228h0.812v-0.228H480.707z
			 M480.707,107.966l0.508,0.228h0.812v-0.228H480.707z M480.961,101.091v0.114c0.711,0,1.066,0.152,1.066,0.457h0.508
			c0-0.351,0.422-0.654,1.27-0.914C481.908,100.825,480.961,100.938,480.961,101.091z M480.961,101.091v0.114
			c0.711,0,1.066,0.152,1.066,0.457h0.508c0-0.351,0.422-0.654,1.27-0.914C481.908,100.825,480.961,100.938,480.961,101.091z
			 M481.215,106.687v0.114h0.559c0-0.168,0.254-0.251,0.762-0.251v-0.229L481.215,106.687z M481.215,106.687v0.114h0.559
			c0-0.168,0.254-0.251,0.762-0.251v-0.229L481.215,106.687z M481.469,95.153v0.456h0.812v-0.114l-0.254-0.342H481.469z
			 M481.469,95.153v0.456h0.812v-0.114l-0.254-0.342H481.469z M481.773,100.04h0.762l0.254-0.114h0.254l-0.254-0.342L481.773,100.04
			z M481.773,100.04h0.762l0.254-0.114h0.254l-0.254-0.342L481.773,100.04z M482.535,96.774v0.114l2.59,0.822v-0.457
			c-0.881-0.274-1.32-0.624-1.32-1.051c-0.271,0-0.525,0.19-0.762,0.571H482.535z M482.535,96.774v0.114l2.59,0.822v-0.457
			c-0.881-0.274-1.32-0.624-1.32-1.051c-0.271,0-0.525,0.19-0.762,0.571H482.535z M482.789,78.275v0.228l0.254,0.114h0.508v-0.114
			l-0.508-0.228H482.789z M482.789,78.275v0.228l0.254,0.114h0.508v-0.114l-0.508-0.228H482.789z M482.789,80.147v0.114l3.098,0.571
			l0.254,0.114h0.254l-0.254-0.571v-0.229l0.508-0.365h-2.031L482.789,80.147z M482.789,80.147v0.114l3.098,0.571l0.254,0.114h0.254
			l-0.254-0.571v-0.229l0.508-0.365h-2.031L482.789,80.147z M484.059,106.321v0.114l0.559,0.365v0.229
			c0,0.229-0.355,0.343-1.066,0.343v0.113h1.32l0.254-0.57C484.785,106.55,484.43,106.352,484.059,106.321z M484.059,106.321v0.114
			l0.559,0.365v0.229c0,0.229-0.355,0.343-1.066,0.343v0.113h1.32l0.254-0.57C484.785,106.55,484.43,106.352,484.059,106.321z
			 M484.363,100.04v0.114c0,0.122,0.592,0.32,1.777,0.594v-0.251c-0.508,0-0.762-0.114-0.762-0.343l-0.254-0.114H484.363z
			 M484.363,100.04v0.114c0,0.122,0.592,0.32,1.777,0.594v-0.251c-0.508,0-0.762-0.114-0.762-0.343l-0.254-0.114H484.363z
			 M484.617,94.445l0.508,0.251c1.523-0.229,2.387-0.465,2.59-0.708l-0.254-0.114C486.613,94.255,485.666,94.445,484.617,94.445z
			 M484.617,94.445l0.508,0.251c1.523-0.229,2.387-0.465,2.59-0.708l-0.254-0.114C486.613,94.255,485.666,94.445,484.617,94.445z
			 M486.395,98.762l-0.762-0.114v0.456h0.762c0-0.304,0.609-0.532,1.828-0.685V98.19h-0.254L486.395,98.762z M486.395,98.762
			l-0.762-0.114v0.456h0.762c0-0.304,0.609-0.532,1.828-0.685V98.19h-0.254L486.395,98.762z M485.887,101.091v0.114h1.066
			l-0.305-0.114v-0.114L485.887,101.091z M485.887,101.091v0.114h1.066l-0.305-0.114v-0.114L485.887,101.091z M486.395,102.713
			v0.114h0.254c0.066-0.305,0.762-0.457,2.082-0.457v-0.457C487.172,102.142,486.395,102.408,486.395,102.713z M486.395,102.713
			v0.114h0.254c0.066-0.305,0.762-0.457,2.082-0.457v-0.457C487.172,102.142,486.395,102.408,486.395,102.713z M486.395,108.65
			v0.229h0.812v-0.229H486.395z M486.395,108.65v0.229h0.812v-0.229H486.395z M486.648,80.947l0.559,0.251h0.508v-0.251H486.648z
			 M486.648,80.947l0.559,0.251h0.508v-0.251H486.648z M487.461,99.584v0.228c0.676-0.121,1.016-0.235,1.016-0.342L487.461,99.584z
			 M487.461,99.584v0.228c0.676-0.121,1.016-0.235,1.016-0.342L487.461,99.584z M489.238,90.38v1.05h0.559l0.254-0.342l-0.559-0.708
			H489.238z M489.238,90.38v1.05h0.559l0.254-0.342l-0.559-0.708H489.238z M489.238,97.254v0.229h1.574V97.14L489.238,97.254z
			 M489.238,97.254v0.229h1.574V97.14L489.238,97.254z M489.797,102.599l-0.305,0.479h0.812l0.254-0.479H489.797z M489.797,102.599
			l-0.305,0.479h0.812l0.254-0.479H489.797z M490.305,93.166l-0.508,0.594v0.114l1.016-0.114l-0.254-0.594H490.305z M490.305,93.166
			l-0.508,0.594v0.114l1.016-0.114l-0.254-0.594H490.305z M491.32,95.039v1.164h-0.508v-0.229l-0.254-0.821l0.254-0.114H491.32z
			 M491.32,95.039v1.164h-0.508v-0.229l-0.254-0.821l0.254-0.114H491.32z"/>
		<path fill="#333333" d="M510.363,98.647l0.254,0.091v0.114l-0.508,0.343v0.114c0.676,0,1.016,0.365,1.016,1.097
			c0.711,0.761,1.523,1.354,2.438,1.781v0.091l-0.254-0.091h-0.203v0.205h0.203l0.254-0.114c3.113,0.808,5.416,1.257,6.906,1.348
			v0.32h0.508v-0.229h1.473c0.98,0.045,1.473,0.159,1.473,0.342v0.892c0,0.137-0.254,0.205-0.762,0.205l-0.254-0.092h-0.457v0.092
			c0.643,0.046,0.965,0.236,0.965,0.571l-0.762,0.548c0.508,0,0.762,0.076,0.762,0.229v0.205l-0.254,0.549l-0.254-0.092h-0.254
			l-0.203,0.092v0.456c0.711,0,1.201,0.146,1.473,0.435v0.662c0,0.152-0.34,0.229-1.016,0.229l0.762,0.434l-0.508,0.229h-1.219
			c0-0.167-0.576-0.464-1.727-0.891v-0.206h-1.473v0.092h0.711v0.571h-1.93c-0.848-0.594-1.422-0.891-1.727-0.891l-0.254,0.113
			v0.114c0.473,0,0.711,0.222,0.711,0.663h-0.203l-1.016,0.091c-3.285-0.167-6.484-0.677-9.598-1.53
			c0.27-0.518,0.693-0.776,1.27-0.776v-0.343c-0.881,0.062-1.625,0.244-2.234,0.549h-0.965c-3.691-1.203-6.246-2.893-7.668-5.07
			l-0.457-1.348l0.457-0.206v-0.114l-0.203,0.114h-0.254c-0.34-0.334-0.508-0.813-0.508-1.438l0.508-0.229h0.254l0.203,0.114
			l0.254-0.114h0.762l1.473,0.114l1.473-0.229h3.453v0.343h0.254c0.066-0.305,0.305-0.457,0.711-0.457h4.418L510.363,98.647z
			 M495.84,99.629v0.777h0.254c0-0.152,0.254-0.229,0.762-0.229v-0.092l-0.508-0.457H495.84z M523.668,76.95l0.254,0.114v5.413
			c0,0.168-1.98,0.319-5.941,0.457c0.168-0.274,0.744-0.465,1.727-0.571l1.016,0.114h0.457v-0.206h-2.691v0.206h-1.727l0.254,0.548
			c-2.473,0.792-3.707,1.424-3.707,1.896l-0.203,0.548v0.663c0,1.507,4.18,2.58,12.543,3.22l0.203,0.092l-0.203,0.114v0.229
			l0.965-0.343c8.496,0.822,14.557,1.675,18.18,2.558l4.469,1.667v0.092H548.5v-0.206c-0.645,0-0.965-0.151-0.965-0.456h-1.016
			l1.727,0.662l0.254,0.662h-0.508v0.229h0.254l0.762-0.114l-0.762,0.776h2.234c0,0.229,0.236,0.343,0.711,0.343
			c0,0.214,0.338,0.503,1.016,0.868c0.812,0.137,1.219,0.472,1.219,1.005l-0.762,0.229h-2.438c0,0.137-0.406,0.281-1.219,0.434
			h-1.727v0.229c0.777,0,1.354,0.076,1.727,0.229c0-0.152,0.32-0.229,0.965-0.229l0.762-0.343c0.203,0.381,0.439,0.571,0.711,0.571
			l0.254-0.114l0.254,0.114c0.033-0.518,0.523-0.776,1.473-0.776l0.254,0.091v0.776l-0.254,0.114c0,0.152-0.492,0.229-1.473,0.229
			c0,0.365-0.17,0.548-0.508,0.548c-0.645,0-0.965,0.183-0.965,0.549h-1.98v0.114l0.254,0.548h0.254v-0.206l-0.254-0.114l1.98-0.342
			h1.219v0.229h0.508l0.965-0.229v-0.663h0.508c-0.17,1.325-0.508,2.398-1.016,3.221l-0.254-0.114h-0.457v0.114h0.457
			c-0.203,0.883-0.695,1.324-1.473,1.324l-0.711-0.113v0.228l0.965,0.114c-0.373,0.442-1.016,0.884-1.93,1.325l-0.254-0.114h-0.254
			c0,0.472-0.492,0.837-1.473,1.096l-0.254-0.091h-0.254l0.508-0.776l-2.742-1.005h0.508v-0.114l-0.508-0.229l-1.219,0.114v-0.982
			c0-0.183,0.338-0.297,1.016-0.343v-0.114c0-0.167-0.66-0.273-1.98-0.319l0.508,0.319v0.777h-0.254l-0.762-0.114l0.508,0.342v0.229
			l-1.016,0.435l-0.203-0.114l-0.254,0.114h-0.508l-0.254-0.114h-0.254c0-0.518,0.49-0.776,1.473-0.776v-0.114l-1.473-0.435h-1.473
			l0.254,0.114v0.114l-0.508,0.206c-1.186,0-1.828-0.106-1.93-0.32l0.254-0.114l-0.508-0.229c0-0.289,0.66-0.434,1.98-0.434
			l0.203-0.114v-0.114c-0.711,0-1.203-0.183-1.473-0.548c0.676-0.518,1.016-1.18,1.016-1.987l1.219,0.114
			c0.338-0.38,0.66-0.57,0.965-0.57V99.31l-0.457-0.229h-0.762l-0.711,0.229h-0.254l-1.727-1.005V98.19h0.254l1.727,0.114
			c0-0.229,0.32-0.343,0.965-0.343v-0.091l0.254,0.091h0.965l0.508-0.205v-0.229c-0.881,0-1.541-0.145-1.98-0.435h-0.711
			L537.43,97.3h-3.707l-0.711-0.206l-0.965,0.114c-1.152-0.183-1.727-0.334-1.727-0.456v-0.114c0.371,0,0.863-0.145,1.473-0.435
			c-0.812-0.334-1.879-0.518-3.199-0.548v0.114l-1.473-0.229l-0.254,0.114l-2.488-1.324c-0.34,0.441-0.982,0.662-1.93,0.662
			c0,0.243-0.576,0.427-1.727,0.548v0.229h-1.016c-15.066-1.142-22.598-4.21-22.598-9.204v-0.434c0-5.131,7.379-8.153,22.141-9.067
			L523.668,76.95z M498.328,101.502h0.711v-0.205h-0.203L498.328,101.502z M498.836,100.406h1.219v-0.229h-0.762L498.836,100.406z
			 M499.293,103.055v0.114h0.508v-0.319L499.293,103.055z M501.02,99.743l-0.254,0.114v0.229h0.762v-0.114L501.02,99.743z
			 M501.273,81.152l0.508,0.229h0.203v-0.229H501.273z M502.238,90.334L503,90.677l0.254-0.343L503,90.22L502.238,90.334z
			 M502.238,100.634v0.435h0.508v-0.435H502.238z M503.508,103.283l0.203,0.663h0.508v-0.114l-0.254-0.549H503.508z M503.965,92.229
			l0.508,0.206h0.508v-0.206H503.965z M504.473,100.634l0.508,0.206h0.711l-0.254-0.434L504.473,100.634z M504.727,99.31
			l0.457,0.205l0.508-0.205v-0.229h-0.508L504.727,99.31z M505.184,105.818v0.114h1.016l-0.254-0.114v-0.091L505.184,105.818z
			 M505.691,90.448v0.434l0.508,0.229v-0.662H505.691z M507.164,102.393v0.229l0.508,0.434h0.508v-0.205l-0.508-0.457H507.164z
			 M507.672,81.381v0.206c0.812,0,1.219,0.076,1.219,0.229h0.508l-0.762-0.435H507.672z M507.926,99.972v0.206
			c0.643,0,0.965,0.152,0.965,0.456h0.762v-0.228l-0.508-0.229h-0.254l0.254-0.092v-0.343h-0.762L507.926,99.972z M508.383,91.544
			l-0.203,0.114v0.114h1.219v-0.114L508.383,91.544z M508.383,79.395l0.508,0.205h0.254l0.508-0.205v-0.229L508.383,79.395z
			 M508.637,88.118v0.114l2.945,0.229l-1.676-0.457L508.637,88.118z M508.891,107.828v0.092c1.15,0,1.727,0.229,1.727,0.685h0.508
			v-0.228l0.254-0.114l-0.254-0.114l-1.98-0.32H508.891z M510.363,103.283c0,0.229-0.238,0.343-0.711,0.343v0.206l1.219-0.549
			H510.363z M510.617,105.728h0.254l0.254-0.114h0.254l0.711,0.319h0.254v-0.114l-0.254-0.319h-0.965L510.617,105.728z
			 M510.871,106.595l0.508,0.229h0.203l-0.457-0.229H510.871z M512.344,104.174c0,0.138,0.32,0.206,0.965,0.206l-0.203,0.114v0.114
			l0.965,0.229v-0.114l-0.762-0.549H512.344z M512.852,107.258l-0.254,0.114v0.342l0.254-0.114h0.254l0.965,0.114L512.852,107.258z
			 M513.562,88.896v0.228h0.762v-0.228H513.562z M515.289,91.544l-0.254,0.114v0.114h1.016v-0.114L515.289,91.544z M515.543,105.933
			v0.343l0.965,0.319h0.508v-0.434h-0.254l-0.254,0.114c-0.475,0-0.711-0.114-0.711-0.343H515.543z M517.27,109.268v0.091
			l-0.254,0.114v0.114l-0.762-0.114v-0.114L517.27,109.268z M517.523,107.92v0.457h0.457v-0.229L517.523,107.92z M518.234,105.818
			v0.114l0.508,0.229h0.254l0.711-0.114v-0.114l-1.219-0.114H518.234z M518.234,109.473h1.016v0.229h-0.254l-0.762-0.114V109.473z
			 M520.977,93.988l-1.98-0.229l0.965,0.662h1.016c0-0.183,0.32-0.289,0.965-0.319v-0.229l0.711-0.206l-0.203-0.342L520.977,93.988z
			 M522.906,95.541h1.727l0.762,0.32v0.57c-3.115-0.259-4.672-0.479-4.672-0.662h2.184V95.541z M520.977,107.714v0.435l0.457,0.229
			l0.254-0.114h0.508v0.228h0.254v-0.228L520.977,107.714z M521.434,104.723v0.342h0.762v-0.113l-0.508-0.229H521.434z
			 M522.195,92.663v0.549h0.254v-0.549H522.195z M524.887,90.014v0.114l0.254,0.549c-0.34,0-0.66,0.221-0.965,0.662h-1.27
			l0.254,0.434l-0.254,0.343c1.658-0.548,2.488-1.104,2.488-1.667v-0.435H524.887z M524.176,94.879h0.711l0.762,0.319v0.343h-0.254
			l-1.219-0.229V94.879z M526.613,76.95c7.074,0,13.389,0.922,18.941,2.764c2.641,1.219,3.961,2.032,3.961,2.443
			c0.846,0,1.895,1.439,3.148,4.317v0.319l-8.328,0.457v-0.114l-6.906,0.319c-0.645-1.796-1.795-2.977-3.453-3.54
			c-1.355-0.518-3.895-0.921-7.617-1.21v-0.229l0.254-0.662l-0.254-1.097v-3.54l0.254-0.114V76.95z M533.012,103.169
			c1.016,0,1.996,0.183,2.945,0.549c1.625,0,2.438,0.259,2.438,0.776l0.762,0.114l0.254-0.114l0.508,0.343l-0.254,0.114v0.113
			c0.98,0.351,1.473,0.64,1.473,0.868h0.457c0-0.305,0.66-0.487,1.98-0.548l0.254,0.114l-0.254,0.114v0.205l0.254,0.114
			c-0.068,0.381-0.305,0.571-0.711,0.571v0.434c0,0.365-0.424,0.548-1.27,0.548c0,0.168,0.422,0.282,1.27,0.343v-0.114l0.203-0.114
			h0.254v-0.776h0.508v-0.114l-0.254-0.114c0.102-0.365,0.676-0.548,1.727-0.548c0.27,0.518,0.592,0.776,0.965,0.776v0.114
			c-3.387,1.173-6.01,1.759-7.871,1.759v-0.206l-2.691,0.206v-0.092l0.254-0.342h-0.254l-0.711,0.114v0.113l0.457,0.32v0.229
			c0,0.319-3.031,0.54-9.09,0.662l-0.254-0.114v-1.324l0.254-0.114v-0.114l1.219,0.114h0.508c0.338,0,0.508-0.183,0.508-0.549
			l0.711-0.342v-0.206h-0.254l-0.254,0.114h-0.203c0-0.365-0.34-0.814-1.016-1.348l0.254-0.319l-1.727-0.662v-0.663
			c0-0.167,0.406-0.281,1.219-0.342l1.27,0.114c0-0.289,0.812-0.435,2.438-0.435v0.662h-2.438l0.711,0.663h0.254v-0.229h1.98
			l-0.254-0.114v-0.114h0.508l0.711,0.229l0.254-0.114l0.254,0.662h0.457v-0.319l-0.203-0.549l0.203-0.114
			c-0.475,0-0.797-0.183-0.965-0.548h-0.711v-0.114L533.012,103.169z M526.359,105.385h0.508l0.254,0.343l-0.254,0.319h-0.508
			V105.385z M527.121,106.275l1.219,0.114v0.868h-1.473l-0.508-0.206v-0.548C526.359,106.352,526.613,106.275,527.121,106.275z
			 M527.832,109.268v0.091l1.727,0.114l-0.254-0.319L527.832,109.268z M529.305,108.49v0.549l1.219-0.229
			C530.523,108.644,530.117,108.536,529.305,108.49z M529.559,92.321h0.965v-0.206h-0.457L529.559,92.321z M530.32,94.217
			l-0.254,0.114v0.091h0.711L530.32,94.217z M532.25,93.098l-0.457,0.229v0.228h0.711v-0.456H532.25z M532.047,106.823
			c0.236,0.29,0.473,0.435,0.711,0.435h0.508v-0.092l-0.762-0.343H532.047z M532.758,77.841v0.114l0.762,0.092v-0.206H532.758z
			 M534.992,104.06l0.254,0.32l0.457-0.206v-0.342h-0.254L534.992,104.06z M535.957,105.064v0.206h1.219l-0.457-0.206H535.957z
			 M536.465,95.975l-0.254,0.343h0.508l0.457-0.229l-0.254-0.114H536.465z M537.176,106.504v0.548l1.727-0.114v-0.114
			c-0.812,0-1.219-0.106-1.219-0.319H537.176z M543.117,92.436l0.457,0.548l-0.965,0.229l-0.254-0.114h-0.762l-0.457,0.229v0.114
			l0.457,0.319v0.457l-0.457,0.434h-1.219l-0.762-0.229v0.457h-1.727v0.114l1.219,0.205l0.762-0.319h0.254l0.711,0.229
			c0.168-0.305,0.66-0.457,1.473-0.457v0.548h-0.711v0.343l0.965,0.434l0.508-0.205v-0.776l0.508-0.229h0.203l0.762,0.114v-0.776
			h-1.727v-0.114l0.254-0.548h0.254l1.219,0.113c0-0.304,0.168-0.456,0.508-0.456C544.453,92.854,543.963,92.633,543.117,92.436z
			 M537.938,78.617l0.965-0.342h-0.254L537.938,78.617z M537.938,101.068v0.114c0,0.213,0.574,0.319,1.727,0.319
			c0,0.305,0.152,0.457,0.457,0.457h0.508l0.508-0.229l-2.742-0.662H537.938z M538.902,108.148h1.473v-0.229l-0.457-0.206h-0.254
			L538.902,108.148z M539.918,106.39c0,0.213-0.254,0.319-0.762,0.319v0.114h0.965l0.254-0.434H539.918z M539.918,100.406
			l0.457,0.228h0.254l-0.508-0.228H539.918z M545.301,98.419v0.229h-1.219c-0.305,0.122-1.287,0.229-2.945,0.319l-0.254-0.114v0.229
			h2.234c0,0.441,0.152,0.662,0.457,0.662h0.508l-0.508-0.342V99.31l0.508-0.229h1.727l0.711,0.229v-0.457l-0.203-0.114v-0.091
			l0.457-0.229H545.301z M541.137,82.271v0.206h0.965v-0.206H541.137z M542.863,96.089c0,0.366-0.424,0.549-1.27,0.549v0.342h0.254
			l2.234-0.776L542.863,96.089z M541.594,102.188v0.205l1.016,0.229h0.254v-0.229L541.594,102.188z M544.336,81.152v0.229h-1.473
			v0.206h1.219l1.219-0.092l0.508,0.32l0.711-0.114v-0.32l-0.457-0.229H544.336z M543.117,101.502v0.114
			c0,0.137,0.49,0.327,1.473,0.571v-0.457c-0.848,0-1.27-0.076-1.27-0.229H543.117z M543.828,100.634v0.206h1.219v-0.662
			c-0.305,0-0.457,0.152-0.457,0.456H543.828z M544.59,93.874l-0.254,0.343h0.711v-0.343H544.59z M544.336,105.156h0.965v0.457
			l-0.711,0.114l-0.254-0.114V105.156z M544.793,95.107v0.205l1.016,0.114v-0.229L544.793,95.107z M544.793,97.094V97.3h1.27
			l-0.508-0.206H544.793z M545.047,101.068v0.434h0.508v-0.434H545.047z M545.047,104.174v0.114h0.508v0.092l1.219-0.434
			c0.812,0,1.219-0.184,1.219-0.549h0.254c0-0.229-0.322-0.343-0.965-0.343v-0.205h-0.254c-0.34,0-0.508,0.365-0.508,1.097
			L545.047,104.174z M545.809,102.621v0.114l0.711,0.114v-0.229H545.809z M546.062,94.65v0.229l1.473-0.114V94.65H546.062z
			 M546.316,95.541l0.457,0.229h0.254l-0.508-0.229H546.316z M547.027,99.515l0.508,0.457l0.711-0.457H547.027z M547.281,101.297
			v0.205l0.508,0.229h0.203v-0.434H547.281z M547.281,105.064v0.206h0.711v-0.206H547.281z M547.535,96.432v0.206l0.965,0.114h0.762
			v-0.114C548.482,96.638,547.906,96.569,547.535,96.432z M547.992,101.845v0.434h0.254l0.508-0.205L547.992,101.845z
			 M549.516,93.988h0.203c0.676,0.152,1.016,0.373,1.016,0.662h-1.219l-0.508-0.229v-0.205L549.516,93.988z M549.262,99.081v0.229
			h0.254l0.457-0.229H549.262z M550.227,83.802v0.571l0.762,0.205v-0.114l-0.508-0.662H550.227z"/>
	</g>
</g>
</svg>
