<?xml version="1.0" encoding="utf-8"?>
<!-- Generator: Adobe Illustrator 16.0.0, SVG Export Plug-In . SVG Version: 6.00 Build 0)  -->
<!DOCTYPE svg PUBLIC "-//W3C//DTD SVG 1.1//EN" "http://www.w3.org/Graphics/SVG/1.1/DTD/svg11.dtd">
<svg version="1.1" id="Layer_1" xmlns="http://www.w3.org/2000/svg" xmlns:xlink="http://www.w3.org/1999/xlink" x="0px" y="0px"
	 width="600px" height="170px" viewBox="0 0 600 170" enable-background="new 0 0 600 170" xml:space="preserve">
<g>
	<path fill="#FFFFFF" d="M442.583,41.119c-0.029,0.072-0.063,0.145-0.098,0.218c-2.663,5.551-8.912,7.307-14.064,9.354
		c-1.386,0.549-3.222,2.414-4.517,1.434c-1.908-1.446,0.145-6.731-0.05-8.56c-0.311-2.918-1.815-5.421-4.651-6.477
		c-5.184-1.932-9.83,3.408-9.501,8.294c0.26,3.86,6.658,6.597,5.432,10.173c-0.915,2.662-5.749,3.418-7.564,5.322
		c-1.749,1.832-2.836,4.241-3.809,6.543c-0.699,1.654-1.348,3.333-2.16,4.936c-0.366,0.724-0.754,1.596-1.327,2.188
		c-0.232,0.244-0.573,0.563-0.911,0.653c-0.457,0.122-0.811-0.27-1.142-0.224c0.133-0.018,0.114,0.023,0.109,0.027
		c-0.669-0.666-1.276-1.388-1.94-2.051c-0.935-0.934-2.085-1.613-2.354-3.014c-0.227-1.153-0.423-2.138-1.183-3.104
		c-0.45-0.563-2.078-1.847-2.713-0.838c-0.507,0.811,1.397,1.92,1.306,3.004c-0.041,0.466-2.091-0.738-2.27-0.785
		c-1.655-0.436-2.224,2.946-2.425,3.958c-0.343,1.715,0.251,2.381,1.79,3.145c0.674,0.333,1.441,0.586,2.142,0.855
		c-0.18-0.069-0.311,1.185-0.246,1.364c0.146,0.41,1.032,1.321,1.354,1.664c1.589,1.685,3.727,3.09,5.817,4.058
		c1.798,0.831,4.274,1.869,6.259,1.083c2.772-1.097,4.229-11.881,8.113-9.582c2.859,1.694,4.165,8.502,4.766,11.487
		c0.795,3.956,0.831,8.254-1.21,11.872c-3.238,5.739-4.602,11.133-6.68,17.371c-2.495,7.492-3.614,15.371-6.61,22.75
		c-0.867,2.133-1.674,4.257-2.505,6.382c-0.363,0.927-0.726,2.261-1.415,3.03c-1.078,1.193-2.487,0.703-2.182,2.884
		c0.184,1.306,1.136,2.71,2.008,3.666c0.865,0.947,1.87,1.729,3.124,2.088c1.44,0.414,2.618-1.377,3.162-2.427
		c3.626,1.694,3.037-2.725,3.679-5.108c1.205-4.493,3.674-8.566,5.115-12.981c1.26-3.858,2.817-7.542,4.119-11.378
		c1.502-4.43,3.411-8.407,5.462-12.591c0.614-1.256,1.226-2.428,2.064-3.569c1.425-1.938,3.022-3.96,5.437-4.704
		c8.533-2.626,20.245,4.9,27.862,8.12c2.503,1.06,4.946,2.078,7.394,3.272c2.56,1.247,5.204,2.742,8.026,3.479
		c1.688,0.439,10.526,5.146,11.301,3.089c1.003,0.706,2.662,1.858,3.889,0.99c0.937-0.662,1.546-3.372,1.437-4.482
		c-0.158-1.563-2.066-1.187-3.229-1.779c-2.675-1.369-4.658-4.024-7.637-4.677c-3.174-0.694-5.918-2.936-8.738-4.456
		c-3.06-1.648-6.19-3.166-9.245-4.825c-4.17-2.264-8.306-4.371-12.525-6.525c-6.085-3.106-10.593-4.868-13.122-11.572
		c-2.293-6.069-2.892-13.467-2.745-19.956c0.14-6.093,6.695-8.039,10.712-11.053c3.77-2.828,5.503-6.417,6.281-11.047
		c0.176-1.039,2.747-11.056,2.804-11.044c-2.331-0.499-1.15-3.571-0.883-5.287c0.28-1.798,0.812-3.571-0.056-5.32
		c-0.584-1.175-2.548-2.866-3.925-2.802c-3.186,0.146,0.568,4.311-1.594,5.107c-1.313,0.483-0.943-3.102-2.53-1.613
		c-1.529,1.441,0.051,3.704,0.986,4.905c1.172,1.509,2.021,2.302,1.418,4.333c-0.719,2.422-1.865,4.68-2.628,7.078
		C443.19,38.654,443.076,39.965,442.583,41.119z"/>
	<path fill="#FFFFFF" d="M21.318,76.264l-0.178,42.568H1.667V76.264H21.318z M50.884,76.264h24.757v0.148L36.991,95.589
		l40.431,23.095v0.148H54.208L23.989,101.17V90.603L50.884,76.264z"/>
	<g id="XMLID_1_">
		<g>
			<path fill="#FFFFFF" d="M124.39,118.206h-0.28c0-0.315,0.292-0.468,0.888-0.468v-0.443l-2.081-0.444
				c-0.479,0.187-1.578,0.339-3.32,0.444l0.889,0.911l-1.543,0.597h-4.816v-0.444h-0.889l-0.292,0.152v-0.152h-0.596v0.152
				l1.193,0.14v0.152h-12.054l-0.655-0.292v-1.965l0.655-0.468l-0.655-0.455v-0.141l0.292-0.152l-0.292-0.151v-1.953h0.292
				l1.25,0.444h0.292l-1.835-1.367v-1.193l0.655-0.315h3.917v0.468l-0.292,0.152l0.584,0.292c1.988-0.608,3.391-0.912,4.221-0.912
				h5.109c-0.245,0.702-0.736,1.064-1.484,1.064v0.292l2.432-0.585l-0.304-0.151c0.129-0.305,0.515-0.503,1.193-0.62l1.192,0.315
				l0.888-0.315h10.265l1.251,0.62h0.292l0.304-0.152v-0.152l-0.304-0.14v-0.176h2.736c0.397,0,0.596,0.152,0.596,0.468l1.181-0.468
				h1.847l0.584,0.315v0.456h-0.292l-0.292,0.141l0.292,0.152c0,0.397,0.397,0.596,1.193,0.596c0-0.304,0.199-0.444,0.584-0.444
				l0.596,1.509h-1.181v0.304c0.783,0,1.181,0.141,1.181,0.444l1.847,0.771v1.216h-0.9v0.597l0.596,0.444v0.911l-0.292,0.152
				c-0.83,0-1.251,0.152-1.251,0.444h-3.917l-0.596-0.292v-0.152h1.192v-1.508c0.83,0,1.239-0.152,1.239-0.456h-0.889v-0.316
				c0.994-0.069,1.485-0.21,1.485-0.455v-0.293c-0.596-0.374-0.889-0.736-0.889-1.063l0.292-0.748l-1.239-0.293
				c-0.877,0.234-1.368,0.479-1.485,0.737l0.596,0.479v0.152l-0.304,0.141l0.304,0.151v0.152c-0.514,0-1.11,0.141-1.789,0.444v0.141
				l0.304,0.151v0.924l-0.304,0.152h0.889v1.028l-0.585,0.327c-1.228,0-1.847-0.257-1.847-0.771h-1.777v0.304h-1.543l-0.888,0.62
				c0.596,0,0.888,0.105,0.888,0.292v0.152h-4.22l-0.584-0.292v-0.152L124.39,118.206z M131.638,114.267v-0.152l-0.889,0.327
				l-1.239-0.175l-2.081,0.468h-0.596l-0.947-0.62l0.351,0.771c0,0.491-0.409,0.737-1.239,0.737v0.151l0.292,0.152l2.736-1.192
				h1.181l0.655,0.304L131.638,114.267z M127.137,112.01v-0.304l-0.596-0.292v0.596H127.137z M123.805,115.038h-0.889v-0.152
				l0.292-0.151v-0.912h-0.584l-0.655,0.292c0.514,0,0.83,0.258,0.947,0.771l-0.947,0.152l0.292,0.141v0.151l-0.292,0.152v0.141
				C123.197,115.389,123.805,115.19,123.805,115.038z M123.513,111.565v-0.151h-0.596l-0.292,0.151v0.141L123.513,111.565z
				 M121.374,112.63l0.596-0.327h-1.192L121.374,112.63z M118.941,116.99v-2.256h-0.596v0.748l-1.192,0.596l0.596,0.62l-1.181,1.04
				v0.141C117.515,117.762,118.311,117.47,118.941,116.99z M118.345,113.519v-0.444l-0.292-0.152h-0.596v0.152
				c0.397,0,0.596,0.151,0.596,0.444H118.345z M117.153,114.267v-0.152h-0.292l-0.292,0.479v0.141h0.292L117.153,114.267z
				 M117.153,112.63v-0.771h-0.292l-0.292,0.444L117.153,112.63z M116.568,114.267v-0.304h-0.304l-0.947-0.444v0.596
				L116.568,114.267z M115.668,116.546l-0.351-0.771v-0.444h-0.596v0.924l0.596,0.292H115.668z M113.833,115.179v-0.293h-0.292
				l-0.597,0.293v0.151h0.597L113.833,115.179z M110.805,115.179l0.292-0.141h-0.584l-1.789,0.585v0.304l0.304,0.151l0.889-0.151
				c0-0.397,0.199-0.597,0.596-0.597L110.805,115.179z M108.069,113.519v-0.293h-0.584l-0.304,0.141l0.304,0.9h0.292
				L108.069,113.519z M104.152,116.546h0.596l-1.181-0.923c0.386-0.234,0.689-0.737,0.888-1.509l-0.596-0.292h-0.292v0.292
				l0.292,0.152l-0.292,0.175l-1.485-0.175l-0.304,0.619l0.304,0.152l0.292-0.152l1.193,0.152l-0.304,0.736v0.479
				C103.86,116.254,104.152,116.348,104.152,116.546z"/>
			<polygon fill="#FFFFFF" points="141.623,112.454 141.623,113.366 140.43,113.366 140.43,112.781 141.026,112.454 			"/>
			<polygon fill="#FFFFFF" points="133.123,118.511 132.539,118.803 129.861,118.803 129.861,118.65 131.054,118.066 
				131.942,118.066 			"/>
			<path fill="#FFFFFF" d="M123.513,117.295l0.597,0.292c-0.795,0.397-1.193,0.807-1.193,1.216h-0.655l-1.484-0.292v-0.305h0.304
				C121.596,117.599,122.402,117.295,123.513,117.295z"/>
			<path fill="#FFFFFF" d="M98.202,117.317v1.217l-0.596,0.304H95.77l-0.888-0.304l-0.596,0.304h-2.14
				c-0.397,0-0.596-0.152-0.596-0.444h-1.835c0,0.292-0.199,0.444-0.596,0.444h-1.485l-1.835-0.748h-0.304v0.748h-3.624v-0.444
				h-1.836v0.141h0.655v0.304h-1.251l-0.596-0.304v-0.141l0.596-0.479v-0.748h-0.596v-1.356l1.192-0.9
				c0-0.315-0.292-0.468-0.888-0.468l-0.304-0.151v-1.064l0.596-0.304h1.251l0.889,0.304h0.889l-0.292-0.151l-1.485-0.293
				l-0.655-0.899h-0.596v0.748h-0.596v-5.764l0.596-0.293h0.304l1.835,0.293v0.187l1.485-0.187h2.432
				c0-0.199-0.397-0.293-1.181-0.293v-0.292h-2.14l-0.596-0.304l0.292-0.62c-0.784,0-1.181-0.549-1.181-1.66l-0.362,0.176h-0.889
				l-0.596-0.327v-1.192h0.9h0.584c0.643,0,1.251,0.198,1.847,0.596h0.292l1.251,0.597l-0.655,0.771v0.151l0.655,0.293h0.292
				l1.485-0.152l0.304,0.748h0.292v-0.889c0.397,0,0.596-0.198,0.596-0.596l0.351-0.176h0.304l1.181,0.176v-0.176
				c0-0.198-0.608-0.397-1.835-0.596l-0.304-0.748v-0.176h0.655h0.888l3.028,1.075v-0.596c-1.029-0.362-1.543-0.818-1.543-1.368
				l0.958-0.596l0.292,0.151h1.777v0.293c0.959,0,1.766,0.257,2.444,0.748l0.584-0.444c-0.584,0-0.889-0.105-0.889-0.304v-0.912
				h1.847l0.584,0.292v0.771c-0.631,0-0.947,0.105-0.947,0.292c0.83,0,1.543,0.258,2.14,0.772v1.812l-2.14,1.192h1.543v-0.596h0.596
				v6.652c-0.397,0.409-0.889,0.619-1.485,0.619l0.596,0.304l0.889-0.151v4.209h-0.596c0-0.491-0.199-0.737-0.597-0.737
				l-1.835-0.443v0.151c0,0.152,0.608,0.304,1.835,0.444l0.304,0.771v0.141l-0.889,0.444H95.77l-1.789-0.771v0.187l1.485,0.889
				l-0.292,0.444h0.292c1.228,0,1.847-0.199,1.847-0.597H98.202z M97.605,102.949v-0.444l-1.836,0.152v0.292H97.605z
				 M97.009,110.222l0.304-0.62h-0.889l-0.362,0.62H97.009z M95.173,109.31v-0.597c-1.824,0.293-2.736,0.644-2.736,1.041v0.14h0.304
				C92.824,109.496,93.63,109.31,95.173,109.31z M94.881,105.533l-1.193,0.152v0.292C94.484,105.825,94.881,105.674,94.881,105.533z
				 M94.577,104.165v-0.292h-0.292l-1.848,0.736l-0.888-0.141v0.597h0.888C92.438,104.668,93.151,104.364,94.577,104.165z
				 M93.396,117.762v-0.292h-0.959v0.292H93.396z M91.853,107.789h1.239l-0.351-0.151v-0.141l-0.889,0.141V107.789z M92.146,107.193
				v-0.327c-0.596,0-0.889-0.141-0.889-0.444l-0.304-0.141h-0.889v0.141C90.064,106.585,90.754,106.843,92.146,107.193z
				 M90.661,115.95l0.292-0.736c-0.386-0.479-0.807-0.737-1.239-0.772v0.152l0.654,0.468v0.304c0,0.292-0.421,0.444-1.25,0.444
				v0.141H90.661z M88.521,106.129l-0.292-0.443l-1.192,0.596h0.888l0.304-0.152H88.521z M87.925,108.386
				c0-0.456,0.503-0.854,1.485-1.192c-2.209,0.105-3.32,0.257-3.32,0.444v0.151c0.83,0,1.251,0.199,1.251,0.597H87.925z
				 M87.925,114.734v-0.293l-1.543,0.468v0.152h0.655C87.037,114.851,87.34,114.734,87.925,114.734z M87.34,116.874v-0.293h-1.543
				l0.584,0.293H87.34z M86.382,111.262v-0.152h-0.292v0.305c-0.596,0-0.889,0.093-0.889,0.292h0.889L86.382,111.262z
				 M84.897,109.31l0.596-0.304h-0.596l-0.584,0.304H84.897z M84.312,115.365l0.584-0.304h-0.889v0.304H84.312z M84.604,117.762
				l-0.292-0.596l-1.251,0.304l0.655,0.444L84.604,117.762z M84.008,112.033l0.596-0.327h-0.888l-0.655,0.327H84.008z
				 M82.769,108.386h0.947c-0.397-0.362-1.006-0.608-1.847-0.748c0,0.397-0.199,0.596-0.585,0.596l-0.958-0.151l-0.292,0.151v0.479
				c0.631,0,0.947,0.152,0.947,0.444h0.304C81.284,108.643,81.775,108.386,82.769,108.386z"/>
			<polygon fill="#FFFFFF" points="98.202,99.781 98.202,101.289 97.605,101.289 97.605,100.997 97.313,99.921 97.605,99.781 			"/>
			<path fill="#FFFFFF" d="M98.202,80.572v18.905h-1.485l-1.543-0.468c0,0.409-0.397,0.619-1.192,0.619
				c0,0.597-0.199,0.889-0.584,0.889h-1.543l-0.9-0.292l-0.585,0.468l-0.958,0.596c-0.315,0-0.608,0.246-0.889,0.748h-0.596v0.141
				h-0.888v-0.141c-0.631,0-0.947-0.104-0.947-0.304h-0.596l-0.292,0.924l0.889,0.444v0.292l-1.485,0.152h-0.888l-1.251-0.597
				l0.888-0.444l-0.888-0.771h-0.292c-0.678,0.304-1.286,0.444-1.847,0.444v0.176h-0.584l-0.304-0.176v-0.141l0.304-0.456
				l-0.9-0.736V76.469l0.596-0.292h18.168l0.596,0.292v3.472l-0.596,0.328h-0.597c0-0.257-0.514-0.561-1.543-0.912v-0.304h-0.292
				l-0.292,0.152h-0.304l1.847,1.368l-1.543,0.596h0.292l2.736-0.748L98.202,80.572z M97.605,98.109l-0.292-0.771h-0.304
				l-0.584,0.771v0.151L97.605,98.109z M96.717,94.637l-0.655-0.912H95.77v1.356h0.655L96.717,94.637z M93.981,81.788v-0.327h-1.239
				l0.655,0.327H93.981z M93.981,98.413l-0.292-0.152c-0.994,0.491-2.092,0.749-3.32,0.749l0.585,0.315
				C92.742,99.033,93.747,98.729,93.981,98.413z M92.146,80.42l0.596-0.479h-2.374l-2.139,0.479v0.152l3.624,0.737l0.292,0.152
				h0.292l-0.292-0.748V80.42z M89.118,78.433v-0.152l-0.597-0.292h-0.292v0.292l0.292,0.152H89.118z M87.633,100.518v-0.152
				l-0.292-0.444h-0.655v0.597H87.633z M85.493,99.629V99.01h-0.596v0.315L85.493,99.629z M84.604,77.1l0.889-0.187l-0.596-0.292
				L84.312,77.1H84.604z M81.869,99.01v-0.749h-0.585v0.749H81.869z M80.98,100.226h0.889c0-0.258-0.807-0.456-2.432-0.597
				L80.98,100.226z M81.284,82.232v-0.152l-0.596-0.292h-0.362v0.292l0.655,0.304L81.284,82.232z"/>
			<path fill="#FFFFFF" d="M79.145,104.317c1.029,0.059,1.543,0.362,1.543,0.889c-0.83,0.222-1.251,0.479-1.251,0.771h-0.596v-1.368
				l0.304-0.141V104.317z"/>
		</g>
		<g>
		</g>
	</g>
	<path fill="#FFFFFF" d="M146.783,76.175h18.167l0.594,0.297v3.473l-0.594,0.327h-0.594c0-0.257-0.515-0.564-1.543-0.92v-0.297
		h-0.297l-0.297,0.148h-0.297l1.84,1.366l-1.543,0.593h0.297l2.731-0.742l0.297,0.148v18.909h-1.484l-1.543-0.475
		c0,0.415-0.396,0.623-1.188,0.623c0,0.594-0.199,0.891-0.594,0.891h-1.543l-0.891-0.297l-0.594,0.476l0.297,0.147h1.781v0.297
		c0.95,0,1.76,0.248,2.434,0.742l0.594-0.445c-0.594,0-0.891-0.099-0.891-0.297v-0.92h1.84l0.594,0.297v0.771
		c-0.634,0-0.95,0.1-0.95,0.297c0.831,0,1.543,0.257,2.137,0.772v1.811l-2.137,1.188h1.543v-0.594h0.594v6.649
		c-0.396,0.415-0.891,0.623-1.484,0.623l0.594,0.297l0.891-0.148v4.216h-0.594c0-0.495-0.199-0.742-0.594-0.742l-1.84-0.445v0.148
		c0,0.158,0.613,0.307,1.84,0.445l0.297,0.771v0.148l-0.891,0.445h-0.653l-1.781-0.771v0.178l1.484,0.891l-0.297,0.445h0.297
		c1.226,0,1.84-0.197,1.84-0.594h0.891v1.217l-0.594,0.297h-1.84l-0.891-0.297l-0.594,0.297h-2.137
		c-0.396,0-0.594-0.148-0.594-0.445h-1.84c0,0.297-0.199,0.445-0.594,0.445h-1.484l-1.84-0.742h-0.297v0.742h-3.622v-0.445h-1.84
		v0.148h0.653v0.297h-1.247l-0.594-0.297v-0.148l0.594-0.475v-0.742h-0.594v-1.365l1.188-0.891c0-0.316-0.297-0.476-0.891-0.476
		l-0.297-0.148v-1.068l0.594-0.297h1.247l0.891,0.297h0.891l-0.297-0.148l-1.484-0.297l-0.653-0.891h-0.594v0.742h-0.594v-5.759
		l0.594-0.297h0.297l1.84,0.297v0.178l1.484-0.178h2.434c0-0.197-0.396-0.297-1.188-0.297v-0.297h-2.137l-0.594-0.297l0.297-0.623
		c-0.792,0-1.188-0.554-1.188-1.662l-0.356,0.178h-0.891l-0.594-0.326v-1.188h0.891l-0.297-0.179v-0.148l0.297-0.445l-0.891-0.742
		V76.472L146.783,76.175z M146.783,76.175h18.167l0.594,0.297v3.473l-0.594,0.327h-0.594c0-0.257-0.515-0.564-1.543-0.92v-0.297
		h-0.297l-0.297,0.148h-0.297l1.84,1.366l-1.543,0.593h0.297l2.731-0.742l0.297,0.148v18.909h-1.484l-1.543-0.475
		c0,0.415-0.396,0.623-1.188,0.623c0,0.594-0.199,0.891-0.594,0.891h-1.543l-0.891-0.297l-0.594,0.476l0.297,0.147h1.781v0.297
		c0.95,0,1.76,0.248,2.434,0.742l0.594-0.445c-0.594,0-0.891-0.099-0.891-0.297v-0.92h1.84l0.594,0.297v0.771
		c-0.634,0-0.95,0.1-0.95,0.297c0.831,0,1.543,0.257,2.137,0.772v1.811l-2.137,1.188h1.543v-0.594h0.594v6.649
		c-0.396,0.415-0.891,0.623-1.484,0.623l0.594,0.297l0.891-0.148v4.216h-0.594c0-0.495-0.199-0.742-0.594-0.742l-1.84-0.445v0.148
		c0,0.158,0.613,0.307,1.84,0.445l0.297,0.771v0.148l-0.891,0.445h-0.653l-1.781-0.771v0.178l1.484,0.891l-0.297,0.445h0.297
		c1.226,0,1.84-0.197,1.84-0.594h0.891v1.217l-0.594,0.297h-1.84l-0.891-0.297l-0.594,0.297h-2.137
		c-0.396,0-0.594-0.148-0.594-0.445h-1.84c0,0.297-0.199,0.445-0.594,0.445h-1.484l-1.84-0.742h-0.297v0.742h-3.622v-0.445h-1.84
		v0.148h0.653v0.297h-1.247l-0.594-0.297v-0.148l0.594-0.475v-0.742h-0.594v-1.365l1.188-0.891c0-0.316-0.297-0.476-0.891-0.476
		l-0.297-0.148v-1.068l0.594-0.297h1.247l0.891,0.297h0.891l-0.297-0.148l-1.484-0.297l-0.653-0.891h-0.594v0.742h-0.594v-5.759
		l0.594-0.297h0.297l1.84,0.297v0.178l1.484-0.178h2.434c0-0.197-0.396-0.297-1.188-0.297v-0.297h-2.137l-0.594-0.297l0.297-0.623
		c-0.792,0-1.188-0.554-1.188-1.662l-0.356,0.178h-0.891l-0.594-0.326v-1.188h0.891l-0.297-0.179v-0.148l0.297-0.445l-0.891-0.742
		V76.472L146.783,76.175z M146.486,104.316c1.029,0.06,1.543,0.356,1.543,0.891c-0.831,0.218-1.247,0.475-1.247,0.771h-0.594v-1.365
		l0.297-0.148V104.316z M146.486,104.316c1.029,0.06,1.543,0.356,1.543,0.891c-0.831,0.218-1.247,0.475-1.247,0.771h-0.594v-1.365
		l0.297-0.148V104.316z M146.783,99.626l1.543,0.594h0.891C149.217,99.963,148.406,99.765,146.783,99.626z M146.783,99.626
		l1.543,0.594h0.891C149.217,99.963,148.406,99.765,146.783,99.626z M149.217,107.641c0,0.396-0.199,0.594-0.594,0.594l-0.95-0.148
		l-0.297,0.148v0.476c0.632,0,0.95,0.148,0.95,0.445h0.297c0-0.516,0.495-0.772,1.484-0.772h0.95
		C150.662,108.027,150.048,107.779,149.217,107.641z M149.217,107.641c0,0.396-0.199,0.594-0.594,0.594l-0.95-0.148l-0.297,0.148
		v0.476c0.632,0,0.95,0.148,0.95,0.445h0.297c0-0.516,0.495-0.772,1.484-0.772h0.95
		C150.662,108.027,150.048,107.779,149.217,107.641z M147.674,81.786v0.297l0.653,0.297l0.297-0.148v-0.148l-0.594-0.297H147.674z
		 M147.674,81.786v0.297l0.653,0.297l0.297-0.148v-0.148l-0.594-0.297H147.674z M147.674,102.179v0.179
		c0.632,0,1.247,0.197,1.84,0.594h0.297l0.891-0.445l-0.891-0.772h-0.297C148.841,102.03,148.228,102.179,147.674,102.179z
		 M147.674,102.179v0.179c0.632,0,1.247,0.197,1.84,0.594h0.297l0.891-0.445l-0.891-0.772h-0.297
		C148.841,102.03,148.228,102.179,147.674,102.179z M148.624,98.261v0.742h0.594v-0.742H148.624z M148.624,98.261v0.742h0.594
		v-0.742H148.624z M152.839,101.733l-0.297,0.921l0.891,0.445v0.297l-1.484,0.148h-0.891l-0.653,0.771v0.148l0.653,0.297h0.297
		l1.484-0.148l0.297,0.742h0.297v-0.891c0.395,0,0.594-0.197,0.594-0.594l0.356-0.178h0.297l1.188,0.178v-0.178
		c0-0.198-0.614-0.396-1.84-0.594l-0.297-0.742v-0.179h0.653v-0.148c-0.633,0-0.95-0.099-0.95-0.297H152.839z M152.839,101.733
		l-0.297,0.921l0.891,0.445v0.297l-1.484,0.148h-0.891l-0.653,0.771v0.148l0.653,0.297h0.297l1.484-0.148l0.297,0.742h0.297v-0.891
		c0.395,0,0.594-0.197,0.594-0.594l0.356-0.178h0.297l1.188,0.178v-0.178c0-0.198-0.614-0.396-1.84-0.594l-0.297-0.742v-0.179h0.653
		v-0.148c-0.633,0-0.95-0.099-0.95-0.297H152.839z M150.405,112.034h0.95l0.594-0.326h-0.891L150.405,112.034z M150.405,112.034
		h0.95l0.594-0.326h-0.891L150.405,112.034z M150.405,117.467l0.653,0.445l0.891-0.148l-0.297-0.594L150.405,117.467z
		 M150.405,117.467l0.653,0.445l0.891-0.148l-0.297-0.594L150.405,117.467z M151.354,115.062v0.297h0.297l0.594-0.297H151.354z
		 M151.354,115.062v0.297h0.297l0.594-0.297H151.354z M152.245,76.621l-0.594,0.475h0.297l0.891-0.178L152.245,76.621z
		 M152.245,76.621l-0.594,0.475h0.297l0.891-0.178L152.245,76.621z M151.651,109.304h0.594l0.594-0.297h-0.594L151.651,109.304z
		 M151.651,109.304h0.594l0.594-0.297h-0.594L151.651,109.304z M152.245,99.003v0.326l0.594,0.297v-0.623H152.245z M152.245,99.003
		v0.326l0.594,0.297v-0.623H152.245z M153.433,111.114v0.297c-0.594,0-0.891,0.1-0.891,0.297h0.891l0.297-0.445v-0.148H153.433z
		 M153.433,111.114v0.297c-0.594,0-0.891,0.1-0.891,0.297h0.891l0.297-0.445v-0.148H153.433z M153.136,116.576l0.594,0.297h0.95
		v-0.297H153.136z M153.136,116.576l0.594,0.297h0.95v-0.297H153.136z M153.433,107.641v0.148c0.831,0,1.247,0.198,1.247,0.594
		h0.594c0-0.455,0.495-0.851,1.484-1.188C154.54,107.295,153.433,107.443,153.433,107.641z M153.433,107.641v0.148
		c0.831,0,1.247,0.198,1.247,0.594h0.594c0-0.455,0.495-0.851,1.484-1.188C154.54,107.295,153.433,107.443,153.433,107.641z
		 M153.729,114.914v0.148h0.653c0-0.219,0.297-0.327,0.891-0.327v-0.297L153.729,114.914z M153.729,114.914v0.148h0.653
		c0-0.219,0.297-0.327,0.891-0.327v-0.297L153.729,114.914z M154.026,99.923v0.594h0.95v-0.148l-0.297-0.445H154.026z
		 M154.026,99.923v0.594h0.95v-0.148l-0.297-0.445H154.026z M154.382,106.275h0.891l0.297-0.148h0.297l-0.297-0.445L154.382,106.275
		z M154.382,106.275h0.891l0.297-0.148h0.297l-0.297-0.445L154.382,106.275z M155.273,102.03v0.148l3.028,1.069v-0.594
		c-1.03-0.356-1.543-0.812-1.543-1.366c-0.317,0-0.614,0.248-0.891,0.742H155.273z M155.273,102.03v0.148l3.028,1.069v-0.594
		c-1.03-0.356-1.543-0.812-1.543-1.366c-0.317,0-0.614,0.248-0.891,0.742H155.273z M155.57,77.986v0.296l0.297,0.148h0.594v-0.148
		l-0.594-0.296H155.57z M155.57,77.986v0.296l0.297,0.148h0.594v-0.148l-0.594-0.296H155.57z M155.57,80.42v0.148l3.622,0.742
		l0.297,0.148h0.297l-0.297-0.742V80.42l0.594-0.475h-2.375L155.57,80.42z M155.57,80.42v0.148l3.622,0.742l0.297,0.148h0.297
		l-0.297-0.742V80.42l0.594-0.475h-2.375L155.57,80.42z M157.054,114.438v0.148l0.653,0.476v0.297c0,0.297-0.416,0.445-1.247,0.445
		v0.148h1.543l0.297-0.742C157.905,114.735,157.489,114.479,157.054,114.438z M157.054,114.438v0.148l0.653,0.476v0.297
		c0,0.297-0.416,0.445-1.247,0.445v0.148h1.543l0.297-0.742C157.905,114.735,157.489,114.479,157.054,114.438z M157.41,106.275
		v0.148c0,0.159,0.692,0.416,2.078,0.771v-0.326c-0.594,0-0.891-0.148-0.891-0.445l-0.297-0.148H157.41z M157.41,106.275v0.148
		c0,0.159,0.692,0.416,2.078,0.771v-0.326c-0.594,0-0.891-0.148-0.891-0.445l-0.297-0.148H157.41z M157.707,99.003l0.594,0.326
		c1.781-0.297,2.791-0.604,3.028-0.92l-0.297-0.148C160.042,98.755,158.934,99.003,157.707,99.003z M157.707,99.003l0.594,0.326
		c1.781-0.297,2.791-0.604,3.028-0.92l-0.297-0.148C160.042,98.755,158.934,99.003,157.707,99.003z M159.785,104.613l-0.891-0.148
		v0.594h0.891c0-0.396,0.712-0.693,2.137-0.891v-0.297h-0.297L159.785,104.613z M159.785,104.613l-0.891-0.148v0.594h0.891
		c0-0.396,0.712-0.693,2.137-0.891v-0.297h-0.297L159.785,104.613z M159.191,107.641v0.148h1.247l-0.356-0.148v-0.148
		L159.191,107.641z M159.191,107.641v0.148h1.247l-0.356-0.148v-0.148L159.191,107.641z M159.785,109.749v0.148h0.297
		c0.079-0.396,0.891-0.594,2.434-0.594v-0.594C160.695,109.007,159.785,109.353,159.785,109.749z M159.785,109.749v0.148h0.297
		c0.079-0.396,0.891-0.594,2.434-0.594v-0.594C160.695,109.007,159.785,109.353,159.785,109.749z M159.785,117.467v0.297h0.95
		v-0.297H159.785z M159.785,117.467v0.297h0.95v-0.297H159.785z M160.082,81.459l0.653,0.327h0.594v-0.327H160.082z M160.082,81.459
		l0.653,0.327h0.594v-0.327H160.082z M161.032,105.682v0.297c0.792-0.158,1.188-0.307,1.188-0.445L161.032,105.682z
		 M161.032,105.682v0.297c0.792-0.158,1.188-0.307,1.188-0.445L161.032,105.682z M163.11,93.719v1.365h0.653l0.297-0.444
		l-0.653-0.921H163.11z M163.11,93.719v1.365h0.653l0.297-0.444l-0.653-0.921H163.11z M163.11,102.654v0.297h1.84v-0.445
		L163.11,102.654z M163.11,102.654v0.297h1.84v-0.445L163.11,102.654z M163.763,109.601l-0.356,0.623h0.95l0.297-0.623H163.763z
		 M163.763,109.601l-0.356,0.623h0.95l0.297-0.623H163.763z M164.356,97.341l-0.594,0.771v0.148l1.188-0.148l-0.297-0.771H164.356z
		 M164.356,97.341l-0.594,0.771v0.148l1.188-0.148l-0.297-0.771H164.356z M165.544,99.774v1.514h-0.594v-0.297l-0.297-1.068
		l0.297-0.148H165.544z M165.544,99.774v1.514h-0.594v-0.297l-0.297-1.068l0.297-0.148H165.544z"/>
	<path fill="#FFFFFF" d="M179.299,76.264h10.271l0.594,0.297v4.067h-0.594c0-0.594-0.199-0.891-0.594-0.891l-0.594,0.297v0.297
		c0,0.198,0.594,0.405,1.781,0.624v4.661l-2.078-0.148h-0.297v0.148l2.375,0.475V87.9h-0.891v0.297c0.594,0,0.891,0.1,0.891,0.297
		v7.243c-0.792,0-1.188,0.356-1.188,1.068l0.297,0.148l-0.891,0.297h-0.891c-0.396,0-0.594-0.257-0.594-0.771h-0.356
		c0,0.515-0.297,0.771-0.891,0.771h-1.484l-0.594-0.297v-0.623c0.594,0,0.891-0.1,0.891-0.297l-0.297-0.742l-0.297,0.148h-0.297
		l0.297,0.148v0.445l-0.653,0.297h-0.891c-0.99-0.178-1.484-0.623-1.484-1.336v-0.178l0.891-0.148l-0.594-0.891
		c0.792,0,1.188-0.257,1.188-0.771h2.434v-0.594h1.781l0.356-0.148h0.297c0-0.297-0.416-0.445-1.247-0.445l-0.297-0.921
		l-0.297,0.148h-0.297l0.297,0.148v0.327l-0.891,0.445l-1.247,0.148v0.445l-0.297-0.148h-0.594l-0.594,0.92l-1.188-0.326v0.326
		h-3.028V92.71l0.297-0.742c-0.594,0-0.89-0.1-0.89-0.297v-0.624l0.89-0.148c0.356,0.713,1.167,1.069,2.434,1.069v-0.148
		c-1.03-0.297-1.543-0.653-1.543-1.069l0.594-0.296l0.297,0.148h1.543v-0.891c0-0.219,0.297-0.327,0.891-0.327v-0.297
		c-1.188,0-1.781-0.297-1.781-0.891l-0.296,0.148h-0.356l-2.671-0.297l-0.297,0.148V87.9c0.593,0,0.89-0.108,0.89-0.326v-0.445
		h-0.593v0.297l-1.544-0.148h-0.594v0.148h0.594v0.297l-1.188,0.178v-0.771h0.891v-0.594l-0.297-0.148v-0.148
		c0.792-0.178,1.188-0.485,1.188-0.92h0.95l0.89,0.445l-0.594,0.326l0.594,0.891h0.594v-0.594h0.297l0.594,0.297l-0.297,0.148v0.148
		h0.594l1.84-0.297v-0.297c-1.148,0-2.455-0.356-3.918-1.068v-1.217h-0.593c0,0.237-0.416,0.544-1.247,0.92l-0.297-0.148h-1.484
		l0.593,1.039c0,0.316-0.812,0.723-2.434,1.217v0.148h-1.187V86.09l0.593-1.068h-0.593v-0.594h0.593v0.445
		c1.504,0,2.315-0.198,2.435-0.594v-0.178H173.6v0.327c-1.624-0.1-2.435-0.456-2.435-1.069l1.188-0.445h1.84l-0.296,0.742v0.297
		h0.296c0.039-0.396,0.238-0.594,0.594-0.594l-0.594-1.365l0.594-0.297v-0.148c-0.594,0-0.89-0.1-0.89-0.297L173.6,81.4h-0.297
		l-0.95-0.445v-0.148c1.029,0,1.544-0.208,1.544-0.624l-0.297-0.148l0.297-0.148l0.296,0.148h0.891l1.544-0.148l0.297,0.92h0.296
		c0.673-0.316,1.267-0.475,1.781-0.475v-0.297l-1.188-0.148l0.891-1.365c-0.515,0-0.911-0.297-1.188-0.891l0.594-0.445l1.484,0.297
		l0.356-0.148l-0.653-0.92V76.264z M175.381,76.264v0.445h0.297c0-0.237,0.416-0.386,1.247-0.445l0.593,0.445v0.297
		c-0.593,0-0.89,0.159-0.89,0.475l-1.247,0.297l-1.188-0.148c-0.396,0.456-0.792,0.702-1.187,0.742l-0.297-0.148h-0.356
		l-0.891,0.594l1.841,0.178v1.039c-0.832,0-1.247,0.148-1.247,0.445h-1.187v-1.662l0.296-1.336l-0.296-1.069l0.296-0.148H175.381z
		 M170.869,87.723h0.593l0.297,0.771l-0.297,1.039l-0.593-0.297V87.723z M173.897,88.197c0.435,0,1.028,0.505,1.781,1.515h0.297
		l0.356-0.772c-0.634,0-0.95-0.099-0.95-0.297l1.544-0.148l1.484,0.445h0.297v0.445l-0.594,0.327h-1.484
		c0,0.455-0.317,0.801-0.95,1.038h0.297l-0.297,0.148v0.148l0.653,0.921l-0.95,0.297l-0.891-0.445h-0.297l-0.593,0.297
		c0,0.771,0.692,1.228,2.078,1.365v0.148l0.297-0.148h0.356l0.594,0.297v1.039c-1.03,0-1.544,0.108-1.544,0.326v0.148
		c0.356,0.396,1.069,0.594,2.137,0.594c0-0.594,0.198-0.891,0.594-0.891v0.148l0.891-0.148v-0.178c0-0.197-0.297-0.297-0.891-0.297
		l-0.297-0.148v-0.445l0.594-0.445c1.623,0,2.434,0.346,2.434,1.039c-0.396,0-0.594,0.257-0.594,0.771h-0.653v0.445
		c2.651,0.931,3.978,1.484,3.978,1.662c0,0.198,0.495,0.297,1.484,0.297l0.297,0.148v0.772l-0.297,0.742h0.297l1.543-0.297
		l0.297,0.148v-0.297c0-0.198-0.416-0.297-1.247-0.297c0-0.219,0.514-0.327,1.543-0.327v-0.148l1.781,0.327V98.29l0.297-0.594h0.594
		v3.474l-0.297,1.068l0.297,1.336v9.974c0,0.356-0.396,0.762-1.188,1.218v0.297l0.297-0.148h0.891v0.148l-0.297,0.148l0.297,0.742
		v1.959l-1.781,0.92h-1.484l-0.95-0.297l0.297-0.148v-0.475l-1.781,0.326v0.297h-1.84v-0.623l1.247-0.297h0.297v-0.148l-0.594-0.297
		h-0.356c0,0.257-0.594,0.563-1.781,0.92l-1.84-0.178c0.237-0.693,0.554-1.039,0.95-1.039h1.484c0-0.297,0.514-0.445,1.543-0.445
		l1.188-0.92v-0.148h-1.188v-0.891h1.188l1.781,0.742h0.653v-0.148c-1.03,0-1.543-0.308-1.543-0.921v-0.148
		c0.831,0,1.444-0.247,1.84-0.742h0.297v0.297h0.594v-0.445l-0.594-1.217h-0.594l-0.95,0.921l0.653,0.296l-3.325,1.188l-0.95-0.148
		v0.148c0,0.456-0.792,0.762-2.375,0.921c-0.436-0.456-1.049-0.702-1.84-0.742v-0.476l0.594-0.297h0.297l1.543,0.148l-0.297-0.148
		v-0.148l0.594-0.89h-1.543l0.356,0.148v0.296h-0.95l-0.594-0.623v-0.148h-0.297c0,0.713-0.199,1.068-0.594,1.068h-0.593
		l-0.95-0.148v0.148l-0.594,0.891l-0.297-0.148h-0.297l-0.594,0.327c1.425,0,2.138,0.197,2.138,0.594l0.297,0.742l-2.435,0.148
		l0.297,0.148v1.068c1.227,0,1.841,0.1,1.841,0.297v0.92h-1.841c-0.356,0-0.653-0.307-0.89-0.92c-1.425,0-2.138-0.1-2.138-0.297
		v-1.068h0.594v-0.148c-0.792,0-1.187-0.1-1.187-0.297v-2.701l2.137-0.921h-2.137v-0.148l0.593-0.445v-0.445l-0.593-0.475v-8.905
		c0-0.197,0.296-0.297,0.89-0.297v-0.148c-0.594,0-0.89-0.1-0.89-0.297v-3.325l0.593-0.297h0.297l0.297,0.148h0.297v-0.148
		l-1.484-0.771v-5.877h0.593l0.594,0.296h-0.297l0.297,0.476h0.653v-0.771c0-0.198,0.594-0.297,1.781-0.297v-0.148l-2.137-0.297
		v-0.327l0.356-0.148v-0.148l-0.356-0.148C173.104,88.91,173.619,88.613,173.897,88.197z M171.462,118.238l0.297,0.148v0.148
		l-0.594,0.297l-0.296-0.148v-0.148L171.462,118.238z M172.353,107.522v0.297h0.653l-0.297,0.148v0.148l0.297,0.445h-0.297
		l-0.95,0.148v0.148h0.95c0.712-0.693,2.019-1.039,3.918-1.039v-0.297l-2.731,0.297l-0.594-0.297H172.353z M172.353,92.71
		l-0.297,0.475l0.297,0.148h0.356l0.594-0.475l-0.297-0.148H172.353z M175.084,98.469h0.891v0.148l-1.484,0.148v0.297h0.594v0.594
		l0.297,0.771l-1.781,0.297v-0.148l-1.544,0.148v0.148l0.297,0.148v0.148l3.028-0.297v0.297h0.594v-1.068h1.543l-0.297-0.594
		l0.297-0.445h2.078l0.95,0.445l-0.297,0.148v0.297l0.594,0.326v-0.475h0.594l1.188,0.623v0.148l-0.297,0.148l0.297,0.148v0.148
		l-0.297,0.742h0.594l0.297-1.188l0.356,0.148h0.594v-0.148c-0.396,0-0.594-0.257-0.594-0.771c-1.03-0.06-1.543-0.208-1.543-0.445
		l1.188-1.218h-0.891v0.327h-0.891l-0.297-0.179h-0.297l0.297-0.742v-0.148h-0.594l-0.297,0.891l-0.296-0.148h-0.356l-0.297,0.476
		h-2.078v0.594h-1.247v-0.297h0.653v-0.148l-0.297-0.476h0.297c0.475,0,0.87-0.346,1.187-1.039h-1.187L175.084,98.469z
		 M173.006,114.766c0,0.297-0.317,0.445-0.95,0.445l0.653,0.297l-0.356,0.148v0.297h1.544v-0.148
		c-0.396-0.219-0.594-0.564-0.594-1.039H173.006z M172.709,102.09v0.297l0.891,0.148l0.297-0.148v-0.771H173.6L172.709,102.09z
		 M173.303,94.817l-0.297,0.178v0.445l0.891-0.445l-0.297-0.178H173.303z M173.303,105.712l-0.297,0.148v0.148h0.297v-0.148
		l0.297,0.148h0.593v-0.148L173.303,105.712z M173.6,111.886v0.148l0.593,0.297h0.297v-0.297l-0.297-0.148H173.6z M173.897,103.9
		v0.297l0.89,0.445l1.544-0.297v-0.148l-0.653-0.297l-1.484,0.148L173.897,103.9z M173.897,110.075v0.594l1.484-0.891l-0.297-0.148
		L173.897,110.075z M174.49,106.009v0.148l0.891,0.445v-0.148L174.49,106.009z M174.49,111.44l0.594,0.297l0.891-0.148v-0.148
		H174.49z M174.49,112.807v0.148l0.594,0.296l0.594-0.296L174.49,112.807z M175.975,81.548v0.297h0.356l1.484-0.148v-0.445
		L175.975,81.548z M177.815,100.428c0,0.494-0.199,0.742-0.594,0.742l-0.89-0.148c0.395,0.237,0.594,0.594,0.594,1.068h0.593
		c0.356,0,0.653-0.257,0.891-0.771l-0.297-0.148l1.188-0.297v0.297h0.297v-0.594L177.815,100.428z M177.221,106.751v0.147h1.188
		v-0.296h-0.297L177.221,106.751z M178.409,115.508v0.771l-0.594,0.297l-0.594-0.92l0.297-0.148H178.409z M178.112,81.697v0.445
		h0.594v-0.445H178.112z M180.546,82.914v0.445h0.594v-0.445H180.546z M180.843,81.251V81.4h0.594l0.297-0.445h-0.297
		L180.843,81.251z M181.14,82.291v0.148h0.594l0.594-0.297l-0.297-0.148h-0.297L181.14,82.291z M181.437,78.817h0.297l0.891-0.445
		h-0.297L181.437,78.817z M181.437,104.197v0.297h1.188l0.95-0.445V103.9h-0.356L181.437,104.197z M183.871,79.144v0.742h-0.297
		l-0.653-0.297l0.297-0.148h-0.891v0.891h-0.594v0.297h0.594c0-0.356,0.91-0.554,2.731-0.594c0.475-0.396,0.969-0.594,1.484-0.594
		v-0.297H183.871z M185.949,89.712c0,0.515-0.297,0.812-0.891,0.891l-1.188-0.148l-2.137,0.148v0.444l4.215-0.444l0.594-0.297
		v-0.297L185.949,89.712z M185.652,84.576h-1.781l-0.653-0.297l-0.891,0.148v0.594l1.543,0.148l0.297-0.148l3.028,0.445v-0.148
		c0-0.198-0.317-0.297-0.95-0.297v-0.148l1.247-0.594h1.781l0.297-0.475l-0.297-0.148h-0.594L185.652,84.576z M183.574,77.333
		l-0.653,0.594h0.653l0.594-0.297L183.574,77.333z M183.218,86.684l-0.297,0.148v0.148l0.95,0.445l0.297-0.148h0.594
		c0.989,0,1.484,0.208,1.484,0.623h0.95v-0.178C186.364,87.288,185.038,86.94,183.218,86.684z M183.218,106.009v0.297l1.84,0.148
		v0.148c0,0.336-0.297,0.692-0.891,1.068v0.148h0.594c0.395,0,0.594-0.208,0.594-0.624l1.84-0.148v-0.741L183.218,106.009z
		 M183.574,102.98v0.445h0.297l0.891-0.148v-0.297H183.574z M184.167,87.9v0.297c0.395,0,0.594,0.198,0.594,0.594h0.594
		l-0.891-0.742V87.9H184.167z M185.355,81.548l0.297,0.742h-0.594v0.475h0.297l2.731-0.623h0.297v-0.148l-1.484-0.148h-0.95v-0.297
		H185.355z M185.058,93.63v0.148l0.297,0.445h1.188v-0.297l-1.188-0.297H185.058z M185.355,88.939v0.445h0.594l-0.297-0.445H185.355
		z M185.652,101.467v0.148l0.594,0.297v-0.445H185.652z M186.246,104.939l-0.297,0.624h0.594v-0.624H186.246z M187.492,110.372
		c0,0.515-0.515,0.771-1.543,0.771v0.148l2.434,0.148v-0.92L187.492,110.372z M186.542,103.426v0.148l0.356,1.068h0.891
		c0-0.494,0.495-0.742,1.484-0.742c-0.119-0.396-0.712-0.702-1.781-0.92L186.542,103.426z M187.195,100.576v0.594
		c0.276,0,0.573-0.197,0.891-0.594H187.195z M187.492,77.63c0.395,0.791,0.792,1.188,1.188,1.188l0.891-0.445
		c-0.396,0-0.594-0.248-0.594-0.742l-0.297-0.148h-0.297L187.492,77.63z M187.492,87.9h1.188l-0.594-0.326L187.492,87.9z
		 M187.492,117.021v0.148h0.297c1.188-0.1,1.781-0.248,1.781-0.445v-0.148h-1.188L187.492,117.021z M187.789,93.333l0.594,0.297
		h0.594v-0.148l-0.297-0.475h-0.297L187.789,93.333z M188.383,107.522l-0.297,0.148v0.445c0.594,0,0.891,0.197,0.891,0.594h0.891
		c-0.792-0.456-1.188-0.802-1.188-1.039h0.594v-0.148H188.383z M192.973,76.264h7.243l0.593,0.297l-0.593,0.297v0.475h0.296
		c0.594,0,0.891-0.356,0.891-1.069h5.106l0.297,0.148l0.356-0.148h3.918c0.119,0.495,0.416,0.742,0.891,0.742l0.297-0.148h0.297
		l-0.297-0.148v-0.445h7.54v0.445l0.297-0.148l0.297,0.148h0.593v-0.148l-0.296-0.148v-0.148h10.864l0.653,0.297v7.243l-0.653,0.297
		h-7.837v-0.445c-0.396,0-0.593,0.148-0.593,0.445h-17.217l-0.891-0.297l-0.891,0.297h-11.161l-0.653-0.297v-1.188l0.297-0.178
		l-0.297-0.148V77.63h0.653v-0.445h-0.653v-0.624L192.973,76.264z M192.616,92.413c1.266,0,2.176,0.455,2.731,1.365l-0.297,0.148
		h0.594l0.297-0.148l0.297,0.148h0.356l0.89-0.445l-1.543-0.771v-0.297h0.297l0.356,0.148h0.297l0.297-0.148l1.484,0.148h2.434
		l1.484-0.148v0.148l0.297-0.148h0.95l0.891,0.148l1.484-0.148h5.165l2.375,0.297l0.653-0.297h0.297l0.297,0.148l0.297-0.148h12.052
		l0.594,0.297v0.148h-0.297l-1.484-0.148l-0.297,0.148v0.148l2.434,0.326l0.297-0.475h0.594v2.73
		c-1.465-0.099-2.574-0.356-3.325-0.771h-1.841v-0.297h-1.781c0-0.396-0.416-0.594-1.247-0.594v0.148
		c0.475,0.91,0.989,1.365,1.544,1.365c0.594,0,0.891,0.148,0.891,0.445l0.296,0.148h0.297c0-0.396,0.316-0.594,0.95-0.594
		l0.891-0.297l1.781,0.594h0.653l0.297-0.148h0.297l0.297,1.039v1.989l-0.297,0.148l0.297,0.148v0.148l-0.297,1.039l-2.137-0.148
		l-0.594,0.326h-0.594v-0.178l-2.137,0.178h-3.622l-0.297-0.178l-0.297,0.178h-2.137l-0.297-0.178l-0.297,0.178h-1.781l-1.247-0.178
		l-1.188,0.178h-2.137l-0.594-0.326l-2.375,0.326h-7.896c-0.396,0-0.792-0.308-1.188-0.92h-0.297l-0.593,0.445l-0.95-0.148v0.148
		c0,0.315-0.496,0.475-1.484,0.475h-1.781v-0.326h1.484v-0.148l-0.296-0.148l0.296-0.445h0.297l0.297,0.148h0.297l0.297-0.148
		v-0.742c0-0.219-0.297-0.327-0.891-0.327l-0.297,0.148h-0.296l-0.891-0.148l0.297,0.148l-0.297,0.179v0.148l0.297,0.445
		l-0.594,0.742h-0.653v-1.812l0.297-0.148l-0.297-0.148v-3.176h0.297c0.435,0,0.751,0.405,0.95,1.217h0.297
		c0-0.613,0.197-1.02,0.593-1.217v-0.148l-1.84-0.891v-0.475l0.356-0.148l-0.356-0.148V92.413z M194.753,80.479l-0.297,0.148v0.178
		l0.297,0.148h0.297l0.297-0.148l0.891,0.594v0.891h0.356l0.89-0.148v-0.148C196.93,81.34,196.02,80.836,194.753,80.479z
		 M195.05,78.224l0.891,0.297l0.297-0.445l-0.297-0.148h-0.297L195.05,78.224z M195.644,82.439v0.326h0.594l0.653-0.326H195.644z
		 M195.644,97.845v0.148h0.297l1.543-0.148v-0.297h-0.296L195.644,97.845z M195.941,95.737v0.297h0.653
		c0,0.197,0.297,0.297,0.89,0.297v1.068h0.594l0.297-0.771C197.227,96.034,196.416,95.737,195.941,95.737z M197.484,94.224
		c0,0.554,0.495,0.96,1.484,1.217l1.543-1.068v-0.148h-0.296c0,0.197-0.416,0.297-1.247,0.297v0.297h-0.297v-0.297l-0.594-0.297
		H197.484z M197.781,83.062v0.594h0.297l0.297-0.445l-0.297-0.148H197.781z M198.672,79.44v0.594l0.594-0.297V79.44H198.672z
		 M201.106,96.954l0.594,0.445l-1.484,0.297c0,0.159,0.395,0.308,1.187,0.445c0-0.158,0.495-0.307,1.484-0.445l0.297,0.148
		l-0.297-0.594l-0.297,0.148h-0.594v-0.445H201.106z M202.293,93.007v0.178l0.891-0.178V92.71h-0.297L202.293,93.007z
		 M202.293,95.144v0.148l0.297,0.445h0.297l0.653-0.297L202.293,95.144z M203.184,93.927v0.445h0.653v-0.148L203.184,93.927z
		 M203.54,92.858v0.326h0.297l0.891-0.178V92.71h-0.297L203.54,92.858z M204.728,82.142v0.297h0.594l0.594-0.297H204.728z
		 M205.321,78.817l-0.297,0.623h0.594l0.594-0.297L205.321,78.817z M209.537,99.211v0.445h0.297l0.95-0.148v-0.148L209.537,99.211z
		 M211.971,82.439l-0.594,0.92h0.297l0.891-0.445v-0.475H211.971z M211.971,94.817v0.326h1.484v-0.326l-0.297,0.178h-0.297
		L211.971,94.817z M213.752,97.251v0.594l0.95,0.148l0.594-0.891L213.752,97.251z M215.592,93.333c0.594,0,1.306,0.197,2.137,0.594
		c0-0.297,0.297-0.445,0.891-0.445c0,0.159,0.692,0.405,2.078,0.742v-0.297c-0.95,0-1.841-0.308-2.672-0.92h-1.84L215.592,93.333z
		 M216.186,83.359v0.297l0.594,0.297v-0.594H216.186z M216.483,80.183h0.891v-0.445L216.483,80.183z M217.374,97.696v0.297
		l0.95,1.069h0.297v-0.921c-0.396,0-0.594-0.148-0.594-0.445H217.374z M218.026,99.211c0,0.297-0.218,0.445-0.653,0.445v0.297
		l1.247-0.297v-0.445H218.026z M220.104,78.372c0,0.416-0.594,0.623-1.781,0.623l-0.297-0.178l-0.297,0.623h1.781l0.891-0.92v-0.148
		H220.104z M218.026,95.44l0.297,0.594h0.594l0.594-0.297l-0.594-0.297H218.026z M218.323,96.331v0.623h0.297v-0.623H218.323z
		 M224.022,96.628l0.297,0.771l0.95-0.445l-0.653-0.326H224.022z"/>
	<path fill="#FFFFFF" d="M250.008,75.938v0.326c-0.396,0-0.594,0.198-0.594,0.594l-0.356,0.178h-0.297l-1.187-0.178v0.178
		c0,0.198,0.613,0.396,1.84,0.594l0.297,0.742v0.178h-0.653v0.148c0.633,0,0.95,0.099,0.95,0.296h0.594l0.296-0.92l-0.89-0.445
		v-0.297l1.484-0.148h0.891l0.653-0.772v-0.148l-0.653-0.296h-0.297l-1.484,0.148l-0.06-0.178h4.69
		c0.119,0.277,0.178,0.643,0.178,1.098l0.356-0.178h0.891l0.593,0.327v1.188h-0.89l0.297,0.178v0.148l-0.297,0.445l0.89,0.742
		v24.401c0.119,1.999,1.86,3.453,5.225,4.363v0.148l-0.297,0.148h-0.356l-0.297-0.148v0.297h2.434v0.297l3.265-0.148h0.712v6.056
		h-0.119l-0.297-0.148H265.8l-0.356,0.148l-0.297-0.148v0.297l2.375,0.148v0.297l-0.297,0.148l0.712,0.386v2.256
		c-0.515,0.04-1.445,0.069-2.79,0.089c-0.594,0-0.891-0.148-0.891-0.445h-0.297l-0.297,0.445c-2.494,0-5.086-0.207-7.777-0.623
		c-9.658-1.801-15.654-6.096-17.989-12.883V81.251h1.484l1.544,0.475c0-0.416,0.395-0.624,1.187-0.624
		c0-0.594,0.198-0.891,0.594-0.891h1.544l0.89,0.297l0.594-0.475l-0.297-0.148h-1.781v-0.297c-0.95,0-1.762-0.248-2.434-0.742
		l-0.594,0.445c0.594,0,0.891,0.1,0.891,0.297v0.92h-1.841l-0.594-0.297V79.44c0.633,0,0.95-0.099,0.95-0.297
		c-0.831,0-1.543-0.257-2.137-0.771v-1.811l1.128-0.623h4.512c-0.278,0.257-0.95,0.464-2.019,0.623v0.297h0.297l1.84-0.742
		l0.891,0.148v-0.326H250.008z M237.897,80.955V79.44h0.594v0.297l0.296,1.069l-0.296,0.148H237.897z M240.331,78.075v-0.297h-1.84
		v0.445L240.331,78.075z M239.084,83.389l0.594-0.772v-0.148l-1.187,0.148l0.296,0.772H239.084z M239.025,100.071l0.178,0.119
		l0.059-0.179L239.025,100.071z M240.331,87.01v-1.365h-0.653l-0.297,0.445l0.653,0.92H240.331z M245.733,81.727L245.14,81.4
		c-1.781,0.297-2.79,0.604-3.028,0.92l0.297,0.148C243.397,81.974,244.506,81.727,245.733,81.727z M244.13,105.474h0.297
		l0.297-0.594h-0.594V105.474z M248.167,78.699V78.55l-3.028-1.069v0.594c1.029,0.356,1.544,0.812,1.544,1.365
		c0.316,0,0.613-0.248,0.891-0.742H248.167z M245.259,104.554l0.059,0.03h0.594v-0.03H245.259z M245.912,107.908v0.148l0.594,0.297
		C246.505,108.057,246.307,107.908,245.912,107.908z M247.158,107.908v-0.475h-0.653
		C246.505,107.749,246.722,107.908,247.158,107.908z M248.049,105.177l-0.297,0.772c0,0.297,0.198,0.445,0.594,0.445
		c0-0.516,0.198-0.921,0.594-1.218l-1.188-0.593h-0.297l-0.297,0.148L248.049,105.177z M249.415,80.806v-0.594h-0.95v0.148
		l0.297,0.445H249.415z M248.939,110.461h1.188v-0.148l-1.188-0.297V110.461z M251.195,81.727V81.4l-0.593-0.297v0.624H251.195z
		 M251.967,109.244v0.475h0.594v-0.475l0.297-0.742h-0.594L251.967,109.244z M255.767,78.55v-0.178c-0.634,0-1.247-0.198-1.84-0.594
		h-0.297l-0.891,0.445l0.891,0.771h0.297C254.599,78.699,255.212,78.55,255.767,78.55z M255.292,111.678h0.297v-0.445h-1.484
		C254.104,111.371,254.5,111.52,255.292,111.678z M256.658,81.103l-1.544-0.594h-0.891
		C254.223,80.766,255.034,80.965,256.658,81.103z M254.817,82.468v-0.742h-0.594v0.742H254.817z M254.995,109.096l0.594,0.475v0.742
		l0.891,0.148c0.197-0.594,1.088-0.891,2.671-0.891v-0.178l-3.859-0.445h-0.297V109.096z M255.292,105.622l0.891,0.148v-0.297
		l-0.594-0.297L255.292,105.622z M257.251,75.938v0.178l-0.297,0.148v0.148c-0.712-0.04-1.187-0.197-1.425-0.475H257.251z
		 M256.183,113.341c0.197,0.574,1.286,0.969,3.265,1.188h0.297l0.297-0.148v-0.148l-0.297-0.148
		c-2.177-0.316-3.265-0.613-3.265-0.891h-0.297V113.341z M256.776,117.556h0.653v-0.742h-0.653V117.556z M259.448,109.867
		l0.297,0.148v0.297h0.891l0.297-0.148c0-0.158-0.396-0.307-1.188-0.445L259.448,109.867z M263.366,114.528l0.891-1.812v-0.148
		l-2.731,0.476l-0.891-0.327C260.635,113.47,261.545,114.072,263.366,114.528z M261.229,115.448h0.297l-0.594-0.297h-0.297
		L261.229,115.448z M261.526,111.055v0.178l2.434-0.326v-0.594l-0.297-0.148l-2.434,0.148L261.526,111.055z M263.366,115.3h1.484
		v-0.148l-1.484-0.148V115.3z M263.663,116.962h1.484v-0.297h-0.891L263.663,116.962z M294.713,75.997v0.327l0.89-0.148l1.841,0.742
		h0.297v-0.297c-1.069-0.159-1.742-0.367-2.019-0.624h4.511l1.128,0.624v1.811c-0.594,0.515-1.306,0.772-2.137,0.772
		c0,0.198,0.316,0.297,0.95,0.297v0.772l-0.594,0.297h-1.84v-0.92c0-0.198,0.297-0.297,0.89-0.297l-0.593-0.445
		c-0.674,0.495-1.484,0.742-2.435,0.742v0.297h-1.781l-0.297,0.148l0.594,0.475l0.891-0.297h1.543c0.395,0,0.594,0.297,0.594,0.89
		c0.791,0,1.188,0.208,1.188,0.624l1.543-0.475h1.484v24.015c-2.336,6.788-8.332,11.083-17.989,12.884
		c-2.692,0.415-5.284,0.623-7.777,0.623l-0.297-0.445h-0.297c0,0.297-0.297,0.445-0.89,0.445c-1.346-0.02-2.277-0.049-2.791-0.089
		v-2.256l0.712-0.386l-0.297-0.148v-0.297l2.375-0.148v-0.297l-0.297,0.148l-0.356-0.148h-1.722l-0.297,0.148h-0.119v-6.056h0.712
		l3.265,0.148v-0.297h2.434v-0.297l-0.297,0.148h-0.356l-0.297-0.148v-0.148c3.363-0.91,5.106-2.365,5.225-4.364v-24.4l0.891-0.742
		l-0.297-0.445v-0.148l0.297-0.178h-0.891v-1.187l0.594-0.327h0.89l0.356,0.178c0-0.456,0.06-0.821,0.178-1.099h4.69l-0.059,0.178
		l-1.484-0.148h-0.297l-0.653,0.297v0.148l0.653,0.772h0.891l1.484,0.148v0.297l-0.89,0.445l0.297,0.92h0.593
		c0-0.197,0.316-0.297,0.95-0.297v-0.148h-0.653v-0.178l0.297-0.742c1.227-0.198,1.841-0.396,1.841-0.594v-0.178l-1.188,0.178
		h-0.297l-0.356-0.178c0-0.396-0.198-0.594-0.594-0.594v-0.327H294.713z M278.565,111.737l-2.434-0.148l-0.297,0.148v0.594
		l2.434,0.327v-0.179L278.565,111.737z M279.218,114.617h-0.891v0.297h1.484L279.218,114.617z M280.049,111.144
		c-0.792,0.139-1.187,0.287-1.187,0.445l0.296,0.148h0.891v-0.297l0.297-0.148L280.049,111.144z M283.73,75.997
		c-0.238,0.277-0.712,0.435-1.425,0.475v-0.148l-0.297-0.148v-0.178H283.73z M285.036,80.569h-0.891l-1.543,0.593
		C284.224,81.024,285.036,80.826,285.036,80.569z M283.67,105.236l-0.594,0.297v0.297l0.891-0.148L283.67,105.236z M287.529,108.265
		h-0.297l-3.859,0.445v0.178c1.583,0,2.473,0.297,2.672,0.891l0.891-0.148v-0.742l0.593-0.475V108.265z M285.333,79.055h0.297
		l0.89-0.772l-0.89-0.445h-0.297c-0.594,0.396-1.208,0.593-1.841,0.593v0.178C284.046,78.609,284.659,78.758,285.333,79.055z
		 M285.036,82.528v-0.742h-0.594v0.742H285.036z M286.817,101.496l-1.484,0.148v0.148h1.484V101.496z M286.401,85.051
		c0.276,0.494,0.573,0.742,0.891,0.742c0-0.554,0.514-1.009,1.543-1.365v-0.594l-3.028,1.069v0.148H286.401z M289.548,99.211
		l-0.89,0.326l-2.731-0.475v0.148l0.89,1.811C288.637,100.565,289.548,99.963,289.548,99.211z M286.698,114.766h-0.653v0.742h0.653
		V114.766z M288.42,110.55h-1.484v0.445h0.296C288.024,110.837,288.42,110.688,288.42,110.55z M288.658,81.786v-0.624l-0.594,0.297
		v0.327H288.658z M289.548,101.645h-0.297l-0.593,0.297h0.297L289.548,101.645z M290.261,107.819h-0.594l0.297,0.742v0.475h0.593
		v-0.475L290.261,107.819z M291.863,102.861l-0.297-0.147h-0.297l-1.187,0.593c0.395,0.297,0.594,0.702,0.594,1.218
		c0.395,0,0.593-0.148,0.593-0.445l-0.296-0.772L291.863,102.861z M294.001,99.686h-0.297c0,0.277-1.089,0.574-3.266,0.891
		l-0.297,0.148v0.148l0.297,0.148h0.297c1.979-0.218,3.067-0.613,3.266-1.188V99.686z M290.854,83.21l0.297-0.445v-0.148h-0.95
		v0.594H290.854z M292.517,105.563h-0.653v0.475C292.298,106.038,292.517,105.879,292.517,105.563z M293.585,109.333l-1.187,0.297
		v0.148h1.187V109.333z M292.517,106.483l0.594-0.297v-0.148C292.714,106.038,292.517,106.187,292.517,106.483z M293.11,102.684
		v0.03h0.594l0.059-0.03H293.11z M296.851,82.528l0.297-0.148c-0.238-0.316-1.247-0.624-3.028-0.92l-0.594,0.327
		C294.752,81.786,295.861,82.034,296.851,82.528z M294.891,103.01h-0.593l0.296,0.594h0.297V103.01z M300.769,78.283v-0.445h-1.84
		v0.296L300.769,78.283z M299.225,87.069l0.653-0.92l-0.297-0.445h-0.653v1.365H299.225z M300.472,83.448l0.297-0.772l-1.187-0.148
		v0.148l0.594,0.772H300.472z M299.997,100.071l0.06,0.179l0.177-0.119L299.997,100.071z M300.769,81.014l-0.297-0.148l0.297-1.069
		V79.5h0.594v1.514H300.769z"/>
	<path fill="#FFFFFF" d="M321.072,74.542l0.297,0.148h3.325l0.594,0.297v17.098l-0.297,0.594l0.297,0.445h-0.297l0.297,0.148v4.987
		l-0.297,0.178l0.297,0.148v18.435l-0.594,0.297h-1.841v-0.445h-0.594c0,0.297-0.198,0.445-0.594,0.445h-9.677v-0.445h-0.594v0.445
		h-4.868l-0.594-0.297V74.988l0.594-0.297h14.248L321.072,74.542z M308.664,113.251v0.297h0.891v-0.297H308.664z M308.961,115.508
		v0.445l0.594-0.297v-0.148H308.961z M310.148,115.359h1.247l-0.653-0.297L310.148,115.359z M314.067,114.29v0.148
		c1.425-0.099,2.137-0.247,2.137-0.445v-0.148h-1.188L314.067,114.29z M315.017,115.656l0.297,0.445h0.297v-0.445H315.017z
		 M317.748,97.815c0,0.376-0.614,0.634-1.841,0.771v0.148h1.544l0.594-0.771v-0.148H317.748z M316.501,111.114v0.148l0.95,0.475
		h0.297v-0.623H316.501z M318.639,115.656l-0.594,0.297v0.475l0.891-0.623v-0.148H318.639z M318.342,111.737v0.297h0.891
		l-0.594-0.297H318.342z M319.232,99.329v0.297h1.188l0.355-0.594h-0.355L319.232,99.329z M319.529,115.359l-0.297,0.148v0.148
		h0.891L319.529,115.359z M321.666,106.898c0,0.297-0.614,0.445-1.84,0.445v0.297l2.434-0.445v-0.297H321.666z M321.369,92.68
		l0.594,0.297h0.297V92.68H321.369z M322.557,105.979l-0.297,0.624h0.594l0.297-0.624H322.557z M323.744,91.789
		c0,0.396-0.395,0.594-1.188,0.594v0.148h0.297c0.911-0.197,1.425-0.396,1.544-0.594v-0.148H323.744z M322.854,97.815v0.297h1.247
		v-0.297H322.854z M323.447,87.545v0.297h0.95v-0.297H323.447z M328.909,74.691h16.327c12.111,0.316,18.167,1.177,18.167,2.583
		h1.483c5.661,2.038,8.49,5.106,8.49,9.202c0,4.532-3.443,7.708-10.33,9.529l-0.594-0.297c0,0.494-1.208,0.851-3.622,1.068v0.148
		c3.482,0,6.709,1.554,9.678,4.66l-0.297,0.179h-1.188l-0.297-0.179h-0.356l-0.297,0.624h0.297l1.841-0.148
		c0.792,0,1.404,1.108,1.841,3.324h-0.653l-1.484-0.148l-1.188,0.742c0.555,0,1.048,0.208,1.484,0.624v0.296l-0.297,0.148v0.148
		h2.138v-0.297h0.593l1.781,4.69c-1.188,0.197-1.781,0.396-1.781,0.594v0.148h1.484c0.594,0,1.208,0.702,1.841,2.107l-0.95,0.476
		v0.445l0.95-0.297h0.297c0.475,0.099,1.285,0.652,2.434,1.662l-1.246,0.594h-4.81l0.594-1.217v-0.445
		c-0.594,0-0.988,0.554-1.187,1.662h-5.166l-0.594-0.297l0.297-0.148h0.594l1.544,0.148v-0.445l-0.356-0.623l0.95-0.594l1.484,0.148
		l1.247-0.148v-0.772c-3.049,0.337-4.572,0.644-4.572,0.921l0.297,0.92l-0.297,0.148h-2.73c0,0.494-0.199,0.742-0.594,0.742h-4.809
		c-0.674,0-1.88-1.207-3.622-3.622l0.297-0.445c-0.555,0-1.662-2.671-3.324-8.015c-0.713-1.266-2.336-2.275-4.869-3.027
		c-2.374-0.416-5.601-0.624-9.677-0.624v-0.445h0.594v-0.297h-0.594c0,0.198-0.395,0.297-1.188,0.297v0.445l-5.165,0.179h-0.891
		l-0.594-0.327v-2.85c0-0.218,0.496-0.326,1.484-0.326v-0.297h-0.297l-0.891,0.148l-0.297-0.148v-3.77l0.594-0.297h7.54
		c11.913,0,17.87-1.762,17.87-5.284v-1.217c-0.712-2.929-3.542-4.394-8.49-4.394c0-0.178-2.514-0.277-7.539-0.297h-9.381
		l-0.594-0.297v-7.421L328.909,74.691z M332.531,98.112v0.148l1.84,0.475h2.672v-0.297h-2.672c-0.436,0-0.653-0.158-0.653-0.475
		L332.531,98.112z M333.125,94.491v0.296l0.593,0.327l-0.296,0.148v0.445h1.246l-0.297-0.148v-0.148l0.891-0.624l-1.84-0.296
		H333.125z M336.152,94.194l-0.297,0.593h0.891v-0.593H336.152z M337.399,98.735l0.594,0.297h1.78v-0.148l-0.593-0.297
		L337.399,98.735z M340.724,97.37l0.297,0.445h0.594l0.594-0.297V97.37l-1.484-0.148V97.37z M347.67,93.897l0.594,0.445
		l-0.297,0.148h-0.297l-0.297-0.148c-1.029,0-2.354,0.257-3.978,0.771h-0.891l0.297,0.148v0.148l-0.594,0.891h0.891
		c1.227-0.219,1.841-0.613,1.841-1.188l0.89-0.327h1.247c0.594,0,0.891,0.208,0.891,0.624h0.594l0.891-0.771
		c-0.396,0-0.594-0.198-0.594-0.594l-0.297-0.148H347.67z M349.748,100.25l0.95,2.256h0.594v-0.445l-0.594-1.218l0.594-0.444v-0.148
		H349.748z M352.479,96.599l-0.594,0.623l3.028,0.594v-0.297c-0.396,0-0.594-0.197-0.594-0.594l-1.247-0.326H352.479z
		 M352.479,92.383l1.247,0.594h1.188l0.594-0.297h-2.435v-0.297H352.479z M353.369,109.304c0.238,0.612,0.556,0.92,0.95,0.92
		l0.594-0.297v-0.178l-0.891-0.445H353.369z M354.022,103.574l-0.297,0.594v0.148h0.297l0.297-0.594v-0.148H354.022z M355.21,99.032
		l-0.297,0.148v0.297l1.188-0.297v-0.148H355.21z M354.913,106.275l1.188,0.92h0.594v-0.297c-0.594,0-0.891-0.207-0.891-0.623
		H354.913z M355.21,112.331c1.306,0.197,2.116,0.505,2.435,0.92l2.73,0.445v-0.445c-1.386,0-2.493-0.355-3.324-1.068l-0.356-0.148
		h-0.891L355.21,112.331z M355.804,110.224l0.594,0.297h0.653v-0.297H355.804z M355.804,114.142l0.594,0.297h0.297l-0.594-0.297
		H355.804z M356.101,94.194v1.217h0.594v-1.217H356.101z M356.694,108.562v0.148h0.653v-0.445L356.694,108.562z M358.237,90.572
		l-0.296,0.445l0.296,0.445h0.297l0.297-0.891H358.237z M359.128,103.723v0.148h0.297l0.95-0.445V103.1L359.128,103.723z
		 M359.128,116.25v0.326h0.297l1.544-0.148v-0.475h-0.594L359.128,116.25z M360.019,105.088h0.356l0.594-0.326h-0.297
		L360.019,105.088z M361.562,107.938l-0.891-0.297l-0.653,0.297v0.148h2.138l0.297,0.179c1.226-0.219,1.84-0.426,1.84-0.624
		l-0.297-0.148h-0.297C362.948,107.789,362.236,107.938,361.562,107.938z M360.019,109.601l0.356,0.623h0.297l1.188-0.297v-0.326
		H360.019z M360.969,107.047v0.148l0.594,0.297h0.594l0.594-0.297L360.969,107.047z M363.047,113.548
		c0,0.396-0.199,0.594-0.594,0.594l0.297,0.148v0.148l-0.594,0.476v0.148h1.247v-1.515H363.047z M362.75,83.923h0.297l0.652-0.297
		h-0.296L362.75,83.923z M363.403,105.088v0.297l1.483-0.148v-0.148H363.403z M363.996,111.114c0,0.197,0.692,0.505,2.078,0.92
		h0.653v-0.148c0-0.158-0.712-0.415-2.138-0.771H363.996z M364.293,106.603h0.594l1.188-0.327v-0.297h-0.297
		C364.866,106.176,364.373,106.384,364.293,106.603z M365.777,102.803l-0.594,0.475l1.188,0.445l0.356-0.148h0.297l1.781,0.594
		v-1.217h-0.891l-1.544,0.148L365.777,102.803z M365.184,109.601v0.326h1.188v-0.326H365.184z M365.48,101.14v0.148l0.891,0.148
		v-0.297H365.48z M366.371,104.02v0.92c0.437,0,0.653-0.158,0.653-0.475l-0.297-0.445H366.371z M367.618,112.628l0.594,0.297
		l0.594-0.297H367.618z M370.942,113.548v0.297h1.188v-0.297H370.942z M376.701,118.238h1.484l0.594,0.297l-0.594,0.297h-1.484
		l-0.652-0.297L376.701,118.238z"/>
	<g>
		<path fill="#FFFFFF" d="M504.225,80.462h18.167l0.594,0.267v3.124l-0.594,0.293h-0.594c0-0.231-0.517-0.507-1.544-0.828v-0.266
			h-0.297l-0.297,0.132h-0.297l1.841,1.229l-1.544,0.534h0.297l2.731-0.668l0.297,0.134v17.009h-1.484l-1.544-0.427
			c0,0.373-0.396,0.561-1.188,0.561c0,0.533-0.198,0.801-0.594,0.801h-1.543l-0.891-0.268l-0.594,0.429l0.297,0.133h1.781v0.267
			c0.949,0,1.761,0.224,2.434,0.668l0.594-0.401c-0.594,0-0.891-0.089-0.891-0.267v-0.828h1.841l0.594,0.268v0.694
			c-0.635,0-0.95,0.09-0.95,0.267c0.831,0,1.544,0.231,2.138,0.694v1.629l-2.138,1.067h1.544v-0.533h0.594v5.98
			c-0.397,0.375-0.891,0.561-1.484,0.561l0.594,0.268l0.891-0.134v3.792h-0.594c0-0.444-0.198-0.667-0.594-0.667l-1.841-0.4v0.133
			c0,0.144,0.612,0.276,1.841,0.401l0.297,0.694v0.133l-0.891,0.4h-0.653l-1.781-0.694v0.161l1.484,0.8l-0.297,0.401h0.297
			c1.227,0,1.841-0.179,1.841-0.535h0.891v1.096l-0.594,0.267h-1.841l-0.891-0.267l-0.594,0.267h-2.137
			c-0.397,0-0.594-0.134-0.594-0.4h-1.841c0,0.267-0.198,0.4-0.594,0.4h-1.483l-1.841-0.668h-0.297v0.668h-3.622v-0.4h-1.84v0.134
			h0.653v0.267h-1.247l-0.594-0.267v-0.134l0.594-0.427v-0.668h-0.594v-1.228l1.188-0.802c0-0.284-0.297-0.427-0.891-0.427
			l-0.297-0.134v-0.961l0.594-0.268h1.247l0.89,0.268h0.891l-0.297-0.134l-1.483-0.268l-0.653-0.801h-0.594v0.667h-0.594v-5.18
			l0.594-0.267h0.297l1.84,0.267v0.16l1.484-0.16h2.435c0-0.178-0.397-0.267-1.188-0.267v-0.268h-2.138l-0.594-0.268l0.297-0.561
			c-0.792,0-1.187-0.497-1.187-1.494l-0.356,0.16h-0.891l-0.594-0.294v-1.068h0.891l-0.297-0.16v-0.134l0.297-0.4l-0.891-0.667
			V80.729L504.225,80.462z M504.225,80.462h18.167l0.594,0.267v3.124l-0.594,0.293h-0.594c0-0.231-0.517-0.507-1.544-0.828v-0.266
			h-0.297l-0.297,0.132h-0.297l1.841,1.229l-1.544,0.534h0.297l2.731-0.668l0.297,0.134v17.009h-1.484l-1.544-0.427
			c0,0.373-0.396,0.561-1.188,0.561c0,0.533-0.198,0.801-0.594,0.801h-1.543l-0.891-0.268l-0.594,0.429l0.297,0.133h1.781v0.267
			c0.949,0,1.761,0.224,2.434,0.668l0.594-0.401c-0.594,0-0.891-0.089-0.891-0.267v-0.828h1.841l0.594,0.268v0.694
			c-0.635,0-0.95,0.09-0.95,0.267c0.831,0,1.544,0.231,2.138,0.694v1.629l-2.138,1.067h1.544v-0.533h0.594v5.98
			c-0.397,0.375-0.891,0.561-1.484,0.561l0.594,0.268l0.891-0.134v3.792h-0.594c0-0.444-0.198-0.667-0.594-0.667l-1.841-0.4v0.133
			c0,0.144,0.612,0.276,1.841,0.401l0.297,0.694v0.133l-0.891,0.4h-0.653l-1.781-0.694v0.161l1.484,0.8l-0.297,0.401h0.297
			c1.227,0,1.841-0.179,1.841-0.535h0.891v1.096l-0.594,0.267h-1.841l-0.891-0.267l-0.594,0.267h-2.137
			c-0.397,0-0.594-0.134-0.594-0.4h-1.841c0,0.267-0.198,0.4-0.594,0.4h-1.483l-1.841-0.668h-0.297v0.668h-3.622v-0.4h-1.84v0.134
			h0.653v0.267h-1.247l-0.594-0.267v-0.134l0.594-0.427v-0.668h-0.594v-1.228l1.188-0.802c0-0.284-0.297-0.427-0.891-0.427
			l-0.297-0.134v-0.961l0.594-0.268h1.247l0.89,0.268h0.891l-0.297-0.134l-1.483-0.268l-0.653-0.801h-0.594v0.667h-0.594v-5.18
			l0.594-0.267h0.297l1.84,0.267v0.16l1.484-0.16h2.435c0-0.178-0.397-0.267-1.188-0.267v-0.268h-2.138l-0.594-0.268l0.297-0.561
			c-0.792,0-1.187-0.497-1.187-1.494l-0.356,0.16h-0.891l-0.594-0.294v-1.068h0.891l-0.297-0.16v-0.134l0.297-0.4l-0.891-0.667
			V80.729L504.225,80.462z M503.928,105.775c1.027,0.054,1.544,0.319,1.544,0.801c-0.832,0.196-1.247,0.428-1.247,0.693h-0.594
			v-1.227l0.297-0.134V105.775z M503.928,105.775c1.027,0.054,1.544,0.319,1.544,0.801c-0.832,0.196-1.247,0.428-1.247,0.693h-0.594
			v-1.227l0.297-0.134V105.775z M504.225,101.557l1.544,0.533h0.89C506.658,101.859,505.846,101.682,504.225,101.557z
			 M504.225,101.557l1.544,0.533h0.89C506.658,101.859,505.846,101.682,504.225,101.557z M506.658,108.766
			c0,0.356-0.198,0.534-0.593,0.534l-0.95-0.134l-0.297,0.134v0.427c0.633,0,0.95,0.134,0.95,0.401h0.297
			c0-0.463,0.493-0.694,1.483-0.694h0.95C508.102,109.112,507.49,108.89,506.658,108.766z M506.658,108.766
			c0,0.356-0.198,0.534-0.593,0.534l-0.95-0.134l-0.297,0.134v0.427c0.633,0,0.95,0.134,0.95,0.401h0.297
			c0-0.463,0.493-0.694,1.483-0.694h0.95C508.102,109.112,507.49,108.89,506.658,108.766z M505.115,85.509v0.267l0.653,0.267
			l0.297-0.133v-0.134l-0.594-0.267H505.115z M505.115,85.509v0.267l0.653,0.267l0.297-0.133v-0.134l-0.594-0.267H505.115z
			 M505.115,103.853v0.16c0.632,0,1.246,0.178,1.84,0.534h0.297l0.891-0.4l-0.891-0.694h-0.297
			C506.282,103.719,505.668,103.853,505.115,103.853z M505.115,103.853v0.16c0.632,0,1.246,0.178,1.84,0.534h0.297l0.891-0.4
			l-0.891-0.694h-0.297C506.282,103.719,505.668,103.853,505.115,103.853z M506.065,100.328v0.668h0.593v-0.668H506.065z
			 M506.065,100.328v0.668h0.593v-0.668H506.065z M510.28,103.452l-0.297,0.828l0.891,0.4v0.267l-1.484,0.134h-0.891l-0.653,0.694
			v0.134l0.653,0.267h0.297l1.484-0.133l0.297,0.666h0.297v-0.8c0.395,0,0.594-0.179,0.594-0.534l0.356-0.16h0.297l1.187,0.16v-0.16
			c0-0.178-0.614-0.356-1.84-0.534l-0.297-0.668v-0.16h0.653v-0.134c-0.635,0-0.95-0.089-0.95-0.267H510.28z M510.28,103.452
			l-0.297,0.828l0.891,0.4v0.267l-1.484,0.134h-0.891l-0.653,0.694v0.134l0.653,0.267h0.297l1.484-0.133l0.297,0.666h0.297v-0.8
			c0.395,0,0.594-0.179,0.594-0.534l0.356-0.16h0.297l1.187,0.16v-0.16c0-0.178-0.614-0.356-1.84-0.534l-0.297-0.668v-0.16h0.653
			v-0.134c-0.635,0-0.95-0.089-0.95-0.267H510.28z M507.846,112.717h0.95l0.594-0.293h-0.891L507.846,112.717z M507.846,112.717
			h0.95l0.594-0.293h-0.891L507.846,112.717z M507.846,117.604l0.653,0.401l0.891-0.134l-0.297-0.534L507.846,117.604z
			 M507.846,117.604l0.653,0.401l0.891-0.134l-0.297-0.534L507.846,117.604z M508.796,115.441v0.267h0.297l0.594-0.267H508.796z
			 M508.796,115.441v0.267h0.297l0.594-0.267H508.796z M509.687,80.863l-0.594,0.427h0.297l0.891-0.16L509.687,80.863z
			 M509.687,80.863l-0.594,0.427h0.297l0.891-0.16L509.687,80.863z M509.093,110.262h0.594l0.594-0.268h-0.594L509.093,110.262z
			 M509.093,110.262h0.594l0.594-0.268h-0.594L509.093,110.262z M509.687,100.996v0.294l0.594,0.267v-0.561H509.687z
			 M509.687,100.996v0.294l0.594,0.267v-0.561H509.687z M510.874,111.89v0.267c-0.594,0-0.891,0.089-0.891,0.268h0.891l0.297-0.4
			v-0.134H510.874z M510.874,111.89v0.267c-0.594,0-0.891,0.089-0.891,0.268h0.891l0.297-0.4v-0.134H510.874z M510.577,116.804
			l0.594,0.266h0.95v-0.266H510.577z M510.577,116.804l0.594,0.266h0.95v-0.266H510.577z M510.874,108.766v0.134
			c0.831,0,1.247,0.178,1.247,0.534h0.594c0-0.41,0.492-0.765,1.483-1.068C511.981,108.455,510.874,108.588,510.874,108.766z
			 M510.874,108.766v0.134c0.831,0,1.247,0.178,1.247,0.534h0.594c0-0.41,0.492-0.765,1.483-1.068
			C511.981,108.455,510.874,108.588,510.874,108.766z M511.171,115.308v0.134h0.653c0-0.196,0.297-0.294,0.891-0.294v-0.267
			L511.171,115.308z M511.171,115.308v0.134h0.653c0-0.196,0.297-0.294,0.891-0.294v-0.267L511.171,115.308z M511.468,101.824v0.533
			h0.95v-0.134l-0.297-0.399H511.468z M511.468,101.824v0.533h0.95v-0.134l-0.297-0.399H511.468z M511.824,107.537h0.891
			l0.296-0.134h0.297l-0.297-0.399L511.824,107.537z M511.824,107.537h0.891l0.296-0.134h0.297l-0.297-0.399L511.824,107.537z
			 M512.715,103.719v0.134l3.027,0.962v-0.534c-1.03-0.321-1.544-0.73-1.544-1.229c-0.317,0-0.614,0.223-0.891,0.667H512.715z
			 M512.715,103.719v0.134l3.027,0.962v-0.534c-1.03-0.321-1.544-0.73-1.544-1.229c-0.317,0-0.614,0.223-0.891,0.667H512.715z
			 M513.011,82.092v0.266l0.297,0.133h0.594v-0.133l-0.594-0.266H513.011z M513.011,82.092v0.266l0.297,0.133h0.594v-0.133
			l-0.594-0.266H513.011z M513.011,84.28v0.134l3.622,0.668l0.297,0.133h0.297l-0.297-0.668V84.28l0.594-0.427h-2.375L513.011,84.28
			z M513.011,84.28v0.134l3.622,0.668l0.297,0.133h0.297l-0.297-0.668V84.28l0.594-0.427h-2.375L513.011,84.28z M514.495,114.881
			v0.134l0.653,0.427v0.267c0,0.268-0.416,0.401-1.247,0.401v0.132h1.544l0.297-0.666
			C515.345,115.147,514.93,114.916,514.495,114.881z M514.495,114.881v0.134l0.653,0.427v0.267c0,0.268-0.416,0.401-1.247,0.401
			v0.132h1.544l0.297-0.666C515.345,115.147,514.93,114.916,514.495,114.881z M514.852,107.537v0.134
			c0,0.143,0.691,0.374,2.078,0.694v-0.294c-0.594,0-0.891-0.134-0.891-0.4l-0.297-0.134H514.852z M514.852,107.537v0.134
			c0,0.143,0.691,0.374,2.078,0.694v-0.294c-0.594,0-0.891-0.134-0.891-0.4l-0.297-0.134H514.852z M515.148,100.996l0.594,0.294
			c1.781-0.268,2.79-0.544,3.027-0.828l-0.297-0.134C517.482,100.773,516.375,100.996,515.148,100.996z M515.148,100.996
			l0.594,0.294c1.781-0.268,2.79-0.544,3.027-0.828l-0.297-0.134C517.482,100.773,516.375,100.996,515.148,100.996z
			 M517.227,106.043l-0.891-0.134v0.533h0.891c0-0.355,0.712-0.622,2.137-0.801v-0.267h-0.297L517.227,106.043z M517.227,106.043
			l-0.891-0.134v0.533h0.891c0-0.355,0.712-0.622,2.137-0.801v-0.267h-0.297L517.227,106.043z M516.633,108.766v0.134h1.246
			l-0.355-0.134v-0.134L516.633,108.766z M516.633,108.766v0.134h1.246l-0.355-0.134v-0.134L516.633,108.766z M517.227,110.662
			v0.134h0.297c0.077-0.356,0.891-0.534,2.434-0.534v-0.535C518.135,109.994,517.227,110.306,517.227,110.662z M517.227,110.662
			v0.134h0.297c0.077-0.356,0.891-0.534,2.434-0.534v-0.535C518.135,109.994,517.227,110.306,517.227,110.662z M517.227,117.604
			v0.268h0.949v-0.268H517.227z M517.227,117.604v0.268h0.949v-0.268H517.227z M517.523,85.215l0.652,0.293h0.594v-0.293H517.523z
			 M517.523,85.215l0.652,0.293h0.594v-0.293H517.523z M518.473,107.004v0.266c0.791-0.142,1.188-0.274,1.188-0.399L518.473,107.004
			z M518.473,107.004v0.266c0.791-0.142,1.188-0.274,1.188-0.399L518.473,107.004z M520.551,96.243v1.228h0.653l0.297-0.399
			l-0.653-0.828H520.551z M520.551,96.243v1.228h0.653l0.297-0.399l-0.653-0.828H520.551z M520.551,104.28v0.267h1.841v-0.4
			L520.551,104.28z M520.551,104.28v0.267h1.841v-0.4L520.551,104.28z M521.204,110.528l-0.356,0.561h0.95l0.297-0.561H521.204z
			 M521.204,110.528l-0.356,0.561h0.95l0.297-0.561H521.204z M521.798,99.501l-0.594,0.693v0.134l1.188-0.134l-0.297-0.693H521.798z
			 M521.798,99.501l-0.594,0.693v0.134l1.188-0.134l-0.297-0.693H521.798z M522.985,101.69v1.361h-0.594v-0.268l-0.297-0.96
			l0.297-0.134H522.985z M522.985,101.69v1.361h-0.594v-0.268l-0.297-0.96l0.297-0.134H522.985z"/>
		<path fill="#FFFFFF" d="M545.249,105.909l0.297,0.106v0.133l-0.594,0.401v0.134c0.79,0,1.187,0.427,1.187,1.281
			c0.832,0.89,1.781,1.584,2.851,2.083v0.106l-0.297-0.106h-0.237v0.239h0.237l0.297-0.133c3.64,0.944,6.332,1.469,8.074,1.575
			v0.374h0.594v-0.267h1.722c1.146,0.053,1.722,0.187,1.722,0.399v1.043c0,0.159-0.297,0.239-0.891,0.239l-0.297-0.107h-0.534v0.107
			c0.751,0.054,1.128,0.276,1.128,0.668l-0.891,0.641c0.594,0,0.891,0.089,0.891,0.267v0.24l-0.297,0.642l-0.297-0.107h-0.297
			l-0.237,0.107v0.533c0.831,0,1.404,0.17,1.722,0.508v0.774c0,0.178-0.397,0.267-1.188,0.267l0.891,0.508l-0.594,0.267h-1.425
			c0-0.195-0.674-0.542-2.019-1.041v-0.241h-1.722v0.107h0.831v0.668h-2.256c-0.991-0.694-1.663-1.041-2.019-1.041l-0.297,0.132
			v0.134c0.553,0,0.831,0.26,0.831,0.775h-0.237l-1.188,0.106c-3.841-0.195-7.581-0.791-11.221-1.789
			c0.314-0.605,0.811-0.908,1.484-0.908v-0.4c-1.03,0.072-1.9,0.285-2.613,0.642h-1.128c-4.315-1.406-7.302-3.382-8.964-5.928
			l-0.535-1.575l0.535-0.241v-0.134l-0.238,0.134h-0.297c-0.396-0.391-0.594-0.951-0.594-1.682l0.594-0.268h0.297l0.238,0.134
			l0.297-0.134h0.89l1.722,0.134l1.723-0.268h4.037v0.401h0.296c0.078-0.356,0.356-0.534,0.831-0.534h5.166L545.249,105.909z
			 M528.27,107.057v0.908h0.297c0-0.178,0.297-0.267,0.89-0.267v-0.107l-0.593-0.534H528.27z M560.804,80.542l0.297,0.133v6.329
			c0,0.196-2.315,0.373-6.946,0.534c0.196-0.321,0.87-0.544,2.019-0.668l1.188,0.134h0.534v-0.241h-3.146v0.241h-2.019l0.297,0.64
			c-2.892,0.927-4.334,1.665-4.334,2.217l-0.237,0.641v0.774c0,1.762,4.886,3.017,14.664,3.765l0.237,0.107l-0.237,0.134v0.267
			l1.128-0.4c9.933,0.961,17.019,1.958,21.254,2.99l5.225,1.949v0.106h-0.891v-0.24c-0.754,0-1.128-0.177-1.128-0.533h-1.188
			l2.019,0.773l0.297,0.774h-0.594v0.268h0.297l0.891-0.134l-0.891,0.907h2.612c0,0.268,0.276,0.401,0.831,0.401
			c0,0.25,0.396,0.588,1.188,1.015c0.95,0.16,1.425,0.552,1.425,1.175l-0.891,0.268h-2.85c0,0.159-0.475,0.328-1.425,0.507h-2.019
			v0.267c0.909,0,1.582,0.089,2.019,0.268c0-0.179,0.374-0.268,1.128-0.268l0.891-0.4c0.237,0.445,0.514,0.668,0.831,0.668
			l0.297-0.134l0.297,0.134c0.039-0.605,0.612-0.908,1.722-0.908l0.297,0.106v0.908l-0.297,0.133c0,0.179-0.575,0.268-1.722,0.268
			c0,0.427-0.198,0.641-0.594,0.641c-0.753,0-1.128,0.213-1.128,0.642h-2.315v0.134l0.297,0.641h0.297v-0.241l-0.297-0.134
			l2.315-0.399h1.425v0.267h0.594l1.128-0.267v-0.775h0.594c-0.198,1.55-0.594,2.804-1.188,3.766l-0.297-0.134h-0.534v0.134h0.534
			c-0.237,1.032-0.812,1.548-1.722,1.548l-0.831-0.133v0.267l1.128,0.134c-0.437,0.517-1.188,1.033-2.256,1.549l-0.297-0.134h-0.297
			c0,0.552-0.575,0.979-1.722,1.281l-0.297-0.106h-0.297l0.594-0.907l-3.206-1.175h0.594v-0.134l-0.594-0.267l-1.425,0.133v-1.148
			c0-0.213,0.395-0.347,1.188-0.4v-0.134c0-0.195-0.771-0.319-2.315-0.373l0.594,0.373v0.909h-0.297l-0.891-0.134l0.594,0.399v0.268
			l-1.188,0.508l-0.237-0.134l-0.297,0.134h-0.594l-0.297-0.134h-0.297c0-0.604,0.573-0.907,1.722-0.907v-0.134l-1.722-0.508h-1.722
			l0.297,0.133v0.134l-0.594,0.241c-1.386,0-2.138-0.125-2.256-0.375l0.297-0.133l-0.594-0.268c0-0.338,0.771-0.507,2.315-0.507
			l0.237-0.134v-0.134c-0.831,0-1.406-0.213-1.722-0.64c0.79-0.605,1.188-1.38,1.188-2.324l1.425,0.134
			c0.395-0.444,0.771-0.667,1.128-0.667v-0.106l-0.534-0.268h-0.891l-0.831,0.268h-0.297l-2.019-1.175v-0.134h0.297l2.019,0.134
			c0-0.268,0.374-0.401,1.128-0.401v-0.106l0.297,0.106h1.128l0.594-0.239v-0.268c-1.03,0-1.802-0.169-2.315-0.508h-0.831
			l-0.891,0.24h-4.334l-0.831-0.24l-1.128,0.134c-1.348-0.214-2.019-0.391-2.019-0.533v-0.134c0.434,0,1.009-0.169,1.722-0.508
			c-0.95-0.391-2.197-0.605-3.74-0.641v0.133l-1.722-0.267l-0.297,0.134l-2.909-1.549c-0.397,0.517-1.148,0.774-2.256,0.774
			c0,0.284-0.674,0.499-2.019,0.641v0.267h-1.188c-17.614-1.334-26.42-4.922-26.42-10.76v-0.508c0-5.998,8.627-9.532,25.886-10.601
			L560.804,80.542z M531.178,109.246h0.832v-0.239h-0.238L531.178,109.246z M531.771,107.965h1.425v-0.267h-0.89L531.771,107.965z
			 M532.307,111.062v0.134h0.594v-0.373L532.307,111.062z M534.324,107.19l-0.297,0.133v0.268h0.891v-0.134L534.324,107.19z
			 M534.621,85.455l0.594,0.267h0.238v-0.267H534.621z M535.75,96.189l0.891,0.401l0.297-0.401l-0.297-0.134L535.75,96.189z
			 M535.75,108.231v0.508h0.594v-0.508H535.75z M537.233,111.329l0.238,0.774h0.593v-0.133l-0.296-0.642H537.233z M537.769,98.405
			l0.593,0.241h0.594v-0.241H537.769z M538.361,108.231l0.594,0.241h0.832l-0.297-0.508L538.361,108.231z M538.658,106.684
			l0.535,0.239l0.594-0.239v-0.268h-0.594L538.658,106.684z M539.193,114.293v0.133h1.188l-0.297-0.133v-0.106L539.193,114.293z
			 M539.787,96.323v0.507l0.594,0.268v-0.774H539.787z M541.509,110.287v0.268l0.593,0.507h0.594v-0.239l-0.594-0.535H541.509z
			 M542.102,85.722v0.241c0.95,0,1.426,0.089,1.426,0.267h0.594l-0.891-0.508H542.102z M542.398,107.457v0.241
			c0.752,0,1.129,0.178,1.129,0.533h0.891v-0.267l-0.594-0.267h-0.297l0.297-0.107v-0.4h-0.891L542.398,107.457z M542.934,97.604
			l-0.238,0.133v0.134h1.426v-0.134L542.934,97.604z M542.934,83.4l0.594,0.24h0.297l0.594-0.24v-0.267L542.934,83.4z
			 M543.23,93.599v0.134L546.674,94l-1.959-0.534L543.23,93.599z M543.527,116.643v0.107c1.345,0,2.019,0.267,2.019,0.8h0.593
			v-0.266l0.297-0.134l-0.297-0.134l-2.314-0.374H543.527z M545.249,111.329c0,0.267-0.279,0.4-0.831,0.4v0.241l1.425-0.642H545.249
			z M545.546,114.187h0.297l0.296-0.134h0.297l0.832,0.373h0.297v-0.133l-0.297-0.374h-1.129L545.546,114.187z M545.843,115.2
			l0.593,0.268h0.238l-0.535-0.268H545.843z M547.564,112.37c0,0.161,0.374,0.241,1.128,0.241l-0.237,0.133v0.134l1.128,0.268
			v-0.134l-0.891-0.642H547.564z M548.158,115.976l-0.297,0.134v0.399l0.297-0.134h0.297l1.128,0.134L548.158,115.976z
			 M548.989,94.508v0.266h0.891v-0.266H548.989z M551.008,97.604l-0.297,0.133v0.134h1.188v-0.134L551.008,97.604z M551.305,114.426
			v0.401l1.128,0.373h0.594v-0.507h-0.297l-0.297,0.134c-0.556,0-0.831-0.134-0.831-0.401H551.305z M553.323,118.325v0.106
			l-0.297,0.134v0.133l-0.891-0.133v-0.134L553.323,118.325z M553.62,116.75v0.534h0.534v-0.268L553.62,116.75z M554.451,114.293
			v0.133l0.594,0.268h0.297l0.831-0.134v-0.134l-1.425-0.133H554.451z M554.451,118.565h1.188v0.267h-0.297l-0.891-0.134V118.565z
			 M557.657,100.462l-2.315-0.268l1.128,0.774h1.188c0-0.214,0.374-0.338,1.128-0.373v-0.268l0.831-0.24l-0.237-0.4L557.657,100.462
			z M559.913,102.277h2.019l0.891,0.374v0.667c-3.643-0.303-5.462-0.561-5.462-0.774h2.553V102.277z M557.657,116.509v0.508
			l0.534,0.268l0.297-0.134h0.594v0.266h0.297v-0.266L557.657,116.509z M558.191,113.012v0.399h0.891v-0.132l-0.594-0.268H558.191z
			 M559.082,98.913v0.642h0.297v-0.642H559.082z M562.229,95.815v0.133l0.297,0.643c-0.397,0-0.772,0.258-1.128,0.773h-1.484
			l0.297,0.507l-0.297,0.401c1.938-0.641,2.909-1.29,2.909-1.949v-0.508H562.229z M561.397,101.503h0.831l0.891,0.374v0.4h-0.297
			l-1.425-0.268V101.503z M564.247,80.542c8.271,0,15.652,1.078,22.145,3.231c3.087,1.425,4.631,2.376,4.631,2.856
			c0.988,0,2.215,1.683,3.681,5.048v0.373l-9.736,0.534v-0.134l-8.074,0.374c-0.754-2.1-2.099-3.48-4.037-4.139
			c-1.585-0.605-4.553-1.077-8.905-1.415v-0.267l0.297-0.774l-0.297-1.282V80.81l0.297-0.134V80.542z M571.728,111.195
			c1.188,0,2.333,0.214,3.443,0.642c1.899,0,2.85,0.303,2.85,0.907l0.891,0.134l0.297-0.134l0.594,0.401l-0.297,0.134v0.132
			c1.146,0.41,1.722,0.748,1.722,1.015h0.534c0-0.355,0.771-0.569,2.315-0.64l0.297,0.133l-0.297,0.134v0.24l0.297,0.133
			c-0.08,0.445-0.356,0.668-0.831,0.668v0.508c0,0.427-0.495,0.64-1.484,0.64c0,0.196,0.493,0.33,1.484,0.401v-0.134l0.237-0.134
			h0.297v-0.907h0.594v-0.134l-0.297-0.134c0.119-0.427,0.79-0.641,2.019-0.641c0.315,0.605,0.692,0.908,1.128,0.908v0.134
			c-3.959,1.371-7.026,2.056-9.202,2.056v-0.241l-3.146,0.241v-0.107l0.297-0.399h-0.297l-0.831,0.134v0.132l0.534,0.375v0.267
			c0,0.374-3.544,0.632-10.627,0.774l-0.297-0.134v-1.548l0.297-0.134v-0.134l1.425,0.134h0.594c0.395,0,0.594-0.213,0.594-0.642
			l0.831-0.399v-0.241h-0.297l-0.297,0.134h-0.237c0-0.427-0.397-0.952-1.188-1.575l0.297-0.374l-2.019-0.773v-0.775
			c0-0.195,0.475-0.329,1.425-0.399l1.484,0.133c0-0.338,0.949-0.508,2.85-0.508v0.774h-2.85l0.831,0.775h0.297v-0.268h2.315
			l-0.297-0.134v-0.133h0.594l0.831,0.267l0.297-0.134l0.297,0.774h0.534v-0.373l-0.237-0.642l0.237-0.134
			c-0.555,0-0.932-0.214-1.128-0.641H570.6v-0.134L571.728,111.195z M563.95,113.786h0.594l0.297,0.4l-0.297,0.373h-0.594V113.786z
			 M564.841,114.827l1.425,0.134v1.015h-1.722l-0.594-0.241v-0.641C563.95,114.916,564.247,114.827,564.841,114.827z
			 M565.672,118.325v0.106l2.019,0.134l-0.297-0.374L565.672,118.325z M567.394,117.416v0.642l1.425-0.267
			C568.818,117.596,568.344,117.47,567.394,117.416z M567.69,98.513h1.128v-0.24h-0.534L567.69,98.513z M568.581,100.729
			l-0.297,0.133v0.106h0.831L568.581,100.729z M570.837,99.421l-0.534,0.267v0.267h0.831v-0.533H570.837z M570.6,115.468
			c0.276,0.339,0.553,0.508,0.831,0.508h0.594v-0.107l-0.891-0.4H570.6z M571.431,81.583v0.134l0.891,0.107v-0.241H571.431z
			 M574.043,112.236l0.297,0.375l0.534-0.241v-0.399h-0.297L574.043,112.236z M575.171,113.411v0.241h1.425l-0.534-0.241H575.171z
			 M575.765,102.784l-0.297,0.4h0.594l0.534-0.267l-0.297-0.134H575.765z M576.596,115.094v0.641l2.019-0.133v-0.134
			c-0.95,0-1.425-0.125-1.425-0.374H576.596z M583.542,98.646l0.534,0.641l-1.128,0.268l-0.297-0.134h-0.891l-0.534,0.267v0.134
			l0.534,0.373v0.535l-0.534,0.507h-1.425l-0.891-0.268v0.534h-2.019v0.134l1.425,0.24l0.891-0.374h0.297l0.831,0.268
			c0.196-0.356,0.771-0.534,1.722-0.534v0.641h-0.831v0.4l1.128,0.507l0.594-0.24v-0.907l0.594-0.268h0.237l0.891,0.134v-0.907
			h-2.019v-0.134l0.297-0.641h0.297l1.425,0.133c0-0.355,0.196-0.533,0.594-0.533C585.104,99.137,584.53,98.877,583.542,98.646z
			 M577.486,82.491l1.128-0.399h-0.297L577.486,82.491z M577.486,108.739v0.134c0,0.249,0.671,0.373,2.019,0.373
			c0,0.356,0.178,0.534,0.534,0.534h0.594l0.594-0.267l-3.206-0.774H577.486z M578.614,117.017h1.722v-0.267l-0.534-0.241h-0.297
			L578.614,117.017z M579.802,114.961c0,0.249-0.297,0.373-0.891,0.373v0.134h1.128l0.297-0.507H579.802z M579.802,107.965
			l0.534,0.267h0.297l-0.594-0.267H579.802z M586.095,105.642v0.268h-1.425c-0.356,0.143-1.505,0.267-3.443,0.373l-0.297-0.134
			v0.268h2.612c0,0.516,0.178,0.774,0.534,0.774h0.594l-0.594-0.4v-0.106l0.594-0.268h2.019l0.831,0.268v-0.535l-0.237-0.133v-0.106
			l0.534-0.268H586.095z M581.227,86.764v0.241h1.128v-0.241H581.227z M583.245,102.918c0,0.428-0.495,0.642-1.484,0.642v0.399
			h0.297l2.612-0.907L583.245,102.918z M581.761,110.048v0.239l1.188,0.268h0.297v-0.268L581.761,110.048z M584.967,85.455v0.267
			h-1.722v0.241h1.425l1.425-0.107l0.594,0.375l0.831-0.134v-0.375l-0.534-0.267H584.967z M583.542,109.246v0.134
			c0,0.16,0.573,0.383,1.722,0.668v-0.534c-0.991,0-1.484-0.089-1.484-0.268H583.542z M584.373,108.231v0.241h1.425v-0.774
			c-0.356,0-0.534,0.178-0.534,0.533H584.373z M585.264,100.328l-0.297,0.401h0.831v-0.401H585.264z M584.967,113.519h1.128v0.534
			l-0.831,0.134l-0.297-0.134V113.519z M585.501,101.771v0.239l1.188,0.134v-0.267L585.501,101.771z M585.501,104.093v0.24h1.484
			l-0.594-0.24H585.501z M585.798,108.739v0.507h0.594v-0.507H585.798z M585.798,112.37v0.134h0.594v0.107l1.425-0.508
			c0.95,0,1.425-0.214,1.425-0.642h0.297c0-0.267-0.377-0.4-1.128-0.4v-0.239h-0.297c-0.397,0-0.594,0.427-0.594,1.281
			L585.798,112.37z M586.688,110.555v0.134l0.831,0.134v-0.268H586.688z M586.985,101.236v0.267l1.722-0.134v-0.133H586.985z
			 M587.282,102.277l0.534,0.267h0.297l-0.594-0.267H587.282z M588.113,106.923l0.594,0.534l0.831-0.534H588.113z M588.41,109.007
			v0.239l0.594,0.268h0.237v-0.507H588.41z M588.41,113.411v0.241h0.831v-0.241H588.41z M588.707,103.318v0.241l1.128,0.134h0.891
			v-0.134C589.814,103.56,589.141,103.479,588.707,103.318z M589.241,109.647v0.507h0.297l0.594-0.24L589.241,109.647z
			 M591.022,100.462h0.237c0.79,0.178,1.188,0.437,1.188,0.774h-1.425l-0.594-0.268v-0.239L591.022,100.462z M590.726,106.416v0.268
			h0.297l0.534-0.268H590.726z M591.854,88.553v0.668l0.891,0.239v-0.133l-0.594-0.774H591.854z"/>
	</g>
</g>
</svg>
